G04 #@! TF.GenerationSoftware,KiCad,Pcbnew,(6.0.2)*
G04 #@! TF.CreationDate,2022-06-05T11:24:39+02:00*
G04 #@! TF.ProjectId,Whame,5768616d-652e-46b6-9963-61645f706362,rev?*
G04 #@! TF.SameCoordinates,Original*
G04 #@! TF.FileFunction,Copper,L1,Top*
G04 #@! TF.FilePolarity,Positive*
%FSLAX46Y46*%
G04 Gerber Fmt 4.6, Leading zero omitted, Abs format (unit mm)*
G04 Created by KiCad (PCBNEW (6.0.2)) date 2022-06-05 11:24:39*
%MOMM*%
%LPD*%
G01*
G04 APERTURE LIST*
G04 Aperture macros list*
%AMRoundRect*
0 Rectangle with rounded corners*
0 $1 Rounding radius*
0 $2 $3 $4 $5 $6 $7 $8 $9 X,Y pos of 4 corners*
0 Add a 4 corners polygon primitive as box body*
4,1,4,$2,$3,$4,$5,$6,$7,$8,$9,$2,$3,0*
0 Add four circle primitives for the rounded corners*
1,1,$1+$1,$2,$3*
1,1,$1+$1,$4,$5*
1,1,$1+$1,$6,$7*
1,1,$1+$1,$8,$9*
0 Add four rect primitives between the rounded corners*
20,1,$1+$1,$2,$3,$4,$5,0*
20,1,$1+$1,$4,$5,$6,$7,0*
20,1,$1+$1,$6,$7,$8,$9,0*
20,1,$1+$1,$8,$9,$2,$3,0*%
G04 Aperture macros list end*
%ADD10C,0.300000*%
G04 #@! TA.AperFunction,NonConductor*
%ADD11C,0.300000*%
G04 #@! TD*
G04 #@! TA.AperFunction,ComponentPad*
%ADD12C,1.524000*%
G04 #@! TD*
G04 #@! TA.AperFunction,ComponentPad*
%ADD13C,4.000000*%
G04 #@! TD*
G04 #@! TA.AperFunction,ComponentPad*
%ADD14C,1.600000*%
G04 #@! TD*
G04 #@! TA.AperFunction,ComponentPad*
%ADD15O,1.600000X1.600000*%
G04 #@! TD*
G04 #@! TA.AperFunction,SMDPad,CuDef*
%ADD16O,2.000000X0.800000*%
G04 #@! TD*
G04 #@! TA.AperFunction,SMDPad,CuDef*
%ADD17O,0.800000X2.000000*%
G04 #@! TD*
G04 #@! TA.AperFunction,SMDPad,CuDef*
%ADD18R,1.800000X1.000000*%
G04 #@! TD*
G04 #@! TA.AperFunction,ComponentPad*
%ADD19R,1.600000X1.600000*%
G04 #@! TD*
G04 #@! TA.AperFunction,ComponentPad*
%ADD20RoundRect,0.650000X-0.650000X-0.650000X0.650000X-0.650000X0.650000X0.650000X-0.650000X0.650000X0*%
G04 #@! TD*
G04 #@! TA.AperFunction,ComponentPad*
%ADD21C,2.600000*%
G04 #@! TD*
G04 #@! TA.AperFunction,ViaPad*
%ADD22C,0.800000*%
G04 #@! TD*
G04 #@! TA.AperFunction,Conductor*
%ADD23C,0.250000*%
G04 #@! TD*
G04 #@! TA.AperFunction,Conductor*
%ADD24C,0.400000*%
G04 #@! TD*
G04 APERTURE END LIST*
D10*
D11*
X135892857Y-58678571D02*
X136250000Y-60178571D01*
X136535714Y-59107142D01*
X136821428Y-60178571D01*
X137178571Y-58678571D01*
X137750000Y-60178571D02*
X137750000Y-58678571D01*
X137750000Y-59392857D02*
X138607142Y-59392857D01*
X138607142Y-60178571D02*
X138607142Y-58678571D01*
X139250000Y-59750000D02*
X139964285Y-59750000D01*
X139107142Y-60178571D02*
X139607142Y-58678571D01*
X140107142Y-60178571D01*
X140607142Y-60178571D02*
X140607142Y-58678571D01*
X141107142Y-59750000D01*
X141607142Y-58678571D01*
X141607142Y-60178571D01*
X142321428Y-59392857D02*
X142821428Y-59392857D01*
X143035714Y-60178571D02*
X142321428Y-60178571D01*
X142321428Y-58678571D01*
X143035714Y-58678571D01*
D12*
G04 #@! TO.P,U2,10,REGOUT*
G04 #@! TO.N,+7.5V*
X163500000Y-93170000D03*
G04 #@! TO.P,U2,9,AD0*
G04 #@! TO.N,GND*
X161500000Y-93250000D03*
G04 #@! TO.P,U2,8,VLOGIC*
G04 #@! TO.N,Net-(U2-Pad23)*
X159500000Y-93250000D03*
G04 #@! TO.P,U2,7,AUX_SCL*
G04 #@! TO.N,Net-(U2-Pad24)*
X157500000Y-93170000D03*
G04 #@! TO.P,U2,6,AUX_SDA*
G04 #@! TO.N,unconnected-(U2-Pad6)*
X155500000Y-93170000D03*
G04 #@! TO.P,U2,5*
G04 #@! TO.N,N/C*
X153500000Y-93170000D03*
G04 #@! TO.P,U2,4*
X151500000Y-93170000D03*
G04 #@! TO.P,U2,3*
X149500000Y-93170000D03*
G04 #@! TO.P,U2,2*
X147500000Y-93170000D03*
G04 #@! TO.P,U2,1,CLKIN*
G04 #@! TO.N,unconnected-(U2-Pad1)*
X145340000Y-93170000D03*
D13*
G04 #@! TO.P,U2,*
G04 #@! TO.N,*
X146500000Y-105170000D03*
X162500000Y-105170000D03*
G04 #@! TD*
D14*
G04 #@! TO.P,R1,1*
G04 #@! TO.N,Net-(R2-PadP$2)*
X146000000Y-76080000D03*
D15*
G04 #@! TO.P,R1,2*
G04 #@! TO.N,Net-(R1-PadP$2)*
X146000000Y-65920000D03*
G04 #@! TD*
D16*
G04 #@! TO.P,U1,1,GND*
G04 #@! TO.N,unconnected-(U1-Pad1)*
X150600000Y-74050000D03*
G04 #@! TO.P,U1,2,SPI_MOSI*
G04 #@! TO.N,unconnected-(U1-Pad2)*
X150600000Y-75250000D03*
G04 #@! TO.P,U1,3,GPIO6*
G04 #@! TO.N,unconnected-(U1-Pad3)*
X150600000Y-76450000D03*
G04 #@! TO.P,U1,4,GPIO7*
G04 #@! TO.N,unconnected-(U1-Pad4)*
X150600000Y-77650000D03*
G04 #@! TO.P,U1,5,RESET*
G04 #@! TO.N,unconnected-(U1-Pad5)*
X150600000Y-78850000D03*
G04 #@! TO.P,U1,6,SPI_CLK*
G04 #@! TO.N,unconnected-(U1-Pad6)*
X150600000Y-80050000D03*
G04 #@! TO.P,U1,7,PCM_CLK*
G04 #@! TO.N,unconnected-(U1-Pad7)*
X150600000Y-81250000D03*
G04 #@! TO.P,U1,8,PCM_SYNC*
G04 #@! TO.N,unconnected-(U1-Pad8)*
X150600000Y-82450000D03*
G04 #@! TO.P,U1,9,PCM_IN*
G04 #@! TO.N,unconnected-(U1-Pad9)*
X150600000Y-83650000D03*
G04 #@! TO.P,U1,10,PCM_OUT*
G04 #@! TO.N,unconnected-(U1-Pad10)*
X150600000Y-84850000D03*
G04 #@! TO.P,U1,11,VDD*
G04 #@! TO.N,Net-(U1-Pad11)*
X150600000Y-86050000D03*
G04 #@! TO.P,U1,12,GND*
G04 #@! TO.N,GND*
X150600000Y-87250000D03*
G04 #@! TO.P,U1,13,UART_RX*
G04 #@! TO.N,Net-(R2-PadP$2)*
X163400000Y-87250000D03*
G04 #@! TO.P,U1,14,UART_TX*
G04 #@! TO.N,Net-(U1-Pad14)*
X163400000Y-86050000D03*
G04 #@! TO.P,U1,15,UART_RTS*
G04 #@! TO.N,unconnected-(U1-Pad15)*
X163400000Y-84850000D03*
G04 #@! TO.P,U1,16,UART_CTS*
G04 #@! TO.N,unconnected-(U1-Pad16)*
X163400000Y-83650000D03*
G04 #@! TO.P,U1,17,USB_D+*
G04 #@! TO.N,unconnected-(U1-Pad17)*
X163400000Y-82450000D03*
G04 #@! TO.P,U1,18,USB_D-*
G04 #@! TO.N,unconnected-(U1-Pad18)*
X163400000Y-81250000D03*
G04 #@! TO.P,U1,19,GPIO2*
G04 #@! TO.N,unconnected-(U1-Pad19)*
X163400000Y-80050000D03*
G04 #@! TO.P,U1,20,GPIO3*
G04 #@! TO.N,unconnected-(U1-Pad20)*
X163400000Y-78850000D03*
G04 #@! TO.P,U1,21,GPIO5*
G04 #@! TO.N,unconnected-(U1-Pad21)*
X163400000Y-77650000D03*
G04 #@! TO.P,U1,22,GPIO4*
G04 #@! TO.N,unconnected-(U1-Pad22)*
X163400000Y-76450000D03*
G04 #@! TO.P,U1,23,SPI_CSB*
G04 #@! TO.N,unconnected-(U1-Pad23)*
X163400000Y-75250000D03*
G04 #@! TO.P,U1,24,SPI_MISO*
G04 #@! TO.N,unconnected-(U1-Pad24)*
X163400000Y-74050000D03*
D17*
G04 #@! TO.P,U1,28,GND*
G04 #@! TO.N,unconnected-(U1-Pad28)*
X160100000Y-89750000D03*
G04 #@! TO.P,U1,29,GND*
G04 #@! TO.N,unconnected-(U1-Pad29)*
X153900000Y-89750000D03*
G04 #@! TO.P,U1,30,AIO0*
G04 #@! TO.N,unconnected-(U1-Pad30)*
X161100000Y-89750000D03*
G04 #@! TO.P,U1,31,GPIO8*
G04 #@! TO.N,unconnected-(U1-Pad31)*
X158800000Y-89750000D03*
G04 #@! TO.P,U1,32,GPIO9*
G04 #@! TO.N,unconnected-(U1-Pad32)*
X157600000Y-89750000D03*
G04 #@! TO.P,U1,33,GPIO10*
G04 #@! TO.N,unconnected-(U1-Pad33)*
X156400000Y-89750000D03*
G04 #@! TO.P,U1,34,GPIO11*
G04 #@! TO.N,unconnected-(U1-Pad34)*
X155200000Y-89750000D03*
G04 #@! TO.P,U1,35,AIO1*
G04 #@! TO.N,unconnected-(U1-Pad35)*
X152900000Y-89750000D03*
D18*
G04 #@! TO.P,U1,36,SHIELD*
G04 #@! TO.N,unconnected-(U1-Pad36)*
X162600000Y-89350000D03*
X151400000Y-70350000D03*
X151400000Y-89350000D03*
X162600000Y-70350000D03*
G04 #@! TD*
D15*
G04 #@! TO.P,A1,30,VIN*
G04 #@! TO.N,N/C*
X141630000Y-65950000D03*
G04 #@! TO.P,A1,29,GND*
G04 #@! TO.N,GND*
X141630000Y-68490000D03*
G04 #@! TO.P,A1,28,~{RESET}*
G04 #@! TO.N,unconnected-(A1-Pad28)*
X141630000Y-71030000D03*
G04 #@! TO.P,A1,27,+5V*
G04 #@! TO.N,+7.5V*
X141630000Y-73570000D03*
G04 #@! TO.P,A1,26,A7*
G04 #@! TO.N,unconnected-(A1-Pad26)*
X141630000Y-76110000D03*
G04 #@! TO.P,A1,25,A6*
G04 #@! TO.N,unconnected-(A1-Pad25)*
X141630000Y-78650000D03*
G04 #@! TO.P,A1,24,SCL/A5*
G04 #@! TO.N,Net-(U2-Pad23)*
X141630000Y-81190000D03*
G04 #@! TO.P,A1,23,SDA/A4*
G04 #@! TO.N,Net-(U2-Pad24)*
X141630000Y-83730000D03*
G04 #@! TO.P,A1,22,A3*
G04 #@! TO.N,unconnected-(A1-Pad22)*
X141630000Y-86270000D03*
G04 #@! TO.P,A1,21,A2*
G04 #@! TO.N,unconnected-(A1-Pad21)*
X141630000Y-88810000D03*
G04 #@! TO.P,A1,20,A1*
G04 #@! TO.N,unconnected-(A1-Pad20)*
X141630000Y-91350000D03*
G04 #@! TO.P,A1,19,A0*
G04 #@! TO.N,unconnected-(A1-Pad19)*
X141630000Y-93890000D03*
G04 #@! TO.P,A1,18,AREF*
G04 #@! TO.N,unconnected-(A1-Pad18)*
X141630000Y-96430000D03*
G04 #@! TO.P,A1,17,3V3*
G04 #@! TO.N,Net-(U1-Pad11)*
X141630000Y-98970000D03*
G04 #@! TO.P,A1,16,SCK*
G04 #@! TO.N,unconnected-(A1-Pad16)*
X141630000Y-101510000D03*
G04 #@! TO.P,A1,15,MISO*
G04 #@! TO.N,unconnected-(A1-Pad15)*
X126390000Y-101510000D03*
G04 #@! TO.P,A1,14,MOSI*
G04 #@! TO.N,unconnected-(A1-Pad14)*
X126390000Y-98970000D03*
G04 #@! TO.P,A1,13,D10*
G04 #@! TO.N,unconnected-(A1-Pad13)*
X126390000Y-96430000D03*
G04 #@! TO.P,A1,12,D9*
G04 #@! TO.N,unconnected-(A1-Pad12)*
X126390000Y-93890000D03*
G04 #@! TO.P,A1,11,D8*
G04 #@! TO.N,unconnected-(A1-Pad11)*
X126390000Y-91350000D03*
G04 #@! TO.P,A1,10,D7*
G04 #@! TO.N,unconnected-(A1-Pad10)*
X126390000Y-88810000D03*
G04 #@! TO.P,A1,9,D6*
G04 #@! TO.N,unconnected-(A1-Pad9)*
X126390000Y-86270000D03*
G04 #@! TO.P,A1,8,D5*
G04 #@! TO.N,unconnected-(A1-Pad8)*
X126390000Y-83730000D03*
G04 #@! TO.P,A1,7,D4*
G04 #@! TO.N,unconnected-(A1-Pad7)*
X126390000Y-81190000D03*
G04 #@! TO.P,A1,6,D3*
G04 #@! TO.N,Net-(U1-Pad14)*
X126390000Y-78650000D03*
G04 #@! TO.P,A1,5,D2*
G04 #@! TO.N,Net-(R1-PadP$2)*
X126390000Y-76110000D03*
G04 #@! TO.P,A1,4,GND*
G04 #@! TO.N,GND*
X126390000Y-73570000D03*
G04 #@! TO.P,A1,3,~{RESET}*
G04 #@! TO.N,unconnected-(A1-Pad3)*
X126390000Y-71030000D03*
G04 #@! TO.P,A1,2,RX1*
G04 #@! TO.N,N/C*
X126390000Y-68490000D03*
D19*
G04 #@! TO.P,A1,1,TX1*
X126390000Y-65950000D03*
G04 #@! TD*
D20*
G04 #@! TO.P,J1,1,Pin_1*
G04 #@! TO.N,+7.5V*
X145960000Y-61000000D03*
D21*
G04 #@! TO.P,J1,2,Pin_2*
G04 #@! TO.N,GND*
X151040000Y-61000000D03*
G04 #@! TD*
D14*
G04 #@! TO.P,R2,1*
G04 #@! TO.N,GND*
X146000000Y-89080000D03*
D15*
G04 #@! TO.P,R2,2*
G04 #@! TO.N,Net-(R2-PadP$2)*
X146000000Y-78920000D03*
G04 #@! TD*
D22*
G04 #@! TO.N,Net-(U1-Pad14)*
X158500000Y-75000000D03*
G04 #@! TO.N,GND*
X138490000Y-68490000D03*
G04 #@! TO.N,Net-(U1-Pad11)*
X153000000Y-87000000D03*
G04 #@! TO.N,Net-(R2-PadP$2)*
X154000000Y-79000000D03*
G04 #@! TD*
D23*
G04 #@! TO.N,Net-(U1-Pad14)*
X158500000Y-81750000D02*
X158500000Y-75000000D01*
X163400000Y-86050000D02*
X162800000Y-86050000D01*
X162800000Y-86050000D02*
X158500000Y-81750000D01*
D24*
G04 #@! TO.N,GND*
X148500000Y-75360000D02*
X148500000Y-86500000D01*
X150600000Y-87250000D02*
X150100489Y-87749511D01*
X148500000Y-86500000D02*
X149250000Y-87250000D01*
X147920000Y-89080000D02*
X149750000Y-87250000D01*
X150100489Y-90249511D02*
X151350978Y-91500000D01*
X137000000Y-67000000D02*
X138490000Y-68490000D01*
X149040000Y-63000000D02*
X138000000Y-63000000D01*
X151040000Y-61000000D02*
X149040000Y-63000000D01*
X146000000Y-89080000D02*
X147920000Y-89080000D01*
X150100489Y-87749511D02*
X150100489Y-90249511D01*
X138000000Y-63000000D02*
X137000000Y-64000000D01*
X149750000Y-87250000D02*
X150600000Y-87250000D01*
X141630000Y-68490000D02*
X148500000Y-75360000D01*
X161500000Y-92500000D02*
X161500000Y-93250000D01*
X141630000Y-68490000D02*
X138490000Y-68490000D01*
X149250000Y-87250000D02*
X149750000Y-87250000D01*
X137000000Y-64000000D02*
X137000000Y-67000000D01*
X151350978Y-91500000D02*
X160500000Y-91500000D01*
X160500000Y-91500000D02*
X161500000Y-92500000D01*
D23*
G04 #@! TO.N,Net-(U1-Pad11)*
X150600000Y-86050000D02*
X152050000Y-86050000D01*
X152050000Y-86050000D02*
X153000000Y-87000000D01*
D24*
G04 #@! TO.N,+7.5V*
X137500000Y-61000000D02*
X136000000Y-62500000D01*
X136000000Y-71500000D02*
X138070000Y-73570000D01*
X136000000Y-62500000D02*
X136000000Y-71500000D01*
X138070000Y-73570000D02*
X141630000Y-73570000D01*
X145960000Y-61000000D02*
X137500000Y-61000000D01*
D23*
G04 #@! TO.N,Net-(R2-PadP$2)*
X156628481Y-80638532D02*
X155638535Y-81628483D01*
X158042705Y-83466970D02*
X158042706Y-83466970D01*
X156911331Y-82901280D02*
X157406307Y-82406307D01*
X158148771Y-82512374D02*
X157830573Y-82830573D01*
X157830573Y-82830573D02*
X157335598Y-83325548D01*
X156487068Y-82477016D02*
X156487066Y-82477015D01*
X161012559Y-86436822D02*
X160729718Y-86719666D01*
X162250000Y-87250000D02*
X162443738Y-87250000D01*
X159739763Y-85164028D02*
X159739764Y-85164028D01*
X156062798Y-82052747D02*
X156805262Y-81310288D01*
X156805262Y-81310288D02*
X156805262Y-81310287D01*
X160588292Y-86012557D02*
X160588293Y-86012557D01*
X159032656Y-85022605D02*
X159032656Y-85022606D01*
X159315499Y-84739763D02*
X159032656Y-85022605D01*
X161436823Y-86861088D02*
X161648953Y-86648958D01*
X155779948Y-79789999D02*
X154790002Y-80779950D01*
X155072840Y-79648577D02*
X155355683Y-79365735D01*
X159315500Y-84315500D02*
X159315499Y-84315499D01*
X155214265Y-81204214D02*
X155709241Y-80709241D01*
X162443738Y-87250000D02*
X163400000Y-87250000D01*
X158466971Y-83466971D02*
X158466970Y-83466970D01*
X155709241Y-80709241D02*
X156204216Y-80214267D01*
X158891234Y-84315499D02*
X158891235Y-84315499D01*
X158466970Y-83891234D02*
X158184127Y-84174076D01*
X158184127Y-84174076D02*
X158184127Y-84174077D01*
X158608392Y-84598342D02*
X158891234Y-84315499D01*
X160164028Y-85588292D02*
X160128673Y-85623647D01*
X157759863Y-83749813D02*
X158042705Y-83466970D01*
X157406307Y-82406307D02*
X157724506Y-82088109D01*
X155355683Y-79365735D02*
X155355683Y-79365734D01*
X162250000Y-86896446D02*
X162249999Y-86896447D01*
X161648953Y-86648958D02*
X161825735Y-86472181D01*
X159456921Y-85446871D02*
X159739763Y-85164028D01*
X162179289Y-86472181D02*
X162250000Y-86542892D01*
X155638535Y-81628483D02*
X155638533Y-81628482D01*
X160128673Y-85623647D02*
X159881185Y-85871135D01*
X160305450Y-86295400D02*
X160588292Y-86012557D01*
X161153981Y-87143930D02*
X161436823Y-86861088D01*
X154000000Y-79000000D02*
X154648576Y-79648577D01*
X161012558Y-86012558D02*
X161012559Y-86012558D01*
X160164029Y-85164029D02*
X160164028Y-85164028D01*
X154790002Y-80779950D02*
X154790000Y-80779949D01*
X160729718Y-86719666D02*
X160729716Y-86719665D01*
X157229527Y-81734552D02*
X156487068Y-82477016D01*
X146000000Y-76080000D02*
X146000000Y-78920000D01*
X158466969Y-83891233D02*
G75*
G03*
X158466969Y-83466971I-212131J212131D01*
G01*
X156911330Y-82901279D02*
G75*
G02*
X156487068Y-82901279I-212131J212131D01*
G01*
X158608391Y-84598341D02*
G75*
G02*
X158184129Y-84598341I-212131J212131D01*
G01*
X159032657Y-85446871D02*
G75*
G02*
X159032656Y-85022606I212127J212133D01*
G01*
X155638534Y-82052747D02*
G75*
G02*
X155638533Y-81628482I212134J212133D01*
G01*
X155779947Y-79789998D02*
G75*
G03*
X155779947Y-79365736I-212131J212131D01*
G01*
X154790001Y-81204214D02*
G75*
G02*
X154790000Y-80779949I212134J212133D01*
G01*
X158466971Y-83466971D02*
G75*
G03*
X158042706Y-83466970I-212133J-212127D01*
G01*
X157335599Y-83749813D02*
G75*
G02*
X157335598Y-83325548I212127J212133D01*
G01*
X160164029Y-85164029D02*
G75*
G03*
X159739764Y-85164028I-212133J-212127D01*
G01*
X162179289Y-86472181D02*
G75*
G03*
X161825735Y-86472181I-176777J-176778D01*
G01*
X155214264Y-81204213D02*
G75*
G02*
X154790002Y-81204213I-212131J212131D01*
G01*
X159315500Y-84315500D02*
G75*
G03*
X158891235Y-84315499I-212133J-212127D01*
G01*
X159456920Y-85446870D02*
G75*
G02*
X159032658Y-85446870I-212131J212131D01*
G01*
X156487067Y-82901280D02*
G75*
G02*
X156487066Y-82477015I212134J212133D01*
G01*
X157759862Y-83749812D02*
G75*
G02*
X157335600Y-83749812I-212131J212131D01*
G01*
X159881186Y-86295400D02*
G75*
G02*
X159881185Y-85871135I212127J212133D01*
G01*
X158148770Y-82088111D02*
G75*
G03*
X157724507Y-82088110I-212132J-212130D01*
G01*
X160164027Y-85588291D02*
G75*
G03*
X160164027Y-85164029I-212131J212131D01*
G01*
X156628480Y-80214269D02*
G75*
G03*
X156204217Y-80214268I-212132J-212130D01*
G01*
X157229526Y-81734551D02*
G75*
G03*
X157229526Y-81310289I-212131J212131D01*
G01*
X162250000Y-87250000D02*
G75*
G02*
X162249999Y-86896447I176775J176777D01*
G01*
X158148770Y-82512373D02*
G75*
G03*
X158148770Y-82088111I-212131J212131D01*
G01*
X155072839Y-79648576D02*
G75*
G02*
X154648577Y-79648576I-212131J212131D01*
G01*
X156062797Y-82052746D02*
G75*
G02*
X155638535Y-82052746I-212131J212131D01*
G01*
X159315498Y-84739762D02*
G75*
G03*
X159315498Y-84315500I-212131J212131D01*
G01*
X161012558Y-86436821D02*
G75*
G03*
X161012558Y-86012559I-212131J212131D01*
G01*
X155779947Y-79365736D02*
G75*
G03*
X155355684Y-79365735I-212132J-212130D01*
G01*
X160305449Y-86295399D02*
G75*
G02*
X159881187Y-86295399I-212131J212131D01*
G01*
X161012558Y-86012558D02*
G75*
G03*
X160588293Y-86012557I-212133J-212127D01*
G01*
X156628480Y-80638531D02*
G75*
G03*
X156628480Y-80214269I-212131J212131D01*
G01*
X157229526Y-81310289D02*
G75*
G03*
X156805263Y-81310288I-212132J-212130D01*
G01*
X162250000Y-86896446D02*
G75*
G03*
X162250000Y-86542892I-176778J176777D01*
G01*
X158184128Y-84598342D02*
G75*
G02*
X158184127Y-84174077I212127J212133D01*
G01*
X160729717Y-87143930D02*
G75*
G02*
X160729716Y-86719665I212134J212133D01*
G01*
X161153980Y-87143929D02*
G75*
G02*
X160729718Y-87143929I-212131J212131D01*
G01*
G04 #@! TD*
G04 #@! TA.AperFunction,Conductor*
G04 #@! TO.N,GND*
G36*
X134972591Y-57408002D02*
G01*
X135019084Y-57461658D01*
X135029188Y-57531932D01*
X135027590Y-57540783D01*
X135023518Y-57559500D01*
X135020572Y-57559500D01*
X135020572Y-61440500D01*
X135753340Y-61440500D01*
X135821461Y-61460502D01*
X135867954Y-61514158D01*
X135878058Y-61584432D01*
X135848564Y-61649012D01*
X135842435Y-61655595D01*
X135519480Y-61978550D01*
X135513215Y-61984404D01*
X135469615Y-62022439D01*
X135432872Y-62074719D01*
X135428939Y-62080014D01*
X135389524Y-62130282D01*
X135386401Y-62137198D01*
X135385017Y-62139484D01*
X135376643Y-62154165D01*
X135375378Y-62156525D01*
X135371010Y-62162739D01*
X135368250Y-62169818D01*
X135368249Y-62169820D01*
X135347798Y-62222275D01*
X135345247Y-62228344D01*
X135318955Y-62286573D01*
X135317571Y-62294040D01*
X135316770Y-62296595D01*
X135312141Y-62312848D01*
X135311478Y-62315428D01*
X135308718Y-62322509D01*
X135307727Y-62330040D01*
X135307726Y-62330042D01*
X135300379Y-62385852D01*
X135299348Y-62392359D01*
X135287704Y-62455186D01*
X135288141Y-62462766D01*
X135288141Y-62462767D01*
X135291291Y-62517392D01*
X135291500Y-62524646D01*
X135291500Y-71471088D01*
X135291208Y-71479658D01*
X135287275Y-71537352D01*
X135288580Y-71544829D01*
X135288580Y-71544830D01*
X135298261Y-71600299D01*
X135299223Y-71606821D01*
X135306898Y-71670242D01*
X135309581Y-71677343D01*
X135310222Y-71679952D01*
X135314685Y-71696262D01*
X135315450Y-71698798D01*
X135316757Y-71706284D01*
X135319811Y-71713241D01*
X135342442Y-71764795D01*
X135344933Y-71770899D01*
X135367513Y-71830656D01*
X135371817Y-71836919D01*
X135373054Y-71839285D01*
X135381299Y-71854097D01*
X135382632Y-71856351D01*
X135385685Y-71863305D01*
X135397113Y-71878197D01*
X135424579Y-71913991D01*
X135428459Y-71919332D01*
X135460339Y-71965720D01*
X135460344Y-71965725D01*
X135464643Y-71971981D01*
X135470313Y-71977032D01*
X135470314Y-71977034D01*
X135511170Y-72013435D01*
X135516446Y-72018416D01*
X137548550Y-74050520D01*
X137554404Y-74056785D01*
X137592439Y-74100385D01*
X137598653Y-74104752D01*
X137644719Y-74137128D01*
X137650014Y-74141061D01*
X137700282Y-74180476D01*
X137707198Y-74183599D01*
X137709484Y-74184983D01*
X137724165Y-74193357D01*
X137726525Y-74194622D01*
X137732739Y-74198990D01*
X137739818Y-74201750D01*
X137739820Y-74201751D01*
X137792275Y-74222202D01*
X137798344Y-74224753D01*
X137856573Y-74251045D01*
X137864046Y-74252430D01*
X137866612Y-74253234D01*
X137882835Y-74257855D01*
X137885427Y-74258520D01*
X137892509Y-74261282D01*
X137900044Y-74262274D01*
X137955861Y-74269622D01*
X137962377Y-74270654D01*
X138000770Y-74277770D01*
X138025186Y-74282295D01*
X138032766Y-74281858D01*
X138032767Y-74281858D01*
X138087380Y-74278709D01*
X138094633Y-74278500D01*
X140463122Y-74278500D01*
X140531243Y-74298502D01*
X140566335Y-74332229D01*
X140620643Y-74409789D01*
X140623802Y-74414300D01*
X140785700Y-74576198D01*
X140790208Y-74579355D01*
X140790211Y-74579357D01*
X140860315Y-74628444D01*
X140973251Y-74707523D01*
X140978233Y-74709846D01*
X140978238Y-74709849D01*
X141012457Y-74725805D01*
X141065742Y-74772722D01*
X141085203Y-74840999D01*
X141064661Y-74908959D01*
X141012457Y-74954195D01*
X140978238Y-74970151D01*
X140978233Y-74970154D01*
X140973251Y-74972477D01*
X140868389Y-75045902D01*
X140790211Y-75100643D01*
X140790208Y-75100645D01*
X140785700Y-75103802D01*
X140623802Y-75265700D01*
X140492477Y-75453251D01*
X140490154Y-75458233D01*
X140490151Y-75458238D01*
X140452809Y-75538319D01*
X140395716Y-75660757D01*
X140394294Y-75666065D01*
X140394293Y-75666067D01*
X140343081Y-75857193D01*
X140336457Y-75881913D01*
X140316502Y-76110000D01*
X140336457Y-76338087D01*
X140337881Y-76343400D01*
X140337881Y-76343402D01*
X140386255Y-76523933D01*
X140395716Y-76559243D01*
X140398039Y-76564224D01*
X140398039Y-76564225D01*
X140490151Y-76761762D01*
X140490154Y-76761767D01*
X140492477Y-76766749D01*
X140495634Y-76771257D01*
X140602796Y-76924300D01*
X140623802Y-76954300D01*
X140785700Y-77116198D01*
X140790208Y-77119355D01*
X140790211Y-77119357D01*
X140796929Y-77124061D01*
X140973251Y-77247523D01*
X140978233Y-77249846D01*
X140978238Y-77249849D01*
X141012457Y-77265805D01*
X141065742Y-77312722D01*
X141085203Y-77380999D01*
X141064661Y-77448959D01*
X141012457Y-77494195D01*
X140978238Y-77510151D01*
X140978233Y-77510154D01*
X140973251Y-77512477D01*
X140922439Y-77548056D01*
X140790211Y-77640643D01*
X140790208Y-77640645D01*
X140785700Y-77643802D01*
X140623802Y-77805700D01*
X140492477Y-77993251D01*
X140490154Y-77998233D01*
X140490151Y-77998238D01*
X140398039Y-78195775D01*
X140395716Y-78200757D01*
X140394294Y-78206065D01*
X140394293Y-78206067D01*
X140362145Y-78326045D01*
X140336457Y-78421913D01*
X140316502Y-78650000D01*
X140336457Y-78878087D01*
X140337881Y-78883400D01*
X140337881Y-78883402D01*
X140378817Y-79036174D01*
X140395716Y-79099243D01*
X140398039Y-79104224D01*
X140398039Y-79104225D01*
X140490151Y-79301762D01*
X140490154Y-79301767D01*
X140492477Y-79306749D01*
X140562330Y-79406509D01*
X140611819Y-79477186D01*
X140623802Y-79494300D01*
X140785700Y-79656198D01*
X140790208Y-79659355D01*
X140790211Y-79659357D01*
X140868389Y-79714098D01*
X140973251Y-79787523D01*
X140978233Y-79789846D01*
X140978238Y-79789849D01*
X141012457Y-79805805D01*
X141065742Y-79852722D01*
X141085203Y-79920999D01*
X141064661Y-79988959D01*
X141012457Y-80034195D01*
X140978238Y-80050151D01*
X140978233Y-80050154D01*
X140973251Y-80052477D01*
X140962723Y-80059849D01*
X140790211Y-80180643D01*
X140790208Y-80180645D01*
X140785700Y-80183802D01*
X140623802Y-80345700D01*
X140492477Y-80533251D01*
X140490154Y-80538233D01*
X140490151Y-80538238D01*
X140403501Y-80724061D01*
X140395716Y-80740757D01*
X140394294Y-80746065D01*
X140394293Y-80746067D01*
X140353105Y-80899782D01*
X140336457Y-80961913D01*
X140316502Y-81190000D01*
X140336457Y-81418087D01*
X140337881Y-81423400D01*
X140337881Y-81423402D01*
X140389881Y-81617465D01*
X140395716Y-81639243D01*
X140398039Y-81644224D01*
X140398039Y-81644225D01*
X140490151Y-81841762D01*
X140490154Y-81841767D01*
X140492477Y-81846749D01*
X140495634Y-81851257D01*
X140601332Y-82002209D01*
X140623802Y-82034300D01*
X140785700Y-82196198D01*
X140790208Y-82199355D01*
X140790211Y-82199357D01*
X140868389Y-82254098D01*
X140973251Y-82327523D01*
X140978233Y-82329846D01*
X140978238Y-82329849D01*
X141012457Y-82345805D01*
X141065742Y-82392722D01*
X141085203Y-82460999D01*
X141064661Y-82528959D01*
X141012457Y-82574195D01*
X140978238Y-82590151D01*
X140978233Y-82590154D01*
X140973251Y-82592477D01*
X140946842Y-82610969D01*
X140790211Y-82720643D01*
X140790208Y-82720645D01*
X140785700Y-82723802D01*
X140623802Y-82885700D01*
X140620645Y-82890208D01*
X140620643Y-82890211D01*
X140595400Y-82926262D01*
X140492477Y-83073251D01*
X140490154Y-83078233D01*
X140490151Y-83078238D01*
X140418994Y-83230837D01*
X140395716Y-83280757D01*
X140394294Y-83286065D01*
X140394293Y-83286067D01*
X140376486Y-83352522D01*
X140336457Y-83501913D01*
X140316502Y-83730000D01*
X140336457Y-83958087D01*
X140395716Y-84179243D01*
X140398039Y-84184224D01*
X140398039Y-84184225D01*
X140490151Y-84381762D01*
X140490154Y-84381767D01*
X140492477Y-84386749D01*
X140623802Y-84574300D01*
X140785700Y-84736198D01*
X140790208Y-84739355D01*
X140790211Y-84739357D01*
X140802635Y-84748056D01*
X140973251Y-84867523D01*
X140978233Y-84869846D01*
X140978238Y-84869849D01*
X141012457Y-84885805D01*
X141065742Y-84932722D01*
X141085203Y-85000999D01*
X141064661Y-85068959D01*
X141012457Y-85114195D01*
X140978238Y-85130151D01*
X140978233Y-85130154D01*
X140973251Y-85132477D01*
X140868389Y-85205902D01*
X140790211Y-85260643D01*
X140790208Y-85260645D01*
X140785700Y-85263802D01*
X140623802Y-85425700D01*
X140620645Y-85430208D01*
X140620643Y-85430211D01*
X140584075Y-85482436D01*
X140492477Y-85613251D01*
X140490154Y-85618233D01*
X140490151Y-85618238D01*
X140420451Y-85767712D01*
X140395716Y-85820757D01*
X140394294Y-85826065D01*
X140394293Y-85826067D01*
X140348009Y-85998799D01*
X140336457Y-86041913D01*
X140316502Y-86270000D01*
X140336457Y-86498087D01*
X140337881Y-86503400D01*
X140337881Y-86503402D01*
X140380178Y-86661253D01*
X140395716Y-86719243D01*
X140398039Y-86724224D01*
X140398039Y-86724225D01*
X140490151Y-86921762D01*
X140490154Y-86921767D01*
X140492477Y-86926749D01*
X140516937Y-86961681D01*
X140616000Y-87103157D01*
X140623802Y-87114300D01*
X140785700Y-87276198D01*
X140790208Y-87279355D01*
X140790211Y-87279357D01*
X140859422Y-87327819D01*
X140973251Y-87407523D01*
X140978233Y-87409846D01*
X140978238Y-87409849D01*
X141012457Y-87425805D01*
X141065742Y-87472722D01*
X141085203Y-87540999D01*
X141064661Y-87608959D01*
X141012457Y-87654195D01*
X140978238Y-87670151D01*
X140978233Y-87670154D01*
X140973251Y-87672477D01*
X140889165Y-87731355D01*
X140790211Y-87800643D01*
X140790208Y-87800645D01*
X140785700Y-87803802D01*
X140623802Y-87965700D01*
X140620645Y-87970208D01*
X140620643Y-87970211D01*
X140565902Y-88048389D01*
X140492477Y-88153251D01*
X140490154Y-88158233D01*
X140490151Y-88158238D01*
X140403455Y-88344160D01*
X140395716Y-88360757D01*
X140336457Y-88581913D01*
X140316502Y-88810000D01*
X140336457Y-89038087D01*
X140395716Y-89259243D01*
X140398039Y-89264224D01*
X140398039Y-89264225D01*
X140490151Y-89461762D01*
X140490154Y-89461767D01*
X140492477Y-89466749D01*
X140623802Y-89654300D01*
X140785700Y-89816198D01*
X140790208Y-89819355D01*
X140790211Y-89819357D01*
X140868389Y-89874098D01*
X140973251Y-89947523D01*
X140978233Y-89949846D01*
X140978238Y-89949849D01*
X141012457Y-89965805D01*
X141065742Y-90012722D01*
X141085203Y-90080999D01*
X141064661Y-90148959D01*
X141012457Y-90194195D01*
X140978238Y-90210151D01*
X140978233Y-90210154D01*
X140973251Y-90212477D01*
X140868389Y-90285902D01*
X140790211Y-90340643D01*
X140790208Y-90340645D01*
X140785700Y-90343802D01*
X140623802Y-90505700D01*
X140492477Y-90693251D01*
X140490154Y-90698233D01*
X140490151Y-90698238D01*
X140404823Y-90881226D01*
X140395716Y-90900757D01*
X140394294Y-90906065D01*
X140394293Y-90906067D01*
X140337881Y-91116598D01*
X140336457Y-91121913D01*
X140316502Y-91350000D01*
X140336457Y-91578087D01*
X140395716Y-91799243D01*
X140398039Y-91804224D01*
X140398039Y-91804225D01*
X140490151Y-92001762D01*
X140490154Y-92001767D01*
X140492477Y-92006749D01*
X140623802Y-92194300D01*
X140785700Y-92356198D01*
X140790208Y-92359355D01*
X140790211Y-92359357D01*
X140824118Y-92383099D01*
X140973251Y-92487523D01*
X140978233Y-92489846D01*
X140978238Y-92489849D01*
X141012457Y-92505805D01*
X141065742Y-92552722D01*
X141085203Y-92620999D01*
X141064661Y-92688959D01*
X141012457Y-92734195D01*
X140978238Y-92750151D01*
X140978233Y-92750154D01*
X140973251Y-92752477D01*
X140892782Y-92808822D01*
X140790211Y-92880643D01*
X140790208Y-92880645D01*
X140785700Y-92883802D01*
X140623802Y-93045700D01*
X140492477Y-93233251D01*
X140490154Y-93238233D01*
X140490151Y-93238238D01*
X140398039Y-93435775D01*
X140395716Y-93440757D01*
X140394294Y-93446065D01*
X140394293Y-93446067D01*
X140337881Y-93656598D01*
X140336457Y-93661913D01*
X140316502Y-93890000D01*
X140336457Y-94118087D01*
X140337881Y-94123400D01*
X140337881Y-94123402D01*
X140366481Y-94230136D01*
X140395716Y-94339243D01*
X140398039Y-94344224D01*
X140398039Y-94344225D01*
X140490151Y-94541762D01*
X140490154Y-94541767D01*
X140492477Y-94546749D01*
X140623802Y-94734300D01*
X140785700Y-94896198D01*
X140790208Y-94899355D01*
X140790211Y-94899357D01*
X140868389Y-94954098D01*
X140973251Y-95027523D01*
X140978233Y-95029846D01*
X140978238Y-95029849D01*
X141012457Y-95045805D01*
X141065742Y-95092722D01*
X141085203Y-95160999D01*
X141064661Y-95228959D01*
X141012457Y-95274195D01*
X140978238Y-95290151D01*
X140978233Y-95290154D01*
X140973251Y-95292477D01*
X140868389Y-95365902D01*
X140790211Y-95420643D01*
X140790208Y-95420645D01*
X140785700Y-95423802D01*
X140623802Y-95585700D01*
X140492477Y-95773251D01*
X140490154Y-95778233D01*
X140490151Y-95778238D01*
X140398039Y-95975775D01*
X140395716Y-95980757D01*
X140336457Y-96201913D01*
X140316502Y-96430000D01*
X140336457Y-96658087D01*
X140395716Y-96879243D01*
X140398039Y-96884224D01*
X140398039Y-96884225D01*
X140490151Y-97081762D01*
X140490154Y-97081767D01*
X140492477Y-97086749D01*
X140623802Y-97274300D01*
X140785700Y-97436198D01*
X140790208Y-97439355D01*
X140790211Y-97439357D01*
X140868389Y-97494098D01*
X140973251Y-97567523D01*
X140978233Y-97569846D01*
X140978238Y-97569849D01*
X141012457Y-97585805D01*
X141065742Y-97632722D01*
X141085203Y-97700999D01*
X141064661Y-97768959D01*
X141012457Y-97814195D01*
X140978238Y-97830151D01*
X140978233Y-97830154D01*
X140973251Y-97832477D01*
X140868389Y-97905902D01*
X140790211Y-97960643D01*
X140790208Y-97960645D01*
X140785700Y-97963802D01*
X140623802Y-98125700D01*
X140492477Y-98313251D01*
X140490154Y-98318233D01*
X140490151Y-98318238D01*
X140398039Y-98515775D01*
X140395716Y-98520757D01*
X140336457Y-98741913D01*
X140316502Y-98970000D01*
X140336457Y-99198087D01*
X140395716Y-99419243D01*
X140398039Y-99424224D01*
X140398039Y-99424225D01*
X140490151Y-99621762D01*
X140490154Y-99621767D01*
X140492477Y-99626749D01*
X140623802Y-99814300D01*
X140785700Y-99976198D01*
X140790208Y-99979355D01*
X140790211Y-99979357D01*
X140868389Y-100034098D01*
X140973251Y-100107523D01*
X140978233Y-100109846D01*
X140978238Y-100109849D01*
X141012457Y-100125805D01*
X141065742Y-100172722D01*
X141085203Y-100240999D01*
X141064661Y-100308959D01*
X141012457Y-100354195D01*
X140978238Y-100370151D01*
X140978233Y-100370154D01*
X140973251Y-100372477D01*
X140868389Y-100445902D01*
X140790211Y-100500643D01*
X140790208Y-100500645D01*
X140785700Y-100503802D01*
X140623802Y-100665700D01*
X140492477Y-100853251D01*
X140490154Y-100858233D01*
X140490151Y-100858238D01*
X140398039Y-101055775D01*
X140395716Y-101060757D01*
X140336457Y-101281913D01*
X140316502Y-101510000D01*
X140336457Y-101738087D01*
X140395716Y-101959243D01*
X140398039Y-101964224D01*
X140398039Y-101964225D01*
X140490151Y-102161762D01*
X140490154Y-102161767D01*
X140492477Y-102166749D01*
X140623802Y-102354300D01*
X140785700Y-102516198D01*
X140790208Y-102519355D01*
X140790211Y-102519357D01*
X140868389Y-102574098D01*
X140973251Y-102647523D01*
X140978233Y-102649846D01*
X140978238Y-102649849D01*
X141175775Y-102741961D01*
X141180757Y-102744284D01*
X141186065Y-102745706D01*
X141186067Y-102745707D01*
X141396598Y-102802119D01*
X141396600Y-102802119D01*
X141401913Y-102803543D01*
X141630000Y-102823498D01*
X141858087Y-102803543D01*
X141863400Y-102802119D01*
X141863402Y-102802119D01*
X142073933Y-102745707D01*
X142073935Y-102745706D01*
X142079243Y-102744284D01*
X142084225Y-102741961D01*
X142281762Y-102649849D01*
X142281767Y-102649846D01*
X142286749Y-102647523D01*
X142391611Y-102574098D01*
X142469789Y-102519357D01*
X142469792Y-102519355D01*
X142474300Y-102516198D01*
X142636198Y-102354300D01*
X142767523Y-102166749D01*
X142769846Y-102161767D01*
X142769849Y-102161762D01*
X142861961Y-101964225D01*
X142861961Y-101964224D01*
X142864284Y-101959243D01*
X142923543Y-101738087D01*
X142943498Y-101510000D01*
X142923543Y-101281913D01*
X142864284Y-101060757D01*
X142861961Y-101055775D01*
X142769849Y-100858238D01*
X142769846Y-100858233D01*
X142767523Y-100853251D01*
X142636198Y-100665700D01*
X142474300Y-100503802D01*
X142469792Y-100500645D01*
X142469789Y-100500643D01*
X142391611Y-100445902D01*
X142286749Y-100372477D01*
X142281767Y-100370154D01*
X142281762Y-100370151D01*
X142247543Y-100354195D01*
X142194258Y-100307278D01*
X142174797Y-100239001D01*
X142195339Y-100171041D01*
X142247543Y-100125805D01*
X142281762Y-100109849D01*
X142281767Y-100109846D01*
X142286749Y-100107523D01*
X142391611Y-100034098D01*
X142469789Y-99979357D01*
X142469792Y-99979355D01*
X142474300Y-99976198D01*
X142636198Y-99814300D01*
X142767523Y-99626749D01*
X142769846Y-99621767D01*
X142769849Y-99621762D01*
X142861961Y-99424225D01*
X142861961Y-99424224D01*
X142864284Y-99419243D01*
X142923543Y-99198087D01*
X142943498Y-98970000D01*
X142923543Y-98741913D01*
X142864284Y-98520757D01*
X142861961Y-98515775D01*
X142769849Y-98318238D01*
X142769846Y-98318233D01*
X142767523Y-98313251D01*
X142636198Y-98125700D01*
X142474300Y-97963802D01*
X142469792Y-97960645D01*
X142469789Y-97960643D01*
X142391611Y-97905902D01*
X142286749Y-97832477D01*
X142281767Y-97830154D01*
X142281762Y-97830151D01*
X142247543Y-97814195D01*
X142194258Y-97767278D01*
X142174797Y-97699001D01*
X142195339Y-97631041D01*
X142247543Y-97585805D01*
X142281762Y-97569849D01*
X142281767Y-97569846D01*
X142286749Y-97567523D01*
X142391611Y-97494098D01*
X142469789Y-97439357D01*
X142469792Y-97439355D01*
X142474300Y-97436198D01*
X142636198Y-97274300D01*
X142767523Y-97086749D01*
X142769846Y-97081767D01*
X142769849Y-97081762D01*
X142861961Y-96884225D01*
X142861961Y-96884224D01*
X142864284Y-96879243D01*
X142923543Y-96658087D01*
X142943498Y-96430000D01*
X142923543Y-96201913D01*
X142864284Y-95980757D01*
X142861961Y-95975775D01*
X142769849Y-95778238D01*
X142769846Y-95778233D01*
X142767523Y-95773251D01*
X142636198Y-95585700D01*
X142474300Y-95423802D01*
X142469792Y-95420645D01*
X142469789Y-95420643D01*
X142391611Y-95365902D01*
X142286749Y-95292477D01*
X142281767Y-95290154D01*
X142281762Y-95290151D01*
X142247543Y-95274195D01*
X142194258Y-95227278D01*
X142174797Y-95159001D01*
X142195339Y-95091041D01*
X142247543Y-95045805D01*
X142281762Y-95029849D01*
X142281767Y-95029846D01*
X142286749Y-95027523D01*
X142391611Y-94954098D01*
X142469789Y-94899357D01*
X142469792Y-94899355D01*
X142474300Y-94896198D01*
X142636198Y-94734300D01*
X142767523Y-94546749D01*
X142769846Y-94541767D01*
X142769849Y-94541762D01*
X142861961Y-94344225D01*
X142861961Y-94344224D01*
X142864284Y-94339243D01*
X142893520Y-94230136D01*
X142922119Y-94123402D01*
X142922119Y-94123400D01*
X142923543Y-94118087D01*
X142943498Y-93890000D01*
X142923543Y-93661913D01*
X142922119Y-93656598D01*
X142865707Y-93446067D01*
X142865706Y-93446065D01*
X142864284Y-93440757D01*
X142861961Y-93435775D01*
X142769849Y-93238238D01*
X142769846Y-93238233D01*
X142767523Y-93233251D01*
X142723234Y-93170000D01*
X144064647Y-93170000D01*
X144084022Y-93391463D01*
X144141560Y-93606196D01*
X144143882Y-93611177D01*
X144143883Y-93611178D01*
X144233186Y-93802689D01*
X144233189Y-93802694D01*
X144235512Y-93807676D01*
X144238668Y-93812183D01*
X144238669Y-93812185D01*
X144329538Y-93941959D01*
X144363023Y-93989781D01*
X144520219Y-94146977D01*
X144524727Y-94150134D01*
X144524730Y-94150136D01*
X144600495Y-94203187D01*
X144702323Y-94274488D01*
X144707305Y-94276811D01*
X144707310Y-94276814D01*
X144878872Y-94356814D01*
X144903804Y-94368440D01*
X144909112Y-94369862D01*
X144909114Y-94369863D01*
X144974949Y-94387503D01*
X145118537Y-94425978D01*
X145340000Y-94445353D01*
X145561463Y-94425978D01*
X145705051Y-94387503D01*
X145770886Y-94369863D01*
X145770888Y-94369862D01*
X145776196Y-94368440D01*
X145801128Y-94356814D01*
X145972690Y-94276814D01*
X145972695Y-94276811D01*
X145977677Y-94274488D01*
X146079505Y-94203187D01*
X146155270Y-94150136D01*
X146155273Y-94150134D01*
X146159781Y-94146977D01*
X146316977Y-93989781D01*
X146320136Y-93985270D01*
X146323480Y-93981285D01*
X146382591Y-93941959D01*
X146453578Y-93940835D01*
X146516520Y-93981285D01*
X146519864Y-93985270D01*
X146523023Y-93989781D01*
X146680219Y-94146977D01*
X146684727Y-94150134D01*
X146684730Y-94150136D01*
X146760495Y-94203187D01*
X146862323Y-94274488D01*
X146867305Y-94276811D01*
X146867310Y-94276814D01*
X147038872Y-94356814D01*
X147063804Y-94368440D01*
X147069112Y-94369862D01*
X147069114Y-94369863D01*
X147134949Y-94387503D01*
X147278537Y-94425978D01*
X147500000Y-94445353D01*
X147721463Y-94425978D01*
X147865051Y-94387503D01*
X147930886Y-94369863D01*
X147930888Y-94369862D01*
X147936196Y-94368440D01*
X147961128Y-94356814D01*
X148132690Y-94276814D01*
X148132695Y-94276811D01*
X148137677Y-94274488D01*
X148239505Y-94203187D01*
X148315270Y-94150136D01*
X148315273Y-94150134D01*
X148319781Y-94146977D01*
X148410905Y-94055853D01*
X148473217Y-94021827D01*
X148544032Y-94026892D01*
X148589095Y-94055853D01*
X148680219Y-94146977D01*
X148684727Y-94150134D01*
X148684730Y-94150136D01*
X148760495Y-94203187D01*
X148862323Y-94274488D01*
X148867305Y-94276811D01*
X148867310Y-94276814D01*
X149038872Y-94356814D01*
X149063804Y-94368440D01*
X149069112Y-94369862D01*
X149069114Y-94369863D01*
X149134949Y-94387503D01*
X149278537Y-94425978D01*
X149500000Y-94445353D01*
X149721463Y-94425978D01*
X149865051Y-94387503D01*
X149930886Y-94369863D01*
X149930888Y-94369862D01*
X149936196Y-94368440D01*
X149961128Y-94356814D01*
X150132690Y-94276814D01*
X150132695Y-94276811D01*
X150137677Y-94274488D01*
X150239505Y-94203187D01*
X150315270Y-94150136D01*
X150315273Y-94150134D01*
X150319781Y-94146977D01*
X150410905Y-94055853D01*
X150473217Y-94021827D01*
X150544032Y-94026892D01*
X150589095Y-94055853D01*
X150680219Y-94146977D01*
X150684727Y-94150134D01*
X150684730Y-94150136D01*
X150760495Y-94203187D01*
X150862323Y-94274488D01*
X150867305Y-94276811D01*
X150867310Y-94276814D01*
X151038872Y-94356814D01*
X151063804Y-94368440D01*
X151069112Y-94369862D01*
X151069114Y-94369863D01*
X151134949Y-94387503D01*
X151278537Y-94425978D01*
X151500000Y-94445353D01*
X151721463Y-94425978D01*
X151865051Y-94387503D01*
X151930886Y-94369863D01*
X151930888Y-94369862D01*
X151936196Y-94368440D01*
X151961128Y-94356814D01*
X152132690Y-94276814D01*
X152132695Y-94276811D01*
X152137677Y-94274488D01*
X152239505Y-94203187D01*
X152315270Y-94150136D01*
X152315273Y-94150134D01*
X152319781Y-94146977D01*
X152410905Y-94055853D01*
X152473217Y-94021827D01*
X152544032Y-94026892D01*
X152589095Y-94055853D01*
X152680219Y-94146977D01*
X152684727Y-94150134D01*
X152684730Y-94150136D01*
X152760495Y-94203187D01*
X152862323Y-94274488D01*
X152867305Y-94276811D01*
X152867310Y-94276814D01*
X153038872Y-94356814D01*
X153063804Y-94368440D01*
X153069112Y-94369862D01*
X153069114Y-94369863D01*
X153134949Y-94387503D01*
X153278537Y-94425978D01*
X153500000Y-94445353D01*
X153721463Y-94425978D01*
X153865051Y-94387503D01*
X153930886Y-94369863D01*
X153930888Y-94369862D01*
X153936196Y-94368440D01*
X153961128Y-94356814D01*
X154132690Y-94276814D01*
X154132695Y-94276811D01*
X154137677Y-94274488D01*
X154239505Y-94203187D01*
X154315270Y-94150136D01*
X154315273Y-94150134D01*
X154319781Y-94146977D01*
X154410905Y-94055853D01*
X154473217Y-94021827D01*
X154544032Y-94026892D01*
X154589095Y-94055853D01*
X154680219Y-94146977D01*
X154684727Y-94150134D01*
X154684730Y-94150136D01*
X154760495Y-94203187D01*
X154862323Y-94274488D01*
X154867305Y-94276811D01*
X154867310Y-94276814D01*
X155038872Y-94356814D01*
X155063804Y-94368440D01*
X155069112Y-94369862D01*
X155069114Y-94369863D01*
X155134949Y-94387503D01*
X155278537Y-94425978D01*
X155500000Y-94445353D01*
X155721463Y-94425978D01*
X155865051Y-94387503D01*
X155930886Y-94369863D01*
X155930888Y-94369862D01*
X155936196Y-94368440D01*
X155961128Y-94356814D01*
X156132690Y-94276814D01*
X156132695Y-94276811D01*
X156137677Y-94274488D01*
X156239505Y-94203187D01*
X156315270Y-94150136D01*
X156315273Y-94150134D01*
X156319781Y-94146977D01*
X156410905Y-94055853D01*
X156473217Y-94021827D01*
X156544032Y-94026892D01*
X156589095Y-94055853D01*
X156680219Y-94146977D01*
X156684727Y-94150134D01*
X156684730Y-94150136D01*
X156760495Y-94203187D01*
X156862323Y-94274488D01*
X156867305Y-94276811D01*
X156867310Y-94276814D01*
X157038872Y-94356814D01*
X157063804Y-94368440D01*
X157069112Y-94369862D01*
X157069114Y-94369863D01*
X157134949Y-94387503D01*
X157278537Y-94425978D01*
X157500000Y-94445353D01*
X157721463Y-94425978D01*
X157865051Y-94387503D01*
X157930886Y-94369863D01*
X157930888Y-94369862D01*
X157936196Y-94368440D01*
X157961128Y-94356814D01*
X158132690Y-94276814D01*
X158132695Y-94276811D01*
X158137677Y-94274488D01*
X158239505Y-94203187D01*
X158315270Y-94150136D01*
X158315273Y-94150134D01*
X158319781Y-94146977D01*
X158370905Y-94095853D01*
X158433217Y-94061827D01*
X158504032Y-94066892D01*
X158549095Y-94095853D01*
X158680219Y-94226977D01*
X158684727Y-94230134D01*
X158684730Y-94230136D01*
X158751393Y-94276814D01*
X158862323Y-94354488D01*
X158867305Y-94356811D01*
X158867310Y-94356814D01*
X159057184Y-94445353D01*
X159063804Y-94448440D01*
X159069112Y-94449862D01*
X159069114Y-94449863D01*
X159134949Y-94467503D01*
X159278537Y-94505978D01*
X159500000Y-94525353D01*
X159721463Y-94505978D01*
X159865051Y-94467503D01*
X159930886Y-94449863D01*
X159930888Y-94449862D01*
X159936196Y-94448440D01*
X159942816Y-94445353D01*
X160132690Y-94356814D01*
X160132695Y-94356811D01*
X160137677Y-94354488D01*
X160248607Y-94276814D01*
X160315270Y-94230136D01*
X160315273Y-94230134D01*
X160319781Y-94226977D01*
X160476977Y-94069781D01*
X160482547Y-94061827D01*
X160601331Y-93892185D01*
X160601332Y-93892183D01*
X160604488Y-93887676D01*
X160606811Y-93882694D01*
X160606814Y-93882689D01*
X160696117Y-93691178D01*
X160696118Y-93691177D01*
X160698440Y-93686196D01*
X160755978Y-93471463D01*
X160775353Y-93250000D01*
X160768354Y-93170000D01*
X162224647Y-93170000D01*
X162244022Y-93391463D01*
X162301560Y-93606196D01*
X162303882Y-93611177D01*
X162303883Y-93611178D01*
X162393186Y-93802689D01*
X162393189Y-93802694D01*
X162395512Y-93807676D01*
X162398668Y-93812183D01*
X162398669Y-93812185D01*
X162489538Y-93941959D01*
X162523023Y-93989781D01*
X162680219Y-94146977D01*
X162684727Y-94150134D01*
X162684730Y-94150136D01*
X162760495Y-94203187D01*
X162862323Y-94274488D01*
X162867305Y-94276811D01*
X162867310Y-94276814D01*
X163038872Y-94356814D01*
X163063804Y-94368440D01*
X163069112Y-94369862D01*
X163069114Y-94369863D01*
X163134949Y-94387503D01*
X163278537Y-94425978D01*
X163500000Y-94445353D01*
X163721463Y-94425978D01*
X163865051Y-94387503D01*
X163930886Y-94369863D01*
X163930888Y-94369862D01*
X163936196Y-94368440D01*
X163961128Y-94356814D01*
X164132690Y-94276814D01*
X164132695Y-94276811D01*
X164137677Y-94274488D01*
X164239505Y-94203187D01*
X164315270Y-94150136D01*
X164315273Y-94150134D01*
X164319781Y-94146977D01*
X164476977Y-93989781D01*
X164510463Y-93941959D01*
X164601331Y-93812185D01*
X164601332Y-93812183D01*
X164604488Y-93807676D01*
X164606811Y-93802694D01*
X164606814Y-93802689D01*
X164696117Y-93611178D01*
X164696118Y-93611177D01*
X164698440Y-93606196D01*
X164755978Y-93391463D01*
X164775353Y-93170000D01*
X164755978Y-92948537D01*
X164717503Y-92804949D01*
X164699863Y-92739114D01*
X164699862Y-92739112D01*
X164698440Y-92733804D01*
X164696117Y-92728822D01*
X164606814Y-92537311D01*
X164606811Y-92537306D01*
X164604488Y-92532324D01*
X164536152Y-92434730D01*
X164480136Y-92354730D01*
X164480134Y-92354727D01*
X164476977Y-92350219D01*
X164319781Y-92193023D01*
X164315273Y-92189866D01*
X164315270Y-92189864D01*
X164239505Y-92136813D01*
X164137677Y-92065512D01*
X164132695Y-92063189D01*
X164132690Y-92063186D01*
X163941178Y-91973883D01*
X163941177Y-91973882D01*
X163936196Y-91971560D01*
X163930888Y-91970138D01*
X163930886Y-91970137D01*
X163865051Y-91952497D01*
X163721463Y-91914022D01*
X163500000Y-91894647D01*
X163278537Y-91914022D01*
X163134949Y-91952497D01*
X163069114Y-91970137D01*
X163069112Y-91970138D01*
X163063804Y-91971560D01*
X163058823Y-91973882D01*
X163058822Y-91973883D01*
X162867311Y-92063186D01*
X162867306Y-92063189D01*
X162862324Y-92065512D01*
X162857817Y-92068668D01*
X162857815Y-92068669D01*
X162684730Y-92189864D01*
X162684727Y-92189866D01*
X162680219Y-92193023D01*
X162523023Y-92350219D01*
X162519866Y-92354727D01*
X162519864Y-92354730D01*
X162463848Y-92434730D01*
X162395512Y-92532324D01*
X162393189Y-92537306D01*
X162393186Y-92537311D01*
X162303883Y-92728822D01*
X162301560Y-92733804D01*
X162300138Y-92739112D01*
X162300137Y-92739114D01*
X162282497Y-92804949D01*
X162244022Y-92948537D01*
X162224647Y-93170000D01*
X160768354Y-93170000D01*
X160755978Y-93028537D01*
X160698440Y-92813804D01*
X160668758Y-92750151D01*
X160606814Y-92617311D01*
X160606811Y-92617306D01*
X160604488Y-92612324D01*
X160584854Y-92584284D01*
X160480136Y-92434730D01*
X160480134Y-92434727D01*
X160476977Y-92430219D01*
X160319781Y-92273023D01*
X160315273Y-92269866D01*
X160315270Y-92269864D01*
X160207353Y-92194300D01*
X160137677Y-92145512D01*
X160132695Y-92143189D01*
X160132690Y-92143186D01*
X159941178Y-92053883D01*
X159941177Y-92053882D01*
X159936196Y-92051560D01*
X159930888Y-92050138D01*
X159930886Y-92050137D01*
X159785784Y-92011257D01*
X159721463Y-91994022D01*
X159500000Y-91974647D01*
X159278537Y-91994022D01*
X159214216Y-92011257D01*
X159069114Y-92050137D01*
X159069112Y-92050138D01*
X159063804Y-92051560D01*
X159058823Y-92053882D01*
X159058822Y-92053883D01*
X158867311Y-92143186D01*
X158867306Y-92143189D01*
X158862324Y-92145512D01*
X158857817Y-92148668D01*
X158857815Y-92148669D01*
X158684730Y-92269864D01*
X158684727Y-92269866D01*
X158680219Y-92273023D01*
X158629095Y-92324147D01*
X158566783Y-92358173D01*
X158495968Y-92353108D01*
X158450905Y-92324147D01*
X158319781Y-92193023D01*
X158315273Y-92189866D01*
X158315270Y-92189864D01*
X158239505Y-92136813D01*
X158137677Y-92065512D01*
X158132695Y-92063189D01*
X158132690Y-92063186D01*
X157941178Y-91973883D01*
X157941177Y-91973882D01*
X157936196Y-91971560D01*
X157930888Y-91970138D01*
X157930886Y-91970137D01*
X157865051Y-91952497D01*
X157721463Y-91914022D01*
X157500000Y-91894647D01*
X157278537Y-91914022D01*
X157134949Y-91952497D01*
X157069114Y-91970137D01*
X157069112Y-91970138D01*
X157063804Y-91971560D01*
X157058823Y-91973882D01*
X157058822Y-91973883D01*
X156867311Y-92063186D01*
X156867306Y-92063189D01*
X156862324Y-92065512D01*
X156857817Y-92068668D01*
X156857815Y-92068669D01*
X156684730Y-92189864D01*
X156684727Y-92189866D01*
X156680219Y-92193023D01*
X156589095Y-92284147D01*
X156526783Y-92318173D01*
X156455968Y-92313108D01*
X156410905Y-92284147D01*
X156319781Y-92193023D01*
X156315273Y-92189866D01*
X156315270Y-92189864D01*
X156239505Y-92136813D01*
X156137677Y-92065512D01*
X156132695Y-92063189D01*
X156132690Y-92063186D01*
X155941178Y-91973883D01*
X155941177Y-91973882D01*
X155936196Y-91971560D01*
X155930888Y-91970138D01*
X155930886Y-91970137D01*
X155865051Y-91952497D01*
X155721463Y-91914022D01*
X155500000Y-91894647D01*
X155278537Y-91914022D01*
X155134949Y-91952497D01*
X155069114Y-91970137D01*
X155069112Y-91970138D01*
X155063804Y-91971560D01*
X155058823Y-91973882D01*
X155058822Y-91973883D01*
X154867311Y-92063186D01*
X154867306Y-92063189D01*
X154862324Y-92065512D01*
X154857817Y-92068668D01*
X154857815Y-92068669D01*
X154684730Y-92189864D01*
X154684727Y-92189866D01*
X154680219Y-92193023D01*
X154589095Y-92284147D01*
X154526783Y-92318173D01*
X154455968Y-92313108D01*
X154410905Y-92284147D01*
X154319781Y-92193023D01*
X154315273Y-92189866D01*
X154315270Y-92189864D01*
X154239505Y-92136813D01*
X154137677Y-92065512D01*
X154132695Y-92063189D01*
X154132690Y-92063186D01*
X153941178Y-91973883D01*
X153941177Y-91973882D01*
X153936196Y-91971560D01*
X153930888Y-91970138D01*
X153930886Y-91970137D01*
X153865051Y-91952497D01*
X153721463Y-91914022D01*
X153500000Y-91894647D01*
X153278537Y-91914022D01*
X153134949Y-91952497D01*
X153069114Y-91970137D01*
X153069112Y-91970138D01*
X153063804Y-91971560D01*
X153058823Y-91973882D01*
X153058822Y-91973883D01*
X152867311Y-92063186D01*
X152867306Y-92063189D01*
X152862324Y-92065512D01*
X152857817Y-92068668D01*
X152857815Y-92068669D01*
X152684730Y-92189864D01*
X152684727Y-92189866D01*
X152680219Y-92193023D01*
X152589095Y-92284147D01*
X152526783Y-92318173D01*
X152455968Y-92313108D01*
X152410905Y-92284147D01*
X152319781Y-92193023D01*
X152315273Y-92189866D01*
X152315270Y-92189864D01*
X152239505Y-92136813D01*
X152137677Y-92065512D01*
X152132695Y-92063189D01*
X152132690Y-92063186D01*
X151941178Y-91973883D01*
X151941177Y-91973882D01*
X151936196Y-91971560D01*
X151930888Y-91970138D01*
X151930886Y-91970137D01*
X151865051Y-91952497D01*
X151721463Y-91914022D01*
X151500000Y-91894647D01*
X151278537Y-91914022D01*
X151134949Y-91952497D01*
X151069114Y-91970137D01*
X151069112Y-91970138D01*
X151063804Y-91971560D01*
X151058823Y-91973882D01*
X151058822Y-91973883D01*
X150867311Y-92063186D01*
X150867306Y-92063189D01*
X150862324Y-92065512D01*
X150857817Y-92068668D01*
X150857815Y-92068669D01*
X150684730Y-92189864D01*
X150684727Y-92189866D01*
X150680219Y-92193023D01*
X150589095Y-92284147D01*
X150526783Y-92318173D01*
X150455968Y-92313108D01*
X150410905Y-92284147D01*
X150319781Y-92193023D01*
X150315273Y-92189866D01*
X150315270Y-92189864D01*
X150239505Y-92136813D01*
X150137677Y-92065512D01*
X150132695Y-92063189D01*
X150132690Y-92063186D01*
X149941178Y-91973883D01*
X149941177Y-91973882D01*
X149936196Y-91971560D01*
X149930888Y-91970138D01*
X149930886Y-91970137D01*
X149865051Y-91952497D01*
X149721463Y-91914022D01*
X149500000Y-91894647D01*
X149278537Y-91914022D01*
X149134949Y-91952497D01*
X149069114Y-91970137D01*
X149069112Y-91970138D01*
X149063804Y-91971560D01*
X149058823Y-91973882D01*
X149058822Y-91973883D01*
X148867311Y-92063186D01*
X148867306Y-92063189D01*
X148862324Y-92065512D01*
X148857817Y-92068668D01*
X148857815Y-92068669D01*
X148684730Y-92189864D01*
X148684727Y-92189866D01*
X148680219Y-92193023D01*
X148589095Y-92284147D01*
X148526783Y-92318173D01*
X148455968Y-92313108D01*
X148410905Y-92284147D01*
X148319781Y-92193023D01*
X148315273Y-92189866D01*
X148315270Y-92189864D01*
X148239505Y-92136813D01*
X148137677Y-92065512D01*
X148132695Y-92063189D01*
X148132690Y-92063186D01*
X147941178Y-91973883D01*
X147941177Y-91973882D01*
X147936196Y-91971560D01*
X147930888Y-91970138D01*
X147930886Y-91970137D01*
X147865051Y-91952497D01*
X147721463Y-91914022D01*
X147500000Y-91894647D01*
X147278537Y-91914022D01*
X147134949Y-91952497D01*
X147069114Y-91970137D01*
X147069112Y-91970138D01*
X147063804Y-91971560D01*
X147058823Y-91973882D01*
X147058822Y-91973883D01*
X146867311Y-92063186D01*
X146867306Y-92063189D01*
X146862324Y-92065512D01*
X146857817Y-92068668D01*
X146857815Y-92068669D01*
X146684730Y-92189864D01*
X146684727Y-92189866D01*
X146680219Y-92193023D01*
X146523023Y-92350219D01*
X146519866Y-92354727D01*
X146516520Y-92358715D01*
X146457409Y-92398041D01*
X146386422Y-92399165D01*
X146323480Y-92358715D01*
X146320134Y-92354727D01*
X146316977Y-92350219D01*
X146159781Y-92193023D01*
X146155273Y-92189866D01*
X146155270Y-92189864D01*
X146079505Y-92136813D01*
X145977677Y-92065512D01*
X145972695Y-92063189D01*
X145972690Y-92063186D01*
X145781178Y-91973883D01*
X145781177Y-91973882D01*
X145776196Y-91971560D01*
X145770888Y-91970138D01*
X145770886Y-91970137D01*
X145705051Y-91952497D01*
X145561463Y-91914022D01*
X145340000Y-91894647D01*
X145118537Y-91914022D01*
X144974949Y-91952497D01*
X144909114Y-91970137D01*
X144909112Y-91970138D01*
X144903804Y-91971560D01*
X144898823Y-91973882D01*
X144898822Y-91973883D01*
X144707311Y-92063186D01*
X144707306Y-92063189D01*
X144702324Y-92065512D01*
X144697817Y-92068668D01*
X144697815Y-92068669D01*
X144524730Y-92189864D01*
X144524727Y-92189866D01*
X144520219Y-92193023D01*
X144363023Y-92350219D01*
X144359866Y-92354727D01*
X144359864Y-92354730D01*
X144303848Y-92434730D01*
X144235512Y-92532324D01*
X144233189Y-92537306D01*
X144233186Y-92537311D01*
X144143883Y-92728822D01*
X144141560Y-92733804D01*
X144140138Y-92739112D01*
X144140137Y-92739114D01*
X144122497Y-92804949D01*
X144084022Y-92948537D01*
X144064647Y-93170000D01*
X142723234Y-93170000D01*
X142636198Y-93045700D01*
X142474300Y-92883802D01*
X142469792Y-92880645D01*
X142469789Y-92880643D01*
X142367218Y-92808822D01*
X142286749Y-92752477D01*
X142281767Y-92750154D01*
X142281762Y-92750151D01*
X142247543Y-92734195D01*
X142194258Y-92687278D01*
X142174797Y-92619001D01*
X142195339Y-92551041D01*
X142247543Y-92505805D01*
X142281762Y-92489849D01*
X142281767Y-92489846D01*
X142286749Y-92487523D01*
X142435882Y-92383099D01*
X142469789Y-92359357D01*
X142469792Y-92359355D01*
X142474300Y-92356198D01*
X142636198Y-92194300D01*
X142767523Y-92006749D01*
X142769846Y-92001767D01*
X142769849Y-92001762D01*
X142861961Y-91804225D01*
X142861961Y-91804224D01*
X142864284Y-91799243D01*
X142923543Y-91578087D01*
X142943498Y-91350000D01*
X142923543Y-91121913D01*
X142922119Y-91116598D01*
X142865707Y-90906067D01*
X142865706Y-90906065D01*
X142864284Y-90900757D01*
X142855177Y-90881226D01*
X142769849Y-90698238D01*
X142769846Y-90698233D01*
X142767523Y-90693251D01*
X142636198Y-90505700D01*
X142474300Y-90343802D01*
X142469792Y-90340645D01*
X142469789Y-90340643D01*
X142391611Y-90285902D01*
X142286749Y-90212477D01*
X142281767Y-90210154D01*
X142281762Y-90210151D01*
X142247543Y-90194195D01*
X142194258Y-90147278D01*
X142174797Y-90079001D01*
X142195339Y-90011041D01*
X142247543Y-89965805D01*
X142281762Y-89949849D01*
X142281767Y-89949846D01*
X142286749Y-89947523D01*
X142357284Y-89898134D01*
X149991500Y-89898134D01*
X149998255Y-89960316D01*
X150049385Y-90096705D01*
X150136739Y-90213261D01*
X150253295Y-90300615D01*
X150389684Y-90351745D01*
X150451866Y-90358500D01*
X151873938Y-90358500D01*
X151942059Y-90378502D01*
X151988552Y-90432158D01*
X151999248Y-90471329D01*
X152003335Y-90510211D01*
X152006458Y-90539928D01*
X152065473Y-90721556D01*
X152160960Y-90886944D01*
X152288747Y-91028866D01*
X152324061Y-91054523D01*
X152400000Y-91109696D01*
X152443248Y-91141118D01*
X152449276Y-91143802D01*
X152449278Y-91143803D01*
X152451248Y-91144680D01*
X152617712Y-91218794D01*
X152711113Y-91238647D01*
X152798056Y-91257128D01*
X152798061Y-91257128D01*
X152804513Y-91258500D01*
X152995487Y-91258500D01*
X153001939Y-91257128D01*
X153001944Y-91257128D01*
X153088888Y-91238647D01*
X153182288Y-91218794D01*
X153348752Y-91144680D01*
X153419118Y-91135246D01*
X153451247Y-91144680D01*
X153617712Y-91218794D01*
X153711113Y-91238647D01*
X153798056Y-91257128D01*
X153798061Y-91257128D01*
X153804513Y-91258500D01*
X153995487Y-91258500D01*
X154001939Y-91257128D01*
X154001944Y-91257128D01*
X154088888Y-91238647D01*
X154182288Y-91218794D01*
X154348752Y-91144680D01*
X154350722Y-91143803D01*
X154350724Y-91143802D01*
X154356752Y-91141118D01*
X154400001Y-91109696D01*
X154475939Y-91054523D01*
X154542806Y-91030665D01*
X154611958Y-91046745D01*
X154624061Y-91054523D01*
X154700000Y-91109696D01*
X154743248Y-91141118D01*
X154749276Y-91143802D01*
X154749278Y-91143803D01*
X154751248Y-91144680D01*
X154917712Y-91218794D01*
X155011113Y-91238647D01*
X155098056Y-91257128D01*
X155098061Y-91257128D01*
X155104513Y-91258500D01*
X155295487Y-91258500D01*
X155301939Y-91257128D01*
X155301944Y-91257128D01*
X155388888Y-91238647D01*
X155482288Y-91218794D01*
X155648752Y-91144680D01*
X155650722Y-91143803D01*
X155650724Y-91143802D01*
X155656752Y-91141118D01*
X155675643Y-91127393D01*
X155725939Y-91090851D01*
X155792807Y-91066992D01*
X155861959Y-91083073D01*
X155874061Y-91090851D01*
X155924357Y-91127393D01*
X155943248Y-91141118D01*
X155949276Y-91143802D01*
X155949278Y-91143803D01*
X155951248Y-91144680D01*
X156117712Y-91218794D01*
X156211113Y-91238647D01*
X156298056Y-91257128D01*
X156298061Y-91257128D01*
X156304513Y-91258500D01*
X156495487Y-91258500D01*
X156501939Y-91257128D01*
X156501944Y-91257128D01*
X156588888Y-91238647D01*
X156682288Y-91218794D01*
X156848752Y-91144680D01*
X156850722Y-91143803D01*
X156850724Y-91143802D01*
X156856752Y-91141118D01*
X156875643Y-91127393D01*
X156925939Y-91090851D01*
X156992807Y-91066992D01*
X157061959Y-91083073D01*
X157074061Y-91090851D01*
X157124357Y-91127393D01*
X157143248Y-91141118D01*
X157149276Y-91143802D01*
X157149278Y-91143803D01*
X157151248Y-91144680D01*
X157317712Y-91218794D01*
X157411113Y-91238647D01*
X157498056Y-91257128D01*
X157498061Y-91257128D01*
X157504513Y-91258500D01*
X157695487Y-91258500D01*
X157701939Y-91257128D01*
X157701944Y-91257128D01*
X157788888Y-91238647D01*
X157882288Y-91218794D01*
X158048752Y-91144680D01*
X158050722Y-91143803D01*
X158050724Y-91143802D01*
X158056752Y-91141118D01*
X158075643Y-91127393D01*
X158125939Y-91090851D01*
X158192807Y-91066992D01*
X158261959Y-91083073D01*
X158274061Y-91090851D01*
X158324357Y-91127393D01*
X158343248Y-91141118D01*
X158349276Y-91143802D01*
X158349278Y-91143803D01*
X158351248Y-91144680D01*
X158517712Y-91218794D01*
X158611113Y-91238647D01*
X158698056Y-91257128D01*
X158698061Y-91257128D01*
X158704513Y-91258500D01*
X158895487Y-91258500D01*
X158901939Y-91257128D01*
X158901944Y-91257128D01*
X158988888Y-91238647D01*
X159082288Y-91218794D01*
X159248752Y-91144680D01*
X159250722Y-91143803D01*
X159250724Y-91143802D01*
X159256752Y-91141118D01*
X159300001Y-91109696D01*
X159375939Y-91054523D01*
X159442806Y-91030665D01*
X159511958Y-91046745D01*
X159524061Y-91054523D01*
X159600000Y-91109696D01*
X159643248Y-91141118D01*
X159649276Y-91143802D01*
X159649278Y-91143803D01*
X159651248Y-91144680D01*
X159817712Y-91218794D01*
X159911113Y-91238647D01*
X159998056Y-91257128D01*
X159998061Y-91257128D01*
X160004513Y-91258500D01*
X160195487Y-91258500D01*
X160201939Y-91257128D01*
X160201944Y-91257128D01*
X160288888Y-91238647D01*
X160382288Y-91218794D01*
X160548752Y-91144680D01*
X160619118Y-91135246D01*
X160651247Y-91144680D01*
X160817712Y-91218794D01*
X160911113Y-91238647D01*
X160998056Y-91257128D01*
X160998061Y-91257128D01*
X161004513Y-91258500D01*
X161195487Y-91258500D01*
X161201939Y-91257128D01*
X161201944Y-91257128D01*
X161288888Y-91238647D01*
X161382288Y-91218794D01*
X161548752Y-91144680D01*
X161550722Y-91143803D01*
X161550724Y-91143802D01*
X161556752Y-91141118D01*
X161600001Y-91109696D01*
X161675939Y-91054523D01*
X161711253Y-91028866D01*
X161839040Y-90886944D01*
X161934527Y-90721556D01*
X161993542Y-90539928D01*
X161996666Y-90510211D01*
X162000752Y-90471329D01*
X162027765Y-90405673D01*
X162085987Y-90365043D01*
X162126062Y-90358500D01*
X163548134Y-90358500D01*
X163610316Y-90351745D01*
X163746705Y-90300615D01*
X163863261Y-90213261D01*
X163950615Y-90096705D01*
X164001745Y-89960316D01*
X164008500Y-89898134D01*
X164008500Y-88801866D01*
X164001745Y-88739684D01*
X163950615Y-88603295D01*
X163863261Y-88486739D01*
X163746705Y-88399385D01*
X163738304Y-88396236D01*
X163736082Y-88395019D01*
X163685936Y-88344760D01*
X163670923Y-88275369D01*
X163695809Y-88208877D01*
X163752693Y-88166395D01*
X163796592Y-88158500D01*
X164047610Y-88158500D01*
X164140443Y-88148743D01*
X164183365Y-88144232D01*
X164183367Y-88144232D01*
X164189928Y-88143542D01*
X164371556Y-88084527D01*
X164536944Y-87989040D01*
X164678866Y-87861253D01*
X164751587Y-87761161D01*
X164787237Y-87712094D01*
X164787238Y-87712093D01*
X164791118Y-87706752D01*
X164795969Y-87695858D01*
X164866109Y-87538319D01*
X164866109Y-87538318D01*
X164868794Y-87532288D01*
X164891428Y-87425805D01*
X164907128Y-87351944D01*
X164907128Y-87351939D01*
X164908500Y-87345487D01*
X164908500Y-87154513D01*
X164899953Y-87114300D01*
X164878015Y-87011094D01*
X164868794Y-86967712D01*
X164864693Y-86958500D01*
X164793803Y-86799278D01*
X164793802Y-86799276D01*
X164791118Y-86793248D01*
X164784850Y-86784621D01*
X164740851Y-86724061D01*
X164716992Y-86657193D01*
X164733073Y-86588041D01*
X164740851Y-86575939D01*
X164787237Y-86512094D01*
X164787238Y-86512093D01*
X164791118Y-86506752D01*
X164868794Y-86332288D01*
X164900324Y-86183951D01*
X164907128Y-86151944D01*
X164907128Y-86151939D01*
X164908500Y-86145487D01*
X164908500Y-85954513D01*
X164900804Y-85918303D01*
X164870166Y-85774169D01*
X164868794Y-85767712D01*
X164861098Y-85750427D01*
X164793803Y-85599278D01*
X164793802Y-85599276D01*
X164791118Y-85593248D01*
X164779073Y-85576669D01*
X164740851Y-85524061D01*
X164716992Y-85457193D01*
X164733073Y-85388041D01*
X164740851Y-85375939D01*
X164787237Y-85312094D01*
X164787238Y-85312093D01*
X164791118Y-85306752D01*
X164797553Y-85292300D01*
X164866109Y-85138319D01*
X164866109Y-85138318D01*
X164868794Y-85132288D01*
X164894449Y-85011591D01*
X164907128Y-84951944D01*
X164907128Y-84951939D01*
X164908500Y-84945487D01*
X164908500Y-84754513D01*
X164905279Y-84739357D01*
X164880617Y-84623334D01*
X164868794Y-84567712D01*
X164791118Y-84393248D01*
X164740851Y-84324061D01*
X164716992Y-84257193D01*
X164733073Y-84188041D01*
X164740851Y-84175939D01*
X164787237Y-84112094D01*
X164787238Y-84112093D01*
X164791118Y-84106752D01*
X164803304Y-84079383D01*
X164866109Y-83938319D01*
X164866109Y-83938318D01*
X164868794Y-83932288D01*
X164900020Y-83785383D01*
X164907128Y-83751944D01*
X164907128Y-83751939D01*
X164908500Y-83745487D01*
X164908500Y-83554513D01*
X164905479Y-83540298D01*
X164870166Y-83374169D01*
X164868794Y-83367712D01*
X164856311Y-83339674D01*
X164793803Y-83199278D01*
X164793802Y-83199276D01*
X164791118Y-83193248D01*
X164740851Y-83124061D01*
X164716992Y-83057193D01*
X164733073Y-82988041D01*
X164740851Y-82975939D01*
X164787237Y-82912094D01*
X164787238Y-82912093D01*
X164791118Y-82906752D01*
X164798483Y-82890211D01*
X164866109Y-82738319D01*
X164866109Y-82738318D01*
X164868794Y-82732288D01*
X164898512Y-82592477D01*
X164907128Y-82551944D01*
X164907128Y-82551939D01*
X164908500Y-82545487D01*
X164908500Y-82354513D01*
X164906650Y-82345805D01*
X164874849Y-82196198D01*
X164868794Y-82167712D01*
X164828731Y-82077729D01*
X164793803Y-81999278D01*
X164793802Y-81999276D01*
X164791118Y-81993248D01*
X164740851Y-81924061D01*
X164716992Y-81857193D01*
X164733073Y-81788041D01*
X164740851Y-81775939D01*
X164787237Y-81712094D01*
X164787238Y-81712093D01*
X164791118Y-81706752D01*
X164813957Y-81655456D01*
X164866109Y-81538319D01*
X164866109Y-81538318D01*
X164868794Y-81532288D01*
X164908500Y-81345487D01*
X164908500Y-81154513D01*
X164868794Y-80967712D01*
X164863846Y-80956598D01*
X164793803Y-80799278D01*
X164793802Y-80799276D01*
X164791118Y-80793248D01*
X164761201Y-80752071D01*
X164740851Y-80724061D01*
X164716992Y-80657193D01*
X164733073Y-80588041D01*
X164740851Y-80575939D01*
X164787237Y-80512094D01*
X164787238Y-80512093D01*
X164791118Y-80506752D01*
X164854603Y-80364163D01*
X164866109Y-80338319D01*
X164866109Y-80338318D01*
X164868794Y-80332288D01*
X164896053Y-80204044D01*
X164907128Y-80151944D01*
X164907128Y-80151939D01*
X164908500Y-80145487D01*
X164908500Y-79954513D01*
X164902972Y-79928502D01*
X164888647Y-79861113D01*
X164868794Y-79767712D01*
X164865574Y-79760479D01*
X164793803Y-79599278D01*
X164793802Y-79599276D01*
X164791118Y-79593248D01*
X164782406Y-79581257D01*
X164740851Y-79524061D01*
X164716992Y-79457193D01*
X164733073Y-79388041D01*
X164740851Y-79375939D01*
X164787237Y-79312094D01*
X164787238Y-79312093D01*
X164791118Y-79306752D01*
X164846730Y-79181846D01*
X164866109Y-79138319D01*
X164866109Y-79138318D01*
X164868794Y-79132288D01*
X164889224Y-79036174D01*
X164907128Y-78951944D01*
X164907128Y-78951939D01*
X164908500Y-78945487D01*
X164908500Y-78754513D01*
X164903576Y-78731345D01*
X164881703Y-78628444D01*
X164868794Y-78567712D01*
X164823409Y-78465775D01*
X164793803Y-78399278D01*
X164793802Y-78399276D01*
X164791118Y-78393248D01*
X164740851Y-78324061D01*
X164716992Y-78257193D01*
X164733073Y-78188041D01*
X164740851Y-78175939D01*
X164787237Y-78112094D01*
X164787238Y-78112093D01*
X164791118Y-78106752D01*
X164839432Y-77998238D01*
X164866109Y-77938319D01*
X164866109Y-77938318D01*
X164868794Y-77932288D01*
X164888647Y-77838887D01*
X164907128Y-77751944D01*
X164907128Y-77751939D01*
X164908500Y-77745487D01*
X164908500Y-77554513D01*
X164868794Y-77367712D01*
X164838377Y-77299394D01*
X164793803Y-77199278D01*
X164793802Y-77199276D01*
X164791118Y-77193248D01*
X164740851Y-77124061D01*
X164716992Y-77057193D01*
X164733073Y-76988041D01*
X164740851Y-76975939D01*
X164787237Y-76912094D01*
X164787238Y-76912093D01*
X164791118Y-76906752D01*
X164855672Y-76761762D01*
X164866109Y-76738319D01*
X164866109Y-76738318D01*
X164868794Y-76732288D01*
X164888647Y-76638888D01*
X164907128Y-76551944D01*
X164907128Y-76551939D01*
X164908500Y-76545487D01*
X164908500Y-76354513D01*
X164906139Y-76343402D01*
X164870166Y-76174169D01*
X164868794Y-76167712D01*
X164843099Y-76110000D01*
X164793803Y-75999278D01*
X164793802Y-75999276D01*
X164791118Y-75993248D01*
X164740851Y-75924061D01*
X164716992Y-75857193D01*
X164733073Y-75788041D01*
X164740851Y-75775939D01*
X164787237Y-75712094D01*
X164787238Y-75712093D01*
X164791118Y-75706752D01*
X164813815Y-75655775D01*
X164866109Y-75538319D01*
X164866109Y-75538318D01*
X164868794Y-75532288D01*
X164892929Y-75418743D01*
X164907128Y-75351944D01*
X164907128Y-75351939D01*
X164908500Y-75345487D01*
X164908500Y-75154513D01*
X164898550Y-75107699D01*
X164888647Y-75061112D01*
X164868794Y-74967712D01*
X164827835Y-74875716D01*
X164793803Y-74799278D01*
X164793802Y-74799276D01*
X164791118Y-74793248D01*
X164740851Y-74724061D01*
X164716992Y-74657193D01*
X164733073Y-74588041D01*
X164740851Y-74575939D01*
X164787237Y-74512094D01*
X164787238Y-74512093D01*
X164791118Y-74506752D01*
X164834289Y-74409789D01*
X164866109Y-74338319D01*
X164866109Y-74338318D01*
X164868794Y-74332288D01*
X164908500Y-74145487D01*
X164908500Y-73954513D01*
X164868794Y-73767712D01*
X164791118Y-73593248D01*
X164770250Y-73564525D01*
X164682749Y-73444092D01*
X164678866Y-73438747D01*
X164536944Y-73310960D01*
X164371556Y-73215473D01*
X164189928Y-73156458D01*
X164183367Y-73155768D01*
X164183365Y-73155768D01*
X164130111Y-73150171D01*
X164047610Y-73141500D01*
X162752390Y-73141500D01*
X162669889Y-73150171D01*
X162616635Y-73155768D01*
X162616633Y-73155768D01*
X162610072Y-73156458D01*
X162428444Y-73215473D01*
X162263056Y-73310960D01*
X162121134Y-73438747D01*
X162117251Y-73444092D01*
X162029751Y-73564525D01*
X162008882Y-73593248D01*
X161931206Y-73767712D01*
X161891500Y-73954513D01*
X161891500Y-74145487D01*
X161931206Y-74332288D01*
X161933891Y-74338318D01*
X161933891Y-74338319D01*
X161965712Y-74409789D01*
X162008882Y-74506752D01*
X162012762Y-74512093D01*
X162012763Y-74512094D01*
X162059149Y-74575939D01*
X162083008Y-74642807D01*
X162066927Y-74711959D01*
X162059149Y-74724061D01*
X162008882Y-74793248D01*
X162006198Y-74799276D01*
X162006197Y-74799278D01*
X161972165Y-74875716D01*
X161931206Y-74967712D01*
X161911353Y-75061112D01*
X161901451Y-75107699D01*
X161891500Y-75154513D01*
X161891500Y-75345487D01*
X161892872Y-75351939D01*
X161892872Y-75351944D01*
X161907071Y-75418743D01*
X161931206Y-75532288D01*
X161933891Y-75538318D01*
X161933891Y-75538319D01*
X161986186Y-75655775D01*
X162008882Y-75706752D01*
X162012762Y-75712093D01*
X162012763Y-75712094D01*
X162059149Y-75775939D01*
X162083008Y-75842807D01*
X162066927Y-75911959D01*
X162059149Y-75924061D01*
X162008882Y-75993248D01*
X162006198Y-75999276D01*
X162006197Y-75999278D01*
X161956901Y-76110000D01*
X161931206Y-76167712D01*
X161929834Y-76174169D01*
X161893862Y-76343402D01*
X161891500Y-76354513D01*
X161891500Y-76545487D01*
X161892872Y-76551939D01*
X161892872Y-76551944D01*
X161911353Y-76638888D01*
X161931206Y-76732288D01*
X161933891Y-76738318D01*
X161933891Y-76738319D01*
X161944329Y-76761762D01*
X162008882Y-76906752D01*
X162012762Y-76912093D01*
X162012763Y-76912094D01*
X162059149Y-76975939D01*
X162083008Y-77042807D01*
X162066927Y-77111959D01*
X162059149Y-77124061D01*
X162008882Y-77193248D01*
X162006198Y-77199276D01*
X162006197Y-77199278D01*
X161961623Y-77299394D01*
X161931206Y-77367712D01*
X161891500Y-77554513D01*
X161891500Y-77745487D01*
X161892872Y-77751939D01*
X161892872Y-77751944D01*
X161911353Y-77838887D01*
X161931206Y-77932288D01*
X161933891Y-77938318D01*
X161933891Y-77938319D01*
X161960569Y-77998238D01*
X162008882Y-78106752D01*
X162012762Y-78112093D01*
X162012763Y-78112094D01*
X162059149Y-78175939D01*
X162083008Y-78242807D01*
X162066927Y-78311959D01*
X162059149Y-78324061D01*
X162008882Y-78393248D01*
X162006198Y-78399276D01*
X162006197Y-78399278D01*
X161976591Y-78465775D01*
X161931206Y-78567712D01*
X161918297Y-78628444D01*
X161896425Y-78731345D01*
X161891500Y-78754513D01*
X161891500Y-78945487D01*
X161892872Y-78951939D01*
X161892872Y-78951944D01*
X161910776Y-79036174D01*
X161931206Y-79132288D01*
X161933891Y-79138318D01*
X161933891Y-79138319D01*
X161953271Y-79181846D01*
X162008882Y-79306752D01*
X162012762Y-79312093D01*
X162012763Y-79312094D01*
X162059149Y-79375939D01*
X162083008Y-79442807D01*
X162066927Y-79511959D01*
X162059149Y-79524061D01*
X162017594Y-79581257D01*
X162008882Y-79593248D01*
X162006198Y-79599276D01*
X162006197Y-79599278D01*
X161934426Y-79760479D01*
X161931206Y-79767712D01*
X161911353Y-79861113D01*
X161897029Y-79928502D01*
X161891500Y-79954513D01*
X161891500Y-80145487D01*
X161892872Y-80151939D01*
X161892872Y-80151944D01*
X161903947Y-80204044D01*
X161931206Y-80332288D01*
X161933891Y-80338318D01*
X161933891Y-80338319D01*
X161945398Y-80364163D01*
X162008882Y-80506752D01*
X162012762Y-80512093D01*
X162012763Y-80512094D01*
X162059149Y-80575939D01*
X162083008Y-80642807D01*
X162066927Y-80711959D01*
X162059149Y-80724061D01*
X162038799Y-80752071D01*
X162008882Y-80793248D01*
X162006198Y-80799276D01*
X162006197Y-80799278D01*
X161936154Y-80956598D01*
X161931206Y-80967712D01*
X161891500Y-81154513D01*
X161891500Y-81345487D01*
X161931206Y-81532288D01*
X161933891Y-81538318D01*
X161933891Y-81538319D01*
X161986044Y-81655456D01*
X162008882Y-81706752D01*
X162012762Y-81712093D01*
X162012763Y-81712094D01*
X162059149Y-81775939D01*
X162083008Y-81842807D01*
X162066927Y-81911959D01*
X162059149Y-81924061D01*
X162008882Y-81993248D01*
X162006198Y-81999276D01*
X162006197Y-81999278D01*
X161971269Y-82077729D01*
X161931206Y-82167712D01*
X161925151Y-82196198D01*
X161893351Y-82345805D01*
X161891500Y-82354513D01*
X161891500Y-82545487D01*
X161892872Y-82551939D01*
X161892872Y-82551944D01*
X161901488Y-82592477D01*
X161931206Y-82732288D01*
X161933891Y-82738318D01*
X161933891Y-82738319D01*
X162001518Y-82890211D01*
X162008882Y-82906752D01*
X162012762Y-82912093D01*
X162012763Y-82912094D01*
X162059149Y-82975939D01*
X162083008Y-83042807D01*
X162066927Y-83111959D01*
X162059149Y-83124061D01*
X162008882Y-83193248D01*
X162006198Y-83199276D01*
X162006197Y-83199278D01*
X161943689Y-83339674D01*
X161931206Y-83367712D01*
X161929834Y-83374169D01*
X161894522Y-83540298D01*
X161891500Y-83554513D01*
X161891500Y-83745487D01*
X161892872Y-83751939D01*
X161892872Y-83751944D01*
X161899980Y-83785383D01*
X161931206Y-83932288D01*
X161933889Y-83938315D01*
X161933892Y-83938323D01*
X161938001Y-83947551D01*
X161947435Y-84017918D01*
X161917328Y-84082215D01*
X161857239Y-84120028D01*
X161786246Y-84119352D01*
X161733799Y-84087894D01*
X159170405Y-81524500D01*
X159136379Y-81462188D01*
X159133500Y-81435405D01*
X159133500Y-75702524D01*
X159153502Y-75634403D01*
X159165858Y-75618221D01*
X159239040Y-75536944D01*
X159334527Y-75371556D01*
X159393542Y-75189928D01*
X159413504Y-75000000D01*
X159400686Y-74878039D01*
X159394232Y-74816635D01*
X159394232Y-74816633D01*
X159393542Y-74810072D01*
X159334527Y-74628444D01*
X159239040Y-74463056D01*
X159126727Y-74338319D01*
X159115675Y-74326045D01*
X159115674Y-74326044D01*
X159111253Y-74321134D01*
X159010480Y-74247918D01*
X158962094Y-74212763D01*
X158962093Y-74212762D01*
X158956752Y-74208882D01*
X158950724Y-74206198D01*
X158950722Y-74206197D01*
X158788319Y-74133891D01*
X158788318Y-74133891D01*
X158782288Y-74131206D01*
X158688888Y-74111353D01*
X158601944Y-74092872D01*
X158601939Y-74092872D01*
X158595487Y-74091500D01*
X158404513Y-74091500D01*
X158398061Y-74092872D01*
X158398056Y-74092872D01*
X158311112Y-74111353D01*
X158217712Y-74131206D01*
X158211682Y-74133891D01*
X158211681Y-74133891D01*
X158049278Y-74206197D01*
X158049276Y-74206198D01*
X158043248Y-74208882D01*
X158037907Y-74212762D01*
X158037906Y-74212763D01*
X157989520Y-74247918D01*
X157888747Y-74321134D01*
X157884326Y-74326044D01*
X157884325Y-74326045D01*
X157873274Y-74338319D01*
X157760960Y-74463056D01*
X157665473Y-74628444D01*
X157606458Y-74810072D01*
X157605768Y-74816633D01*
X157605768Y-74816635D01*
X157599314Y-74878039D01*
X157586496Y-75000000D01*
X157606458Y-75189928D01*
X157665473Y-75371556D01*
X157760960Y-75536944D01*
X157834137Y-75618215D01*
X157864853Y-75682221D01*
X157866500Y-75702524D01*
X157866500Y-80745766D01*
X157846498Y-80813887D01*
X157792842Y-80860380D01*
X157722568Y-80870484D01*
X157662757Y-80844923D01*
X157656668Y-80840148D01*
X157653471Y-80837554D01*
X157594303Y-80787906D01*
X157559093Y-80758361D01*
X157559089Y-80758358D01*
X157554876Y-80754823D01*
X157550113Y-80752073D01*
X157550110Y-80752071D01*
X157418178Y-80675899D01*
X157418176Y-80675898D01*
X157413418Y-80673151D01*
X157413517Y-80672979D01*
X157362035Y-80627650D01*
X157342574Y-80559373D01*
X157344484Y-80538493D01*
X157348892Y-80513492D01*
X157349848Y-80508071D01*
X157349848Y-80344729D01*
X157321484Y-80183870D01*
X157307514Y-80145487D01*
X157267499Y-80035546D01*
X157267497Y-80035542D01*
X157265618Y-80030379D01*
X157225629Y-79961116D01*
X157186703Y-79893693D01*
X157186700Y-79893689D01*
X157183948Y-79888922D01*
X157114684Y-79806377D01*
X157110451Y-79801045D01*
X157091554Y-79775877D01*
X157091553Y-79775876D01*
X157089074Y-79772574D01*
X157079723Y-79763026D01*
X157076485Y-79760487D01*
X157076476Y-79760479D01*
X157055643Y-79744145D01*
X157052425Y-79741534D01*
X156977740Y-79678866D01*
X156958047Y-79662341D01*
X156958043Y-79662338D01*
X156953830Y-79658803D01*
X156949067Y-79656053D01*
X156949064Y-79656051D01*
X156817128Y-79579877D01*
X156817129Y-79579877D01*
X156812372Y-79577131D01*
X156748648Y-79553937D01*
X156664047Y-79523144D01*
X156664044Y-79523143D01*
X156658881Y-79521264D01*
X156632875Y-79516678D01*
X156587707Y-79508714D01*
X156524094Y-79477186D01*
X156487625Y-79416272D01*
X156485501Y-79406509D01*
X156479337Y-79371556D01*
X156472951Y-79335337D01*
X156417085Y-79181846D01*
X156335415Y-79040389D01*
X156266151Y-78957844D01*
X156261918Y-78952512D01*
X156243021Y-78927344D01*
X156243020Y-78927343D01*
X156240541Y-78924041D01*
X156231190Y-78914493D01*
X156227952Y-78911954D01*
X156227943Y-78911946D01*
X156207110Y-78895612D01*
X156203892Y-78893001D01*
X156146080Y-78844492D01*
X156109514Y-78813808D01*
X156109510Y-78813805D01*
X156105297Y-78810270D01*
X156100534Y-78807520D01*
X156100531Y-78807518D01*
X155968595Y-78731344D01*
X155968596Y-78731344D01*
X155963839Y-78728598D01*
X155810348Y-78672731D01*
X155649488Y-78644367D01*
X155486146Y-78644367D01*
X155454199Y-78650000D01*
X155330705Y-78671774D01*
X155330699Y-78671776D01*
X155325286Y-78672730D01*
X155320114Y-78674613D01*
X155320112Y-78674613D01*
X155176962Y-78726715D01*
X155176958Y-78726717D01*
X155171795Y-78728596D01*
X155126906Y-78754513D01*
X155049954Y-78798941D01*
X154980959Y-78815679D01*
X154913867Y-78792459D01*
X154869980Y-78736652D01*
X154867121Y-78728758D01*
X154867069Y-78728596D01*
X154834527Y-78628444D01*
X154739040Y-78463056D01*
X154611253Y-78321134D01*
X154456752Y-78208882D01*
X154450724Y-78206198D01*
X154450722Y-78206197D01*
X154288319Y-78133891D01*
X154288318Y-78133891D01*
X154282288Y-78131206D01*
X154167242Y-78106752D01*
X154101944Y-78092872D01*
X154101939Y-78092872D01*
X154095487Y-78091500D01*
X153904513Y-78091500D01*
X153898061Y-78092872D01*
X153898056Y-78092872D01*
X153832758Y-78106752D01*
X153717712Y-78131206D01*
X153711682Y-78133891D01*
X153711681Y-78133891D01*
X153549278Y-78206197D01*
X153549276Y-78206198D01*
X153543248Y-78208882D01*
X153388747Y-78321134D01*
X153260960Y-78463056D01*
X153165473Y-78628444D01*
X153106458Y-78810072D01*
X153105768Y-78816633D01*
X153105768Y-78816635D01*
X153094329Y-78925475D01*
X153086496Y-79000000D01*
X153087186Y-79006565D01*
X153105609Y-79181846D01*
X153106458Y-79189928D01*
X153165473Y-79371556D01*
X153168776Y-79377278D01*
X153168777Y-79377279D01*
X153185653Y-79406509D01*
X153260960Y-79536944D01*
X153265378Y-79541851D01*
X153265379Y-79541852D01*
X153306846Y-79587906D01*
X153388747Y-79678866D01*
X153487843Y-79750864D01*
X153533955Y-79784366D01*
X153543248Y-79791118D01*
X153549276Y-79793802D01*
X153549278Y-79793803D01*
X153711681Y-79866109D01*
X153717712Y-79868794D01*
X153811113Y-79888647D01*
X153898056Y-79907128D01*
X153898061Y-79907128D01*
X153904513Y-79908500D01*
X153960405Y-79908500D01*
X154028526Y-79928502D01*
X154049500Y-79945405D01*
X154162439Y-80058344D01*
X154174105Y-80071787D01*
X154187983Y-80090271D01*
X154197334Y-80099819D01*
X154216101Y-80114534D01*
X154221414Y-80118700D01*
X154224631Y-80121309D01*
X154297762Y-80182673D01*
X154337087Y-80241781D01*
X154338213Y-80312769D01*
X154316915Y-80355657D01*
X154312185Y-80361852D01*
X154308570Y-80366368D01*
X154234531Y-80454605D01*
X154231785Y-80459361D01*
X154231781Y-80459367D01*
X154164479Y-80575939D01*
X154152861Y-80596063D01*
X154123804Y-80675899D01*
X154106275Y-80724061D01*
X154096996Y-80749554D01*
X154068633Y-80910413D01*
X154068633Y-81073754D01*
X154096997Y-81234613D01*
X154152863Y-81388103D01*
X154155613Y-81392866D01*
X154231783Y-81524798D01*
X154231787Y-81524803D01*
X154234533Y-81529560D01*
X154303823Y-81612137D01*
X154308039Y-81617448D01*
X154329408Y-81645908D01*
X154338759Y-81655456D01*
X154357526Y-81670171D01*
X154362839Y-81674337D01*
X154366056Y-81676946D01*
X154464655Y-81759681D01*
X154469422Y-81762433D01*
X154469426Y-81762436D01*
X154513776Y-81788041D01*
X154606112Y-81841351D01*
X154611275Y-81843230D01*
X154611279Y-81843232D01*
X154725172Y-81884685D01*
X154759603Y-81897217D01*
X154805553Y-81905319D01*
X154830775Y-81909767D01*
X154894387Y-81941295D01*
X154930856Y-82002209D01*
X154932980Y-82011973D01*
X154945530Y-82083146D01*
X154947412Y-82088316D01*
X154947412Y-82088317D01*
X154996867Y-82224194D01*
X155001396Y-82236636D01*
X155004146Y-82241399D01*
X155080316Y-82373331D01*
X155080320Y-82373336D01*
X155083066Y-82378093D01*
X155152356Y-82460670D01*
X155156572Y-82465981D01*
X155177941Y-82494441D01*
X155187292Y-82503989D01*
X155206059Y-82518704D01*
X155211372Y-82522870D01*
X155214589Y-82525479D01*
X155313188Y-82608214D01*
X155317955Y-82610966D01*
X155317959Y-82610969D01*
X155404871Y-82661147D01*
X155454645Y-82689884D01*
X155459808Y-82691763D01*
X155459812Y-82691765D01*
X155539155Y-82720643D01*
X155608136Y-82745750D01*
X155654086Y-82753852D01*
X155679308Y-82758300D01*
X155742920Y-82789828D01*
X155779389Y-82850742D01*
X155781513Y-82860506D01*
X155785956Y-82885700D01*
X155794063Y-82931679D01*
X155849929Y-83085169D01*
X155852679Y-83089932D01*
X155928849Y-83221864D01*
X155928853Y-83221869D01*
X155931599Y-83226626D01*
X156000889Y-83309203D01*
X156005105Y-83314514D01*
X156026474Y-83342974D01*
X156035825Y-83352522D01*
X156047506Y-83361681D01*
X156059905Y-83371403D01*
X156063122Y-83374012D01*
X156161721Y-83456747D01*
X156166488Y-83459499D01*
X156166492Y-83459502D01*
X156230745Y-83496598D01*
X156303178Y-83538417D01*
X156308341Y-83540296D01*
X156308345Y-83540298D01*
X156365543Y-83561116D01*
X156456669Y-83594283D01*
X156462086Y-83595238D01*
X156462089Y-83595239D01*
X156527837Y-83606832D01*
X156591449Y-83638360D01*
X156627919Y-83699274D01*
X156630043Y-83709038D01*
X156642594Y-83780215D01*
X156698462Y-83933707D01*
X156701206Y-83938460D01*
X156701209Y-83938466D01*
X156777383Y-84070400D01*
X156780135Y-84075166D01*
X156783670Y-84079379D01*
X156783673Y-84079383D01*
X156849410Y-84157723D01*
X156853644Y-84163056D01*
X156875006Y-84191507D01*
X156875012Y-84191513D01*
X156884363Y-84201062D01*
X156887617Y-84203613D01*
X156887620Y-84203616D01*
X156908447Y-84219945D01*
X156911696Y-84222580D01*
X156944374Y-84250000D01*
X157010253Y-84305280D01*
X157151710Y-84386950D01*
X157156873Y-84388829D01*
X157156877Y-84388831D01*
X157270770Y-84430284D01*
X157305201Y-84442816D01*
X157359459Y-84452383D01*
X157376368Y-84455365D01*
X157439980Y-84486893D01*
X157476449Y-84547807D01*
X157478572Y-84557568D01*
X157491123Y-84628744D01*
X157546991Y-84782236D01*
X157549735Y-84786989D01*
X157549738Y-84786995D01*
X157625912Y-84918929D01*
X157628664Y-84923695D01*
X157632199Y-84927908D01*
X157632202Y-84927912D01*
X157641409Y-84938884D01*
X157691855Y-84999001D01*
X157697939Y-85006252D01*
X157702173Y-85011585D01*
X157723535Y-85040036D01*
X157723541Y-85040042D01*
X157732892Y-85049591D01*
X157736146Y-85052142D01*
X157736149Y-85052145D01*
X157756976Y-85068474D01*
X157760225Y-85071109D01*
X157840327Y-85138323D01*
X157858782Y-85153809D01*
X158000239Y-85235479D01*
X158005402Y-85237358D01*
X158005406Y-85237360D01*
X158078056Y-85263802D01*
X158153730Y-85291345D01*
X158206909Y-85300722D01*
X158224897Y-85303894D01*
X158288509Y-85335422D01*
X158324978Y-85396336D01*
X158327101Y-85406097D01*
X158339652Y-85477273D01*
X158395520Y-85630765D01*
X158398264Y-85635518D01*
X158398267Y-85635524D01*
X158411095Y-85657742D01*
X158477193Y-85772224D01*
X158480728Y-85776437D01*
X158480731Y-85776441D01*
X158546468Y-85854781D01*
X158550702Y-85860114D01*
X158572064Y-85888565D01*
X158572070Y-85888571D01*
X158581421Y-85898120D01*
X158584675Y-85900671D01*
X158584678Y-85900674D01*
X158605505Y-85917003D01*
X158608753Y-85919637D01*
X158707311Y-86002338D01*
X158848768Y-86084008D01*
X158853931Y-86085887D01*
X158853935Y-86085889D01*
X158967828Y-86127342D01*
X159002259Y-86139874D01*
X159056517Y-86149441D01*
X159073426Y-86152423D01*
X159137038Y-86183951D01*
X159173507Y-86244865D01*
X159175630Y-86254626D01*
X159188181Y-86325802D01*
X159244049Y-86479294D01*
X159246793Y-86484047D01*
X159246796Y-86484053D01*
X159259902Y-86506752D01*
X159325722Y-86620753D01*
X159329257Y-86624966D01*
X159329260Y-86624970D01*
X159394997Y-86703310D01*
X159399231Y-86708643D01*
X159420593Y-86737094D01*
X159420599Y-86737100D01*
X159429950Y-86746649D01*
X159433204Y-86749200D01*
X159433207Y-86749203D01*
X159454034Y-86765532D01*
X159457282Y-86768166D01*
X159555840Y-86850867D01*
X159697297Y-86932537D01*
X159702460Y-86934416D01*
X159702464Y-86934418D01*
X159793940Y-86967712D01*
X159850788Y-86988403D01*
X159856205Y-86989358D01*
X159856208Y-86989359D01*
X159879325Y-86993435D01*
X159921958Y-87000952D01*
X159985569Y-87032479D01*
X160022039Y-87093393D01*
X160024163Y-87103157D01*
X160026128Y-87114300D01*
X160036713Y-87174329D01*
X160092579Y-87327819D01*
X160095329Y-87332582D01*
X160171499Y-87464514D01*
X160171503Y-87464519D01*
X160174249Y-87469276D01*
X160243539Y-87551853D01*
X160247755Y-87557164D01*
X160269124Y-87585624D01*
X160278475Y-87595172D01*
X160289660Y-87603942D01*
X160302555Y-87614053D01*
X160305772Y-87616662D01*
X160404371Y-87699397D01*
X160409138Y-87702149D01*
X160409142Y-87702152D01*
X160496054Y-87752330D01*
X160545828Y-87781067D01*
X160550991Y-87782946D01*
X160550995Y-87782948D01*
X160664888Y-87824401D01*
X160699319Y-87836933D01*
X160704736Y-87837888D01*
X160704739Y-87837889D01*
X160748840Y-87845665D01*
X160860178Y-87865297D01*
X161023520Y-87865297D01*
X161134858Y-87845665D01*
X161178959Y-87837889D01*
X161178962Y-87837888D01*
X161184379Y-87836933D01*
X161218810Y-87824401D01*
X161332703Y-87782948D01*
X161332707Y-87782946D01*
X161337870Y-87781067D01*
X161377937Y-87757934D01*
X161474565Y-87702147D01*
X161474570Y-87702143D01*
X161479327Y-87699397D01*
X161483543Y-87695860D01*
X161483545Y-87695858D01*
X161519365Y-87665802D01*
X161536218Y-87653869D01*
X161538519Y-87652508D01*
X161538521Y-87652507D01*
X161545343Y-87648472D01*
X161560912Y-87632903D01*
X161623224Y-87598877D01*
X161694039Y-87603942D01*
X161748290Y-87644554D01*
X161748699Y-87644216D01*
X161750098Y-87645908D01*
X161750875Y-87646489D01*
X161752361Y-87648643D01*
X161753753Y-87650326D01*
X161758000Y-87657018D01*
X161768262Y-87666654D01*
X161782771Y-87682855D01*
X161786925Y-87688389D01*
X161786934Y-87688399D01*
X161789409Y-87691696D01*
X161798760Y-87701245D01*
X161802010Y-87703793D01*
X161832745Y-87727892D01*
X161841253Y-87735197D01*
X161874679Y-87766586D01*
X161881619Y-87770401D01*
X161881624Y-87770405D01*
X161890511Y-87775290D01*
X161907558Y-87786552D01*
X161913442Y-87791166D01*
X161913445Y-87791168D01*
X161919423Y-87795855D01*
X161926346Y-87798981D01*
X161926348Y-87798982D01*
X161962448Y-87815281D01*
X161971299Y-87819704D01*
X162007992Y-87839876D01*
X162007997Y-87839878D01*
X162014940Y-87843695D01*
X162028575Y-87847196D01*
X162049081Y-87854397D01*
X162052250Y-87855828D01*
X162052253Y-87855829D01*
X162059170Y-87858952D01*
X162066638Y-87860336D01*
X162099034Y-87866340D01*
X162160384Y-87896594D01*
X162263056Y-87989040D01*
X162428444Y-88084527D01*
X162462731Y-88095668D01*
X162521335Y-88135741D01*
X162548972Y-88201138D01*
X162536865Y-88271094D01*
X162488859Y-88323400D01*
X162423793Y-88341500D01*
X161651866Y-88341500D01*
X161648469Y-88341869D01*
X161597536Y-88347402D01*
X161594056Y-88347780D01*
X161589684Y-88348255D01*
X161589607Y-88347548D01*
X161524706Y-88344160D01*
X161515209Y-88340386D01*
X161388319Y-88283891D01*
X161388318Y-88283891D01*
X161382288Y-88281206D01*
X161288887Y-88261353D01*
X161201944Y-88242872D01*
X161201939Y-88242872D01*
X161195487Y-88241500D01*
X161004513Y-88241500D01*
X160998061Y-88242872D01*
X160998056Y-88242872D01*
X160911112Y-88261353D01*
X160817712Y-88281206D01*
X160651248Y-88355320D01*
X160580882Y-88364754D01*
X160548753Y-88355320D01*
X160382288Y-88281206D01*
X160288887Y-88261353D01*
X160201944Y-88242872D01*
X160201939Y-88242872D01*
X160195487Y-88241500D01*
X160004513Y-88241500D01*
X159998061Y-88242872D01*
X159998056Y-88242872D01*
X159911112Y-88261353D01*
X159817712Y-88281206D01*
X159811682Y-88283891D01*
X159811681Y-88283891D01*
X159649278Y-88356197D01*
X159649276Y-88356198D01*
X159643248Y-88358882D01*
X159637907Y-88362762D01*
X159637906Y-88362763D01*
X159524061Y-88445477D01*
X159457194Y-88469335D01*
X159388042Y-88453255D01*
X159375939Y-88445477D01*
X159262094Y-88362763D01*
X159262093Y-88362762D01*
X159256752Y-88358882D01*
X159250724Y-88356198D01*
X159250722Y-88356197D01*
X159088319Y-88283891D01*
X159088318Y-88283891D01*
X159082288Y-88281206D01*
X158988887Y-88261353D01*
X158901944Y-88242872D01*
X158901939Y-88242872D01*
X158895487Y-88241500D01*
X158704513Y-88241500D01*
X158698061Y-88242872D01*
X158698056Y-88242872D01*
X158611112Y-88261353D01*
X158517712Y-88281206D01*
X158511682Y-88283891D01*
X158511681Y-88283891D01*
X158349278Y-88356197D01*
X158349276Y-88356198D01*
X158343248Y-88358882D01*
X158337907Y-88362762D01*
X158337906Y-88362763D01*
X158274061Y-88409149D01*
X158207193Y-88433008D01*
X158138041Y-88416927D01*
X158125939Y-88409149D01*
X158062094Y-88362763D01*
X158062093Y-88362762D01*
X158056752Y-88358882D01*
X158050724Y-88356198D01*
X158050722Y-88356197D01*
X157888319Y-88283891D01*
X157888318Y-88283891D01*
X157882288Y-88281206D01*
X157788887Y-88261353D01*
X157701944Y-88242872D01*
X157701939Y-88242872D01*
X157695487Y-88241500D01*
X157504513Y-88241500D01*
X157498061Y-88242872D01*
X157498056Y-88242872D01*
X157411112Y-88261353D01*
X157317712Y-88281206D01*
X157311682Y-88283891D01*
X157311681Y-88283891D01*
X157149278Y-88356197D01*
X157149276Y-88356198D01*
X157143248Y-88358882D01*
X157137907Y-88362762D01*
X157137906Y-88362763D01*
X157074061Y-88409149D01*
X157007193Y-88433008D01*
X156938041Y-88416927D01*
X156925939Y-88409149D01*
X156862094Y-88362763D01*
X156862093Y-88362762D01*
X156856752Y-88358882D01*
X156850724Y-88356198D01*
X156850722Y-88356197D01*
X156688319Y-88283891D01*
X156688318Y-88283891D01*
X156682288Y-88281206D01*
X156588887Y-88261353D01*
X156501944Y-88242872D01*
X156501939Y-88242872D01*
X156495487Y-88241500D01*
X156304513Y-88241500D01*
X156298061Y-88242872D01*
X156298056Y-88242872D01*
X156211112Y-88261353D01*
X156117712Y-88281206D01*
X156111682Y-88283891D01*
X156111681Y-88283891D01*
X155949278Y-88356197D01*
X155949276Y-88356198D01*
X155943248Y-88358882D01*
X155937907Y-88362762D01*
X155937906Y-88362763D01*
X155874061Y-88409149D01*
X155807193Y-88433008D01*
X155738041Y-88416927D01*
X155725939Y-88409149D01*
X155662094Y-88362763D01*
X155662093Y-88362762D01*
X155656752Y-88358882D01*
X155650724Y-88356198D01*
X155650722Y-88356197D01*
X155488319Y-88283891D01*
X155488318Y-88283891D01*
X155482288Y-88281206D01*
X155388887Y-88261353D01*
X155301944Y-88242872D01*
X155301939Y-88242872D01*
X155295487Y-88241500D01*
X155104513Y-88241500D01*
X155098061Y-88242872D01*
X155098056Y-88242872D01*
X155011112Y-88261353D01*
X154917712Y-88281206D01*
X154911682Y-88283891D01*
X154911681Y-88283891D01*
X154749278Y-88356197D01*
X154749276Y-88356198D01*
X154743248Y-88358882D01*
X154737907Y-88362762D01*
X154737906Y-88362763D01*
X154624061Y-88445477D01*
X154557194Y-88469335D01*
X154488042Y-88453255D01*
X154475939Y-88445477D01*
X154362094Y-88362763D01*
X154362093Y-88362762D01*
X154356752Y-88358882D01*
X154350724Y-88356198D01*
X154350722Y-88356197D01*
X154188319Y-88283891D01*
X154188318Y-88283891D01*
X154182288Y-88281206D01*
X154088887Y-88261353D01*
X154001944Y-88242872D01*
X154001939Y-88242872D01*
X153995487Y-88241500D01*
X153804513Y-88241500D01*
X153798061Y-88242872D01*
X153798056Y-88242872D01*
X153711112Y-88261353D01*
X153617712Y-88281206D01*
X153451248Y-88355320D01*
X153380882Y-88364754D01*
X153348753Y-88355320D01*
X153182288Y-88281206D01*
X153088887Y-88261353D01*
X153001944Y-88242872D01*
X153001939Y-88242872D01*
X152995487Y-88241500D01*
X152804513Y-88241500D01*
X152798061Y-88242872D01*
X152798056Y-88242872D01*
X152711112Y-88261353D01*
X152617712Y-88281206D01*
X152611682Y-88283891D01*
X152611681Y-88283891D01*
X152484791Y-88340386D01*
X152414473Y-88349813D01*
X152410316Y-88348255D01*
X152402464Y-88347402D01*
X152351531Y-88341869D01*
X152348134Y-88341500D01*
X150451866Y-88341500D01*
X150389684Y-88348255D01*
X150253295Y-88399385D01*
X150136739Y-88486739D01*
X150049385Y-88603295D01*
X149998255Y-88739684D01*
X149991500Y-88801866D01*
X149991500Y-89898134D01*
X142357284Y-89898134D01*
X142391611Y-89874098D01*
X142469789Y-89819357D01*
X142469792Y-89819355D01*
X142474300Y-89816198D01*
X142636198Y-89654300D01*
X142767523Y-89466749D01*
X142769846Y-89461767D01*
X142769849Y-89461762D01*
X142861961Y-89264225D01*
X142861961Y-89264224D01*
X142864284Y-89259243D01*
X142923543Y-89038087D01*
X142943498Y-88810000D01*
X142923543Y-88581913D01*
X142864284Y-88360757D01*
X142856545Y-88344160D01*
X142769849Y-88158238D01*
X142769846Y-88158233D01*
X142767523Y-88153251D01*
X142694098Y-88048389D01*
X142639357Y-87970211D01*
X142639355Y-87970208D01*
X142636198Y-87965700D01*
X142474300Y-87803802D01*
X142469792Y-87800645D01*
X142469789Y-87800643D01*
X142370835Y-87731355D01*
X142286749Y-87672477D01*
X142281767Y-87670154D01*
X142281762Y-87670151D01*
X142247543Y-87654195D01*
X142194258Y-87607278D01*
X142174797Y-87539001D01*
X142195339Y-87471041D01*
X142247543Y-87425805D01*
X142281762Y-87409849D01*
X142281767Y-87409846D01*
X142286749Y-87407523D01*
X142400578Y-87327819D01*
X142469789Y-87279357D01*
X142469792Y-87279355D01*
X142474300Y-87276198D01*
X142636198Y-87114300D01*
X142644001Y-87103157D01*
X142743063Y-86961681D01*
X142767523Y-86926749D01*
X142769846Y-86921767D01*
X142769849Y-86921762D01*
X142861961Y-86724225D01*
X142861961Y-86724224D01*
X142864284Y-86719243D01*
X142879823Y-86661253D01*
X142922119Y-86503402D01*
X142922119Y-86503400D01*
X142923543Y-86498087D01*
X142943498Y-86270000D01*
X142932605Y-86145487D01*
X149091500Y-86145487D01*
X149092872Y-86151939D01*
X149092872Y-86151944D01*
X149099676Y-86183951D01*
X149131206Y-86332288D01*
X149208882Y-86506752D01*
X149321134Y-86661253D01*
X149326044Y-86665674D01*
X149326045Y-86665675D01*
X149451125Y-86778297D01*
X149463056Y-86789040D01*
X149628444Y-86884527D01*
X149810072Y-86943542D01*
X149816633Y-86944232D01*
X149816635Y-86944232D01*
X149859928Y-86948782D01*
X149952390Y-86958500D01*
X151247610Y-86958500D01*
X151340072Y-86948782D01*
X151383365Y-86944232D01*
X151383367Y-86944232D01*
X151389928Y-86943542D01*
X151571556Y-86884527D01*
X151577279Y-86881223D01*
X151731227Y-86792341D01*
X151731229Y-86792340D01*
X151736944Y-86789040D01*
X151740494Y-86785844D01*
X151806725Y-86762214D01*
X151875876Y-86778297D01*
X151903010Y-86798914D01*
X152052878Y-86948782D01*
X152086904Y-87011094D01*
X152089092Y-87024703D01*
X152106458Y-87189928D01*
X152165473Y-87371556D01*
X152168776Y-87377278D01*
X152168777Y-87377279D01*
X152196794Y-87425805D01*
X152260960Y-87536944D01*
X152265378Y-87541851D01*
X152265379Y-87541852D01*
X152366533Y-87654195D01*
X152388747Y-87678866D01*
X152456225Y-87727892D01*
X152528257Y-87780226D01*
X152543248Y-87791118D01*
X152549276Y-87793802D01*
X152549278Y-87793803D01*
X152711681Y-87866109D01*
X152717712Y-87868794D01*
X152811113Y-87888647D01*
X152898056Y-87907128D01*
X152898061Y-87907128D01*
X152904513Y-87908500D01*
X153095487Y-87908500D01*
X153101939Y-87907128D01*
X153101944Y-87907128D01*
X153188887Y-87888647D01*
X153282288Y-87868794D01*
X153288319Y-87866109D01*
X153450722Y-87793803D01*
X153450724Y-87793802D01*
X153456752Y-87791118D01*
X153471744Y-87780226D01*
X153543775Y-87727892D01*
X153611253Y-87678866D01*
X153633467Y-87654195D01*
X153734621Y-87541852D01*
X153734622Y-87541851D01*
X153739040Y-87536944D01*
X153803206Y-87425805D01*
X153831223Y-87377279D01*
X153831224Y-87377278D01*
X153834527Y-87371556D01*
X153893542Y-87189928D01*
X153913504Y-87000000D01*
X153906611Y-86934418D01*
X153894232Y-86816635D01*
X153894232Y-86816633D01*
X153893542Y-86810072D01*
X153834527Y-86628444D01*
X153739040Y-86463056D01*
X153626727Y-86338319D01*
X153615675Y-86326045D01*
X153615674Y-86326044D01*
X153611253Y-86321134D01*
X153456752Y-86208882D01*
X153450724Y-86206198D01*
X153450722Y-86206197D01*
X153288319Y-86133891D01*
X153288318Y-86133891D01*
X153282288Y-86131206D01*
X153188888Y-86111353D01*
X153101944Y-86092872D01*
X153101939Y-86092872D01*
X153095487Y-86091500D01*
X153039595Y-86091500D01*
X152971474Y-86071498D01*
X152950499Y-86054595D01*
X152756025Y-85860120D01*
X152553647Y-85657742D01*
X152546113Y-85649463D01*
X152542000Y-85642982D01*
X152492348Y-85596356D01*
X152489507Y-85593602D01*
X152469770Y-85573865D01*
X152466573Y-85571385D01*
X152457551Y-85563680D01*
X152431100Y-85538841D01*
X152425321Y-85533414D01*
X152418375Y-85529595D01*
X152418372Y-85529593D01*
X152407566Y-85523652D01*
X152391047Y-85512801D01*
X152389961Y-85511959D01*
X152375041Y-85500386D01*
X152367772Y-85497241D01*
X152367768Y-85497238D01*
X152334463Y-85482826D01*
X152323813Y-85477609D01*
X152285060Y-85456305D01*
X152265437Y-85451267D01*
X152246734Y-85444863D01*
X152235420Y-85439967D01*
X152235419Y-85439967D01*
X152228145Y-85436819D01*
X152220322Y-85435580D01*
X152220312Y-85435577D01*
X152184476Y-85429901D01*
X152172856Y-85427495D01*
X152137705Y-85418470D01*
X152137701Y-85418469D01*
X152130030Y-85416500D01*
X152122109Y-85416500D01*
X152120154Y-85416253D01*
X152055077Y-85387871D01*
X152015676Y-85328812D01*
X152014459Y-85257826D01*
X152020839Y-85239999D01*
X152066108Y-85138323D01*
X152066111Y-85138315D01*
X152068794Y-85132288D01*
X152094449Y-85011591D01*
X152107128Y-84951944D01*
X152107128Y-84951939D01*
X152108500Y-84945487D01*
X152108500Y-84754513D01*
X152105279Y-84739357D01*
X152080617Y-84623334D01*
X152068794Y-84567712D01*
X151991118Y-84393248D01*
X151940851Y-84324061D01*
X151916992Y-84257193D01*
X151933073Y-84188041D01*
X151940851Y-84175939D01*
X151987237Y-84112094D01*
X151987238Y-84112093D01*
X151991118Y-84106752D01*
X152003304Y-84079383D01*
X152066109Y-83938319D01*
X152066109Y-83938318D01*
X152068794Y-83932288D01*
X152100020Y-83785383D01*
X152107128Y-83751944D01*
X152107128Y-83751939D01*
X152108500Y-83745487D01*
X152108500Y-83554513D01*
X152105479Y-83540298D01*
X152070166Y-83374169D01*
X152068794Y-83367712D01*
X152056311Y-83339674D01*
X151993803Y-83199278D01*
X151993802Y-83199276D01*
X151991118Y-83193248D01*
X151940851Y-83124061D01*
X151916992Y-83057193D01*
X151933073Y-82988041D01*
X151940851Y-82975939D01*
X151987237Y-82912094D01*
X151987238Y-82912093D01*
X151991118Y-82906752D01*
X151998483Y-82890211D01*
X152066109Y-82738319D01*
X152066109Y-82738318D01*
X152068794Y-82732288D01*
X152098512Y-82592477D01*
X152107128Y-82551944D01*
X152107128Y-82551939D01*
X152108500Y-82545487D01*
X152108500Y-82354513D01*
X152106650Y-82345805D01*
X152074849Y-82196198D01*
X152068794Y-82167712D01*
X152028731Y-82077729D01*
X151993803Y-81999278D01*
X151993802Y-81999276D01*
X151991118Y-81993248D01*
X151940851Y-81924061D01*
X151916992Y-81857193D01*
X151933073Y-81788041D01*
X151940851Y-81775939D01*
X151987237Y-81712094D01*
X151987238Y-81712093D01*
X151991118Y-81706752D01*
X152013957Y-81655456D01*
X152066109Y-81538319D01*
X152066109Y-81538318D01*
X152068794Y-81532288D01*
X152108500Y-81345487D01*
X152108500Y-81154513D01*
X152068794Y-80967712D01*
X152063846Y-80956598D01*
X151993803Y-80799278D01*
X151993802Y-80799276D01*
X151991118Y-80793248D01*
X151961201Y-80752071D01*
X151940851Y-80724061D01*
X151916992Y-80657193D01*
X151933073Y-80588041D01*
X151940851Y-80575939D01*
X151987237Y-80512094D01*
X151987238Y-80512093D01*
X151991118Y-80506752D01*
X152054603Y-80364163D01*
X152066109Y-80338319D01*
X152066109Y-80338318D01*
X152068794Y-80332288D01*
X152096053Y-80204044D01*
X152107128Y-80151944D01*
X152107128Y-80151939D01*
X152108500Y-80145487D01*
X152108500Y-79954513D01*
X152102972Y-79928502D01*
X152088647Y-79861113D01*
X152068794Y-79767712D01*
X152065574Y-79760479D01*
X151993803Y-79599278D01*
X151993802Y-79599276D01*
X151991118Y-79593248D01*
X151982406Y-79581257D01*
X151940851Y-79524061D01*
X151916992Y-79457193D01*
X151933073Y-79388041D01*
X151940851Y-79375939D01*
X151987237Y-79312094D01*
X151987238Y-79312093D01*
X151991118Y-79306752D01*
X152046730Y-79181846D01*
X152066109Y-79138319D01*
X152066109Y-79138318D01*
X152068794Y-79132288D01*
X152089224Y-79036174D01*
X152107128Y-78951944D01*
X152107128Y-78951939D01*
X152108500Y-78945487D01*
X152108500Y-78754513D01*
X152103576Y-78731345D01*
X152081703Y-78628444D01*
X152068794Y-78567712D01*
X152023409Y-78465775D01*
X151993803Y-78399278D01*
X151993802Y-78399276D01*
X151991118Y-78393248D01*
X151940851Y-78324061D01*
X151916992Y-78257193D01*
X151933073Y-78188041D01*
X151940851Y-78175939D01*
X151987237Y-78112094D01*
X151987238Y-78112093D01*
X151991118Y-78106752D01*
X152039432Y-77998238D01*
X152066109Y-77938319D01*
X152066109Y-77938318D01*
X152068794Y-77932288D01*
X152088647Y-77838887D01*
X152107128Y-77751944D01*
X152107128Y-77751939D01*
X152108500Y-77745487D01*
X152108500Y-77554513D01*
X152068794Y-77367712D01*
X152038377Y-77299394D01*
X151993803Y-77199278D01*
X151993802Y-77199276D01*
X151991118Y-77193248D01*
X151940851Y-77124061D01*
X151916992Y-77057193D01*
X151933073Y-76988041D01*
X151940851Y-76975939D01*
X151987237Y-76912094D01*
X151987238Y-76912093D01*
X151991118Y-76906752D01*
X152055672Y-76761762D01*
X152066109Y-76738319D01*
X152066109Y-76738318D01*
X152068794Y-76732288D01*
X152088647Y-76638888D01*
X152107128Y-76551944D01*
X152107128Y-76551939D01*
X152108500Y-76545487D01*
X152108500Y-76354513D01*
X152106139Y-76343402D01*
X152070166Y-76174169D01*
X152068794Y-76167712D01*
X152043099Y-76110000D01*
X151993803Y-75999278D01*
X151993802Y-75999276D01*
X151991118Y-75993248D01*
X151940851Y-75924061D01*
X151916992Y-75857193D01*
X151933073Y-75788041D01*
X151940851Y-75775939D01*
X151987237Y-75712094D01*
X151987238Y-75712093D01*
X151991118Y-75706752D01*
X152013815Y-75655775D01*
X152066109Y-75538319D01*
X152066109Y-75538318D01*
X152068794Y-75532288D01*
X152092929Y-75418743D01*
X152107128Y-75351944D01*
X152107128Y-75351939D01*
X152108500Y-75345487D01*
X152108500Y-75154513D01*
X152098550Y-75107699D01*
X152088647Y-75061112D01*
X152068794Y-74967712D01*
X152027835Y-74875716D01*
X151993803Y-74799278D01*
X151993802Y-74799276D01*
X151991118Y-74793248D01*
X151940851Y-74724061D01*
X151916992Y-74657193D01*
X151933073Y-74588041D01*
X151940851Y-74575939D01*
X151987237Y-74512094D01*
X151987238Y-74512093D01*
X151991118Y-74506752D01*
X152034289Y-74409789D01*
X152066109Y-74338319D01*
X152066109Y-74338318D01*
X152068794Y-74332288D01*
X152108500Y-74145487D01*
X152108500Y-73954513D01*
X152068794Y-73767712D01*
X151991118Y-73593248D01*
X151970250Y-73564525D01*
X151882749Y-73444092D01*
X151878866Y-73438747D01*
X151736944Y-73310960D01*
X151571556Y-73215473D01*
X151389928Y-73156458D01*
X151383367Y-73155768D01*
X151383365Y-73155768D01*
X151330111Y-73150171D01*
X151247610Y-73141500D01*
X149952390Y-73141500D01*
X149869889Y-73150171D01*
X149816635Y-73155768D01*
X149816633Y-73155768D01*
X149810072Y-73156458D01*
X149628444Y-73215473D01*
X149463056Y-73310960D01*
X149321134Y-73438747D01*
X149317251Y-73444092D01*
X149229751Y-73564525D01*
X149208882Y-73593248D01*
X149131206Y-73767712D01*
X149091500Y-73954513D01*
X149091500Y-74145487D01*
X149131206Y-74332288D01*
X149133891Y-74338318D01*
X149133891Y-74338319D01*
X149165712Y-74409789D01*
X149208882Y-74506752D01*
X149212762Y-74512093D01*
X149212763Y-74512094D01*
X149259149Y-74575939D01*
X149283008Y-74642807D01*
X149266927Y-74711959D01*
X149259149Y-74724061D01*
X149208882Y-74793248D01*
X149206198Y-74799276D01*
X149206197Y-74799278D01*
X149172165Y-74875716D01*
X149131206Y-74967712D01*
X149111353Y-75061112D01*
X149101451Y-75107699D01*
X149091500Y-75154513D01*
X149091500Y-75345487D01*
X149092872Y-75351939D01*
X149092872Y-75351944D01*
X149107071Y-75418743D01*
X149131206Y-75532288D01*
X149133891Y-75538318D01*
X149133891Y-75538319D01*
X149186186Y-75655775D01*
X149208882Y-75706752D01*
X149212762Y-75712093D01*
X149212763Y-75712094D01*
X149259149Y-75775939D01*
X149283008Y-75842807D01*
X149266927Y-75911959D01*
X149259149Y-75924061D01*
X149208882Y-75993248D01*
X149206198Y-75999276D01*
X149206197Y-75999278D01*
X149156901Y-76110000D01*
X149131206Y-76167712D01*
X149129834Y-76174169D01*
X149093862Y-76343402D01*
X149091500Y-76354513D01*
X149091500Y-76545487D01*
X149092872Y-76551939D01*
X149092872Y-76551944D01*
X149111353Y-76638887D01*
X149131206Y-76732288D01*
X149133891Y-76738318D01*
X149133891Y-76738319D01*
X149144329Y-76761762D01*
X149208882Y-76906752D01*
X149212762Y-76912093D01*
X149212763Y-76912094D01*
X149259149Y-76975939D01*
X149283008Y-77042807D01*
X149266927Y-77111959D01*
X149259149Y-77124061D01*
X149208882Y-77193248D01*
X149206198Y-77199276D01*
X149206197Y-77199278D01*
X149161623Y-77299394D01*
X149131206Y-77367712D01*
X149091500Y-77554513D01*
X149091500Y-77745487D01*
X149092872Y-77751939D01*
X149092872Y-77751944D01*
X149111353Y-77838888D01*
X149131206Y-77932288D01*
X149133891Y-77938318D01*
X149133891Y-77938319D01*
X149160569Y-77998238D01*
X149208882Y-78106752D01*
X149212762Y-78112093D01*
X149212763Y-78112094D01*
X149259149Y-78175939D01*
X149283008Y-78242807D01*
X149266927Y-78311959D01*
X149259149Y-78324061D01*
X149208882Y-78393248D01*
X149206198Y-78399276D01*
X149206197Y-78399278D01*
X149176591Y-78465775D01*
X149131206Y-78567712D01*
X149118297Y-78628444D01*
X149096425Y-78731345D01*
X149091500Y-78754513D01*
X149091500Y-78945487D01*
X149092872Y-78951939D01*
X149092872Y-78951944D01*
X149110776Y-79036174D01*
X149131206Y-79132288D01*
X149133891Y-79138318D01*
X149133891Y-79138319D01*
X149153271Y-79181846D01*
X149208882Y-79306752D01*
X149212762Y-79312093D01*
X149212763Y-79312094D01*
X149259149Y-79375939D01*
X149283008Y-79442807D01*
X149266927Y-79511959D01*
X149259149Y-79524061D01*
X149217594Y-79581257D01*
X149208882Y-79593248D01*
X149206198Y-79599276D01*
X149206197Y-79599278D01*
X149134426Y-79760479D01*
X149131206Y-79767712D01*
X149111353Y-79861113D01*
X149097029Y-79928502D01*
X149091500Y-79954513D01*
X149091500Y-80145487D01*
X149092872Y-80151939D01*
X149092872Y-80151944D01*
X149103947Y-80204044D01*
X149131206Y-80332288D01*
X149133891Y-80338318D01*
X149133891Y-80338319D01*
X149145398Y-80364163D01*
X149208882Y-80506752D01*
X149212762Y-80512093D01*
X149212763Y-80512094D01*
X149259149Y-80575939D01*
X149283008Y-80642807D01*
X149266927Y-80711959D01*
X149259149Y-80724061D01*
X149238799Y-80752071D01*
X149208882Y-80793248D01*
X149206198Y-80799276D01*
X149206197Y-80799278D01*
X149136154Y-80956598D01*
X149131206Y-80967712D01*
X149091500Y-81154513D01*
X149091500Y-81345487D01*
X149131206Y-81532288D01*
X149133891Y-81538318D01*
X149133891Y-81538319D01*
X149186044Y-81655456D01*
X149208882Y-81706752D01*
X149212762Y-81712093D01*
X149212763Y-81712094D01*
X149259149Y-81775939D01*
X149283008Y-81842807D01*
X149266927Y-81911959D01*
X149259149Y-81924061D01*
X149208882Y-81993248D01*
X149206198Y-81999276D01*
X149206197Y-81999278D01*
X149171269Y-82077729D01*
X149131206Y-82167712D01*
X149125151Y-82196198D01*
X149093351Y-82345805D01*
X149091500Y-82354513D01*
X149091500Y-82545487D01*
X149092872Y-82551939D01*
X149092872Y-82551944D01*
X149101488Y-82592477D01*
X149131206Y-82732288D01*
X149133891Y-82738318D01*
X149133891Y-82738319D01*
X149201518Y-82890211D01*
X149208882Y-82906752D01*
X149212762Y-82912093D01*
X149212763Y-82912094D01*
X149259149Y-82975939D01*
X149283008Y-83042807D01*
X149266927Y-83111959D01*
X149259149Y-83124061D01*
X149208882Y-83193248D01*
X149206198Y-83199276D01*
X149206197Y-83199278D01*
X149143689Y-83339674D01*
X149131206Y-83367712D01*
X149129834Y-83374169D01*
X149094522Y-83540298D01*
X149091500Y-83554513D01*
X149091500Y-83745487D01*
X149092872Y-83751939D01*
X149092872Y-83751944D01*
X149099980Y-83785383D01*
X149131206Y-83932288D01*
X149133891Y-83938318D01*
X149133891Y-83938319D01*
X149196697Y-84079383D01*
X149208882Y-84106752D01*
X149212762Y-84112093D01*
X149212763Y-84112094D01*
X149259149Y-84175939D01*
X149283008Y-84242807D01*
X149266927Y-84311959D01*
X149259149Y-84324061D01*
X149208882Y-84393248D01*
X149131206Y-84567712D01*
X149119383Y-84623334D01*
X149094722Y-84739357D01*
X149091500Y-84754513D01*
X149091500Y-84945487D01*
X149092872Y-84951939D01*
X149092872Y-84951944D01*
X149105551Y-85011591D01*
X149131206Y-85132288D01*
X149133891Y-85138318D01*
X149133891Y-85138319D01*
X149202448Y-85292300D01*
X149208882Y-85306752D01*
X149212762Y-85312093D01*
X149212763Y-85312094D01*
X149259149Y-85375939D01*
X149283008Y-85442807D01*
X149266927Y-85511959D01*
X149259149Y-85524061D01*
X149220927Y-85576669D01*
X149208882Y-85593248D01*
X149206198Y-85599276D01*
X149206197Y-85599278D01*
X149138902Y-85750427D01*
X149131206Y-85767712D01*
X149129834Y-85774169D01*
X149099197Y-85918303D01*
X149091500Y-85954513D01*
X149091500Y-86145487D01*
X142932605Y-86145487D01*
X142923543Y-86041913D01*
X142911991Y-85998799D01*
X142865707Y-85826067D01*
X142865706Y-85826065D01*
X142864284Y-85820757D01*
X142839549Y-85767712D01*
X142769849Y-85618238D01*
X142769846Y-85618233D01*
X142767523Y-85613251D01*
X142675925Y-85482436D01*
X142639357Y-85430211D01*
X142639355Y-85430208D01*
X142636198Y-85425700D01*
X142474300Y-85263802D01*
X142469792Y-85260645D01*
X142469789Y-85260643D01*
X142391611Y-85205902D01*
X142286749Y-85132477D01*
X142281767Y-85130154D01*
X142281762Y-85130151D01*
X142247543Y-85114195D01*
X142194258Y-85067278D01*
X142174797Y-84999001D01*
X142195339Y-84931041D01*
X142247543Y-84885805D01*
X142281762Y-84869849D01*
X142281767Y-84869846D01*
X142286749Y-84867523D01*
X142457365Y-84748056D01*
X142469789Y-84739357D01*
X142469792Y-84739355D01*
X142474300Y-84736198D01*
X142636198Y-84574300D01*
X142767523Y-84386749D01*
X142769846Y-84381767D01*
X142769849Y-84381762D01*
X142861961Y-84184225D01*
X142861961Y-84184224D01*
X142864284Y-84179243D01*
X142923543Y-83958087D01*
X142943498Y-83730000D01*
X142923543Y-83501913D01*
X142883514Y-83352522D01*
X142865707Y-83286067D01*
X142865706Y-83286065D01*
X142864284Y-83280757D01*
X142841006Y-83230837D01*
X142769849Y-83078238D01*
X142769846Y-83078233D01*
X142767523Y-83073251D01*
X142664600Y-82926262D01*
X142639357Y-82890211D01*
X142639355Y-82890208D01*
X142636198Y-82885700D01*
X142474300Y-82723802D01*
X142469792Y-82720645D01*
X142469789Y-82720643D01*
X142313158Y-82610969D01*
X142286749Y-82592477D01*
X142281767Y-82590154D01*
X142281762Y-82590151D01*
X142247543Y-82574195D01*
X142194258Y-82527278D01*
X142174797Y-82459001D01*
X142195339Y-82391041D01*
X142247543Y-82345805D01*
X142281762Y-82329849D01*
X142281767Y-82329846D01*
X142286749Y-82327523D01*
X142391611Y-82254098D01*
X142469789Y-82199357D01*
X142469792Y-82199355D01*
X142474300Y-82196198D01*
X142636198Y-82034300D01*
X142658669Y-82002209D01*
X142764366Y-81851257D01*
X142767523Y-81846749D01*
X142769846Y-81841767D01*
X142769849Y-81841762D01*
X142861961Y-81644225D01*
X142861961Y-81644224D01*
X142864284Y-81639243D01*
X142870120Y-81617465D01*
X142922119Y-81423402D01*
X142922119Y-81423400D01*
X142923543Y-81418087D01*
X142943498Y-81190000D01*
X142923543Y-80961913D01*
X142906895Y-80899782D01*
X142865707Y-80746067D01*
X142865706Y-80746065D01*
X142864284Y-80740757D01*
X142856499Y-80724061D01*
X142769849Y-80538238D01*
X142769846Y-80538233D01*
X142767523Y-80533251D01*
X142636198Y-80345700D01*
X142474300Y-80183802D01*
X142469792Y-80180645D01*
X142469789Y-80180643D01*
X142297277Y-80059849D01*
X142286749Y-80052477D01*
X142281767Y-80050154D01*
X142281762Y-80050151D01*
X142247543Y-80034195D01*
X142194258Y-79987278D01*
X142174797Y-79919001D01*
X142195339Y-79851041D01*
X142247543Y-79805805D01*
X142281762Y-79789849D01*
X142281767Y-79789846D01*
X142286749Y-79787523D01*
X142391611Y-79714098D01*
X142469789Y-79659357D01*
X142469792Y-79659355D01*
X142474300Y-79656198D01*
X142636198Y-79494300D01*
X142648182Y-79477186D01*
X142697670Y-79406509D01*
X142767523Y-79306749D01*
X142769846Y-79301767D01*
X142769849Y-79301762D01*
X142861961Y-79104225D01*
X142861961Y-79104224D01*
X142864284Y-79099243D01*
X142881184Y-79036174D01*
X142912313Y-78920000D01*
X144686502Y-78920000D01*
X144706457Y-79148087D01*
X144707881Y-79153400D01*
X144707881Y-79153402D01*
X144750179Y-79311257D01*
X144765716Y-79369243D01*
X144768039Y-79374224D01*
X144768039Y-79374225D01*
X144860151Y-79571762D01*
X144860154Y-79571767D01*
X144862477Y-79576749D01*
X144993802Y-79764300D01*
X145155700Y-79926198D01*
X145160208Y-79929355D01*
X145160211Y-79929357D01*
X145183130Y-79945405D01*
X145343251Y-80057523D01*
X145348233Y-80059846D01*
X145348238Y-80059849D01*
X145545739Y-80151944D01*
X145550757Y-80154284D01*
X145556065Y-80155706D01*
X145556067Y-80155707D01*
X145766598Y-80212119D01*
X145766600Y-80212119D01*
X145771913Y-80213543D01*
X146000000Y-80233498D01*
X146228087Y-80213543D01*
X146233400Y-80212119D01*
X146233402Y-80212119D01*
X146443933Y-80155707D01*
X146443935Y-80155706D01*
X146449243Y-80154284D01*
X146454261Y-80151944D01*
X146651762Y-80059849D01*
X146651767Y-80059846D01*
X146656749Y-80057523D01*
X146816870Y-79945405D01*
X146839789Y-79929357D01*
X146839792Y-79929355D01*
X146844300Y-79926198D01*
X147006198Y-79764300D01*
X147137523Y-79576749D01*
X147139846Y-79571767D01*
X147139849Y-79571762D01*
X147231961Y-79374225D01*
X147231961Y-79374224D01*
X147234284Y-79369243D01*
X147249822Y-79311257D01*
X147292119Y-79153402D01*
X147292119Y-79153400D01*
X147293543Y-79148087D01*
X147313498Y-78920000D01*
X147293543Y-78691913D01*
X147292119Y-78686598D01*
X147235707Y-78476067D01*
X147235706Y-78476065D01*
X147234284Y-78470757D01*
X147230693Y-78463056D01*
X147139849Y-78268238D01*
X147139846Y-78268233D01*
X147137523Y-78263251D01*
X147044103Y-78129834D01*
X147009357Y-78080211D01*
X147009355Y-78080208D01*
X147006198Y-78075700D01*
X146844300Y-77913802D01*
X146839792Y-77910645D01*
X146839789Y-77910643D01*
X146687229Y-77803819D01*
X146642901Y-77748362D01*
X146633500Y-77700606D01*
X146633500Y-77299394D01*
X146653502Y-77231273D01*
X146687229Y-77196181D01*
X146839789Y-77089357D01*
X146839792Y-77089355D01*
X146844300Y-77086198D01*
X147006198Y-76924300D01*
X147018486Y-76906752D01*
X147113360Y-76771257D01*
X147137523Y-76736749D01*
X147139846Y-76731767D01*
X147139849Y-76731762D01*
X147231961Y-76534225D01*
X147231961Y-76534224D01*
X147234284Y-76529243D01*
X147285505Y-76338087D01*
X147292119Y-76313402D01*
X147292119Y-76313400D01*
X147293543Y-76308087D01*
X147313498Y-76080000D01*
X147293543Y-75851913D01*
X147291103Y-75842807D01*
X147235707Y-75636067D01*
X147235706Y-75636065D01*
X147234284Y-75630757D01*
X147190539Y-75536944D01*
X147139849Y-75428238D01*
X147139846Y-75428233D01*
X147137523Y-75423251D01*
X147030363Y-75270211D01*
X147009357Y-75240211D01*
X147009355Y-75240208D01*
X147006198Y-75235700D01*
X146844300Y-75073802D01*
X146839792Y-75070645D01*
X146839789Y-75070643D01*
X146704102Y-74975634D01*
X146656749Y-74942477D01*
X146651767Y-74940154D01*
X146651762Y-74940151D01*
X146454225Y-74848039D01*
X146454224Y-74848039D01*
X146449243Y-74845716D01*
X146443935Y-74844294D01*
X146443933Y-74844293D01*
X146233402Y-74787881D01*
X146233400Y-74787881D01*
X146228087Y-74786457D01*
X146000000Y-74766502D01*
X145771913Y-74786457D01*
X145766600Y-74787881D01*
X145766598Y-74787881D01*
X145556067Y-74844293D01*
X145556065Y-74844294D01*
X145550757Y-74845716D01*
X145545776Y-74848039D01*
X145545775Y-74848039D01*
X145348238Y-74940151D01*
X145348233Y-74940154D01*
X145343251Y-74942477D01*
X145295898Y-74975634D01*
X145160211Y-75070643D01*
X145160208Y-75070645D01*
X145155700Y-75073802D01*
X144993802Y-75235700D01*
X144990645Y-75240208D01*
X144990643Y-75240211D01*
X144969637Y-75270211D01*
X144862477Y-75423251D01*
X144860154Y-75428233D01*
X144860151Y-75428238D01*
X144809461Y-75536944D01*
X144765716Y-75630757D01*
X144764294Y-75636065D01*
X144764293Y-75636067D01*
X144708897Y-75842807D01*
X144706457Y-75851913D01*
X144686502Y-76080000D01*
X144706457Y-76308087D01*
X144707881Y-76313400D01*
X144707881Y-76313402D01*
X144714496Y-76338087D01*
X144765716Y-76529243D01*
X144768039Y-76534224D01*
X144768039Y-76534225D01*
X144860151Y-76731762D01*
X144860154Y-76731767D01*
X144862477Y-76736749D01*
X144886640Y-76771257D01*
X144981515Y-76906752D01*
X144993802Y-76924300D01*
X145155700Y-77086198D01*
X145160208Y-77089355D01*
X145160211Y-77089357D01*
X145312771Y-77196181D01*
X145357099Y-77251638D01*
X145366500Y-77299394D01*
X145366500Y-77700606D01*
X145346498Y-77768727D01*
X145312771Y-77803819D01*
X145160211Y-77910643D01*
X145160208Y-77910645D01*
X145155700Y-77913802D01*
X144993802Y-78075700D01*
X144990645Y-78080208D01*
X144990643Y-78080211D01*
X144955897Y-78129834D01*
X144862477Y-78263251D01*
X144860154Y-78268233D01*
X144860151Y-78268238D01*
X144769307Y-78463056D01*
X144765716Y-78470757D01*
X144764294Y-78476065D01*
X144764293Y-78476067D01*
X144707881Y-78686598D01*
X144706457Y-78691913D01*
X144686502Y-78920000D01*
X142912313Y-78920000D01*
X142922119Y-78883402D01*
X142922119Y-78883400D01*
X142923543Y-78878087D01*
X142943498Y-78650000D01*
X142923543Y-78421913D01*
X142897855Y-78326045D01*
X142865707Y-78206067D01*
X142865706Y-78206065D01*
X142864284Y-78200757D01*
X142861961Y-78195775D01*
X142769849Y-77998238D01*
X142769846Y-77998233D01*
X142767523Y-77993251D01*
X142636198Y-77805700D01*
X142474300Y-77643802D01*
X142469792Y-77640645D01*
X142469789Y-77640643D01*
X142337561Y-77548056D01*
X142286749Y-77512477D01*
X142281767Y-77510154D01*
X142281762Y-77510151D01*
X142247543Y-77494195D01*
X142194258Y-77447278D01*
X142174797Y-77379001D01*
X142195339Y-77311041D01*
X142247543Y-77265805D01*
X142281762Y-77249849D01*
X142281767Y-77249846D01*
X142286749Y-77247523D01*
X142463071Y-77124061D01*
X142469789Y-77119357D01*
X142469792Y-77119355D01*
X142474300Y-77116198D01*
X142636198Y-76954300D01*
X142657205Y-76924300D01*
X142764366Y-76771257D01*
X142767523Y-76766749D01*
X142769846Y-76761767D01*
X142769849Y-76761762D01*
X142861961Y-76564225D01*
X142861961Y-76564224D01*
X142864284Y-76559243D01*
X142873746Y-76523933D01*
X142922119Y-76343402D01*
X142922119Y-76343400D01*
X142923543Y-76338087D01*
X142943498Y-76110000D01*
X142923543Y-75881913D01*
X142916919Y-75857193D01*
X142865707Y-75666067D01*
X142865706Y-75666065D01*
X142864284Y-75660757D01*
X142807191Y-75538319D01*
X142769849Y-75458238D01*
X142769846Y-75458233D01*
X142767523Y-75453251D01*
X142636198Y-75265700D01*
X142474300Y-75103802D01*
X142469792Y-75100645D01*
X142469789Y-75100643D01*
X142391611Y-75045902D01*
X142286749Y-74972477D01*
X142281767Y-74970154D01*
X142281762Y-74970151D01*
X142247543Y-74954195D01*
X142194258Y-74907278D01*
X142174797Y-74839001D01*
X142195339Y-74771041D01*
X142247543Y-74725805D01*
X142281762Y-74709849D01*
X142281767Y-74709846D01*
X142286749Y-74707523D01*
X142399685Y-74628444D01*
X142469789Y-74579357D01*
X142469792Y-74579355D01*
X142474300Y-74576198D01*
X142636198Y-74414300D01*
X142767523Y-74226749D01*
X142769846Y-74221767D01*
X142769849Y-74221762D01*
X142861961Y-74024225D01*
X142861961Y-74024224D01*
X142864284Y-74019243D01*
X142881629Y-73954513D01*
X142922119Y-73803402D01*
X142922119Y-73803400D01*
X142923543Y-73798087D01*
X142943498Y-73570000D01*
X142923543Y-73341913D01*
X142864284Y-73120757D01*
X142861961Y-73115775D01*
X142769849Y-72918238D01*
X142769846Y-72918233D01*
X142767523Y-72913251D01*
X142636198Y-72725700D01*
X142474300Y-72563802D01*
X142469792Y-72560645D01*
X142469789Y-72560643D01*
X142391611Y-72505902D01*
X142286749Y-72432477D01*
X142281767Y-72430154D01*
X142281762Y-72430151D01*
X142247543Y-72414195D01*
X142194258Y-72367278D01*
X142174797Y-72299001D01*
X142195339Y-72231041D01*
X142247543Y-72185805D01*
X142281762Y-72169849D01*
X142281767Y-72169846D01*
X142286749Y-72167523D01*
X142391611Y-72094098D01*
X142469789Y-72039357D01*
X142469792Y-72039355D01*
X142474300Y-72036198D01*
X142636198Y-71874300D01*
X142639680Y-71869328D01*
X142753844Y-71706284D01*
X142767523Y-71686749D01*
X142769846Y-71681767D01*
X142769849Y-71681762D01*
X142861961Y-71484225D01*
X142861961Y-71484224D01*
X142864284Y-71479243D01*
X142923543Y-71258087D01*
X142943498Y-71030000D01*
X142931961Y-70898134D01*
X149991500Y-70898134D01*
X149998255Y-70960316D01*
X150049385Y-71096705D01*
X150136739Y-71213261D01*
X150253295Y-71300615D01*
X150389684Y-71351745D01*
X150451866Y-71358500D01*
X152348134Y-71358500D01*
X152410316Y-71351745D01*
X152546705Y-71300615D01*
X152663261Y-71213261D01*
X152750615Y-71096705D01*
X152801745Y-70960316D01*
X152808500Y-70898134D01*
X161191500Y-70898134D01*
X161198255Y-70960316D01*
X161249385Y-71096705D01*
X161336739Y-71213261D01*
X161453295Y-71300615D01*
X161589684Y-71351745D01*
X161651866Y-71358500D01*
X163548134Y-71358500D01*
X163610316Y-71351745D01*
X163746705Y-71300615D01*
X163863261Y-71213261D01*
X163950615Y-71096705D01*
X164001745Y-70960316D01*
X164008500Y-70898134D01*
X164008500Y-69801866D01*
X164001745Y-69739684D01*
X163950615Y-69603295D01*
X163863261Y-69486739D01*
X163746705Y-69399385D01*
X163610316Y-69348255D01*
X163548134Y-69341500D01*
X161651866Y-69341500D01*
X161589684Y-69348255D01*
X161453295Y-69399385D01*
X161336739Y-69486739D01*
X161249385Y-69603295D01*
X161198255Y-69739684D01*
X161191500Y-69801866D01*
X161191500Y-70898134D01*
X152808500Y-70898134D01*
X152808500Y-69801866D01*
X152801745Y-69739684D01*
X152750615Y-69603295D01*
X152663261Y-69486739D01*
X152546705Y-69399385D01*
X152410316Y-69348255D01*
X152348134Y-69341500D01*
X150451866Y-69341500D01*
X150389684Y-69348255D01*
X150253295Y-69399385D01*
X150136739Y-69486739D01*
X150049385Y-69603295D01*
X149998255Y-69739684D01*
X149991500Y-69801866D01*
X149991500Y-70898134D01*
X142931961Y-70898134D01*
X142923543Y-70801913D01*
X142864284Y-70580757D01*
X142861961Y-70575775D01*
X142769849Y-70378238D01*
X142769846Y-70378233D01*
X142767523Y-70373251D01*
X142636198Y-70185700D01*
X142474300Y-70023802D01*
X142469792Y-70020645D01*
X142469789Y-70020643D01*
X142391611Y-69965902D01*
X142286749Y-69892477D01*
X142281767Y-69890154D01*
X142281762Y-69890151D01*
X142084225Y-69798039D01*
X142084224Y-69798039D01*
X142079243Y-69795716D01*
X142073935Y-69794294D01*
X142073933Y-69794293D01*
X141863402Y-69737881D01*
X141863400Y-69737881D01*
X141858087Y-69736457D01*
X141630000Y-69716502D01*
X141401913Y-69736457D01*
X141396600Y-69737881D01*
X141396598Y-69737881D01*
X141186067Y-69794293D01*
X141186065Y-69794294D01*
X141180757Y-69795716D01*
X141175776Y-69798039D01*
X141175775Y-69798039D01*
X140978238Y-69890151D01*
X140978233Y-69890154D01*
X140973251Y-69892477D01*
X140868389Y-69965902D01*
X140790211Y-70020643D01*
X140790208Y-70020645D01*
X140785700Y-70023802D01*
X140623802Y-70185700D01*
X140492477Y-70373251D01*
X140490154Y-70378233D01*
X140490151Y-70378238D01*
X140398039Y-70575775D01*
X140395716Y-70580757D01*
X140336457Y-70801913D01*
X140316502Y-71030000D01*
X140336457Y-71258087D01*
X140395716Y-71479243D01*
X140398039Y-71484224D01*
X140398039Y-71484225D01*
X140490151Y-71681762D01*
X140490154Y-71681767D01*
X140492477Y-71686749D01*
X140506156Y-71706284D01*
X140620321Y-71869328D01*
X140623802Y-71874300D01*
X140785700Y-72036198D01*
X140790208Y-72039355D01*
X140790211Y-72039357D01*
X140868389Y-72094098D01*
X140973251Y-72167523D01*
X140978233Y-72169846D01*
X140978238Y-72169849D01*
X141012457Y-72185805D01*
X141065742Y-72232722D01*
X141085203Y-72300999D01*
X141064661Y-72368959D01*
X141012457Y-72414195D01*
X140978238Y-72430151D01*
X140978233Y-72430154D01*
X140973251Y-72432477D01*
X140868389Y-72505902D01*
X140790211Y-72560643D01*
X140790208Y-72560645D01*
X140785700Y-72563802D01*
X140623802Y-72725700D01*
X140620645Y-72730208D01*
X140620643Y-72730211D01*
X140566335Y-72807771D01*
X140510878Y-72852099D01*
X140463122Y-72861500D01*
X138415660Y-72861500D01*
X138347539Y-72841498D01*
X138326565Y-72824595D01*
X136745405Y-71243435D01*
X136711379Y-71181123D01*
X136708500Y-71154340D01*
X136708500Y-65950000D01*
X140316502Y-65950000D01*
X140336457Y-66178087D01*
X140337881Y-66183400D01*
X140337881Y-66183402D01*
X140386255Y-66363933D01*
X140395716Y-66399243D01*
X140398039Y-66404224D01*
X140398039Y-66404225D01*
X140490151Y-66601762D01*
X140490154Y-66601767D01*
X140492477Y-66606749D01*
X140495634Y-66611257D01*
X140602796Y-66764300D01*
X140623802Y-66794300D01*
X140785700Y-66956198D01*
X140790208Y-66959355D01*
X140790211Y-66959357D01*
X140831542Y-66988297D01*
X140973251Y-67087523D01*
X140978233Y-67089846D01*
X140978238Y-67089849D01*
X141175775Y-67181961D01*
X141180757Y-67184284D01*
X141186065Y-67185706D01*
X141186067Y-67185707D01*
X141396598Y-67242119D01*
X141396600Y-67242119D01*
X141401913Y-67243543D01*
X141630000Y-67263498D01*
X141858087Y-67243543D01*
X141863400Y-67242119D01*
X141863402Y-67242119D01*
X142073933Y-67185707D01*
X142073935Y-67185706D01*
X142079243Y-67184284D01*
X142084225Y-67181961D01*
X142281762Y-67089849D01*
X142281767Y-67089846D01*
X142286749Y-67087523D01*
X142428458Y-66988297D01*
X142469789Y-66959357D01*
X142469792Y-66959355D01*
X142474300Y-66956198D01*
X142636198Y-66794300D01*
X142657205Y-66764300D01*
X142764366Y-66611257D01*
X142767523Y-66606749D01*
X142769846Y-66601767D01*
X142769849Y-66601762D01*
X142861961Y-66404225D01*
X142861961Y-66404224D01*
X142864284Y-66399243D01*
X142873746Y-66363933D01*
X142922119Y-66183402D01*
X142922119Y-66183400D01*
X142923543Y-66178087D01*
X142943498Y-65950000D01*
X142940873Y-65920000D01*
X144686502Y-65920000D01*
X144706457Y-66148087D01*
X144707881Y-66153400D01*
X144707881Y-66153402D01*
X144714496Y-66178087D01*
X144765716Y-66369243D01*
X144768039Y-66374224D01*
X144768039Y-66374225D01*
X144860151Y-66571762D01*
X144860154Y-66571767D01*
X144862477Y-66576749D01*
X144993802Y-66764300D01*
X145155700Y-66926198D01*
X145160208Y-66929355D01*
X145160211Y-66929357D01*
X145192979Y-66952301D01*
X145343251Y-67057523D01*
X145348233Y-67059846D01*
X145348238Y-67059849D01*
X145545775Y-67151961D01*
X145550757Y-67154284D01*
X145556065Y-67155706D01*
X145556067Y-67155707D01*
X145766598Y-67212119D01*
X145766600Y-67212119D01*
X145771913Y-67213543D01*
X146000000Y-67233498D01*
X146228087Y-67213543D01*
X146233400Y-67212119D01*
X146233402Y-67212119D01*
X146443933Y-67155707D01*
X146443935Y-67155706D01*
X146449243Y-67154284D01*
X146454225Y-67151961D01*
X146651762Y-67059849D01*
X146651767Y-67059846D01*
X146656749Y-67057523D01*
X146807021Y-66952301D01*
X146839789Y-66929357D01*
X146839792Y-66929355D01*
X146844300Y-66926198D01*
X147006198Y-66764300D01*
X147137523Y-66576749D01*
X147139846Y-66571767D01*
X147139849Y-66571762D01*
X147231961Y-66374225D01*
X147231961Y-66374224D01*
X147234284Y-66369243D01*
X147285505Y-66178087D01*
X147292119Y-66153402D01*
X147292119Y-66153400D01*
X147293543Y-66148087D01*
X147313498Y-65920000D01*
X147293543Y-65691913D01*
X147292119Y-65686598D01*
X147235707Y-65476067D01*
X147235706Y-65476065D01*
X147234284Y-65470757D01*
X147153838Y-65298238D01*
X147139849Y-65268238D01*
X147139846Y-65268233D01*
X147137523Y-65263251D01*
X147030363Y-65110211D01*
X147009357Y-65080211D01*
X147009355Y-65080208D01*
X147006198Y-65075700D01*
X146844300Y-64913802D01*
X146839792Y-64910645D01*
X146839789Y-64910643D01*
X146696271Y-64810151D01*
X146656749Y-64782477D01*
X146651767Y-64780154D01*
X146651762Y-64780151D01*
X146454225Y-64688039D01*
X146454224Y-64688039D01*
X146449243Y-64685716D01*
X146443935Y-64684294D01*
X146443933Y-64684293D01*
X146233402Y-64627881D01*
X146233400Y-64627881D01*
X146228087Y-64626457D01*
X146000000Y-64606502D01*
X145771913Y-64626457D01*
X145766600Y-64627881D01*
X145766598Y-64627881D01*
X145556067Y-64684293D01*
X145556065Y-64684294D01*
X145550757Y-64685716D01*
X145545776Y-64688039D01*
X145545775Y-64688039D01*
X145348238Y-64780151D01*
X145348233Y-64780154D01*
X145343251Y-64782477D01*
X145303729Y-64810151D01*
X145160211Y-64910643D01*
X145160208Y-64910645D01*
X145155700Y-64913802D01*
X144993802Y-65075700D01*
X144990645Y-65080208D01*
X144990643Y-65080211D01*
X144969637Y-65110211D01*
X144862477Y-65263251D01*
X144860154Y-65268233D01*
X144860151Y-65268238D01*
X144846162Y-65298238D01*
X144765716Y-65470757D01*
X144764294Y-65476065D01*
X144764293Y-65476067D01*
X144707881Y-65686598D01*
X144706457Y-65691913D01*
X144686502Y-65920000D01*
X142940873Y-65920000D01*
X142923543Y-65721913D01*
X142916973Y-65697393D01*
X142865707Y-65506067D01*
X142865706Y-65506065D01*
X142864284Y-65500757D01*
X142847972Y-65465775D01*
X142769849Y-65298238D01*
X142769846Y-65298233D01*
X142767523Y-65293251D01*
X142636198Y-65105700D01*
X142474300Y-64943802D01*
X142469792Y-64940645D01*
X142469789Y-64940643D01*
X142391611Y-64885902D01*
X142286749Y-64812477D01*
X142281767Y-64810154D01*
X142281762Y-64810151D01*
X142084225Y-64718039D01*
X142084224Y-64718039D01*
X142079243Y-64715716D01*
X142073935Y-64714294D01*
X142073933Y-64714293D01*
X141863402Y-64657881D01*
X141863400Y-64657881D01*
X141858087Y-64656457D01*
X141630000Y-64636502D01*
X141401913Y-64656457D01*
X141396600Y-64657881D01*
X141396598Y-64657881D01*
X141186067Y-64714293D01*
X141186065Y-64714294D01*
X141180757Y-64715716D01*
X141175776Y-64718039D01*
X141175775Y-64718039D01*
X140978238Y-64810151D01*
X140978233Y-64810154D01*
X140973251Y-64812477D01*
X140868389Y-64885902D01*
X140790211Y-64940643D01*
X140790208Y-64940645D01*
X140785700Y-64943802D01*
X140623802Y-65105700D01*
X140492477Y-65293251D01*
X140490154Y-65298233D01*
X140490151Y-65298238D01*
X140412028Y-65465775D01*
X140395716Y-65500757D01*
X140394294Y-65506065D01*
X140394293Y-65506067D01*
X140343027Y-65697393D01*
X140336457Y-65721913D01*
X140316502Y-65950000D01*
X136708500Y-65950000D01*
X136708500Y-62845660D01*
X136728502Y-62777539D01*
X136745405Y-62756565D01*
X137756566Y-61745405D01*
X137818878Y-61711379D01*
X137845661Y-61708500D01*
X144034206Y-61708500D01*
X144102327Y-61728502D01*
X144148820Y-61782158D01*
X144158452Y-61814253D01*
X144158723Y-61817953D01*
X144208609Y-62024944D01*
X144295380Y-62219378D01*
X144416131Y-62394744D01*
X144420218Y-62398824D01*
X144420219Y-62398825D01*
X144562730Y-62541089D01*
X144562735Y-62541093D01*
X144566817Y-62545168D01*
X144742393Y-62665613D01*
X144839686Y-62708828D01*
X144931701Y-62749700D01*
X144931705Y-62749701D01*
X144936979Y-62752044D01*
X144942600Y-62753388D01*
X144942599Y-62753388D01*
X145139059Y-62800373D01*
X145139063Y-62800374D01*
X145144057Y-62801568D01*
X145180285Y-62804165D01*
X145238513Y-62808339D01*
X145238521Y-62808339D01*
X145240763Y-62808500D01*
X145953543Y-62808500D01*
X146679236Y-62808499D01*
X146681529Y-62808331D01*
X146681536Y-62808331D01*
X146772818Y-62801653D01*
X146772822Y-62801652D01*
X146777953Y-62801277D01*
X146984944Y-62751391D01*
X147179378Y-62664620D01*
X147184133Y-62661346D01*
X147349988Y-62547144D01*
X147349989Y-62547143D01*
X147354744Y-62543869D01*
X147381175Y-62517392D01*
X147501089Y-62397270D01*
X147501093Y-62397265D01*
X147505168Y-62393183D01*
X147625613Y-62217607D01*
X147708845Y-62030223D01*
X147709700Y-62028299D01*
X147709701Y-62028295D01*
X147712044Y-62023021D01*
X147761568Y-61815943D01*
X147768500Y-61719237D01*
X147768499Y-60280764D01*
X147765959Y-60246039D01*
X147761653Y-60187182D01*
X147761652Y-60187178D01*
X147761277Y-60182047D01*
X147711391Y-59975056D01*
X147624620Y-59780622D01*
X147587767Y-59727100D01*
X147507144Y-59610012D01*
X147507143Y-59610011D01*
X147503869Y-59605256D01*
X147499781Y-59601175D01*
X147440781Y-59542277D01*
X160637009Y-59542277D01*
X160662625Y-59810769D01*
X160663710Y-59815203D01*
X160663711Y-59815209D01*
X160709588Y-60002692D01*
X160726731Y-60072750D01*
X160827985Y-60322733D01*
X160964265Y-60555482D01*
X160967118Y-60559049D01*
X161084686Y-60706060D01*
X161132716Y-60766119D01*
X161329809Y-60950234D01*
X161551416Y-61103968D01*
X161555499Y-61105999D01*
X161555502Y-61106001D01*
X161671013Y-61163466D01*
X161792894Y-61224101D01*
X161797228Y-61225522D01*
X161797231Y-61225523D01*
X162044853Y-61306698D01*
X162044859Y-61306699D01*
X162049186Y-61308118D01*
X162053677Y-61308898D01*
X162053678Y-61308898D01*
X162311140Y-61353601D01*
X162311148Y-61353602D01*
X162314921Y-61354257D01*
X162318758Y-61354448D01*
X162398578Y-61358422D01*
X162398586Y-61358422D01*
X162400149Y-61358500D01*
X162568512Y-61358500D01*
X162570780Y-61358335D01*
X162570792Y-61358335D01*
X162701884Y-61348823D01*
X162769004Y-61343953D01*
X162773459Y-61342969D01*
X162773462Y-61342969D01*
X163027912Y-61286791D01*
X163027916Y-61286790D01*
X163032372Y-61285806D01*
X163158480Y-61238028D01*
X163280318Y-61191868D01*
X163280321Y-61191867D01*
X163284588Y-61190250D01*
X163520368Y-61059286D01*
X163734773Y-60895657D01*
X163923312Y-60702792D01*
X164082034Y-60484730D01*
X164165190Y-60326676D01*
X164205490Y-60250079D01*
X164205493Y-60250073D01*
X164207615Y-60246039D01*
X164229504Y-60184057D01*
X164295902Y-59996033D01*
X164295902Y-59996032D01*
X164297425Y-59991720D01*
X164349581Y-59727100D01*
X164355647Y-59605256D01*
X164362764Y-59462292D01*
X164362764Y-59462286D01*
X164362991Y-59457723D01*
X164337375Y-59189231D01*
X164292042Y-59003967D01*
X164274355Y-58931688D01*
X164273269Y-58927250D01*
X164172015Y-58677267D01*
X164035735Y-58444518D01*
X163917928Y-58297208D01*
X163870136Y-58237447D01*
X163870135Y-58237445D01*
X163867284Y-58233881D01*
X163670191Y-58049766D01*
X163448584Y-57896032D01*
X163444501Y-57894001D01*
X163444498Y-57893999D01*
X163279606Y-57811967D01*
X163207106Y-57775899D01*
X163202772Y-57774478D01*
X163202769Y-57774477D01*
X162955147Y-57693302D01*
X162955141Y-57693301D01*
X162950814Y-57691882D01*
X162946322Y-57691102D01*
X162688860Y-57646399D01*
X162688852Y-57646398D01*
X162685079Y-57645743D01*
X162673817Y-57645182D01*
X162601422Y-57641578D01*
X162601414Y-57641578D01*
X162599851Y-57641500D01*
X162431488Y-57641500D01*
X162429220Y-57641665D01*
X162429208Y-57641665D01*
X162298116Y-57651177D01*
X162230996Y-57656047D01*
X162226541Y-57657031D01*
X162226538Y-57657031D01*
X161972088Y-57713209D01*
X161972084Y-57713210D01*
X161967628Y-57714194D01*
X161841520Y-57761972D01*
X161719682Y-57808132D01*
X161719679Y-57808133D01*
X161715412Y-57809750D01*
X161479632Y-57940714D01*
X161265227Y-58104343D01*
X161076688Y-58297208D01*
X160917966Y-58515270D01*
X160915844Y-58519304D01*
X160794510Y-58749921D01*
X160794507Y-58749927D01*
X160792385Y-58753961D01*
X160790865Y-58758266D01*
X160790863Y-58758270D01*
X160704098Y-59003967D01*
X160702575Y-59008280D01*
X160701692Y-59012762D01*
X160655207Y-59248609D01*
X160650419Y-59272900D01*
X160650192Y-59277453D01*
X160650192Y-59277456D01*
X160640991Y-59462292D01*
X160637009Y-59542277D01*
X147440781Y-59542277D01*
X147357270Y-59458911D01*
X147357265Y-59458907D01*
X147353183Y-59454832D01*
X147177607Y-59334387D01*
X147029111Y-59268428D01*
X146988299Y-59250300D01*
X146988295Y-59250299D01*
X146983021Y-59247956D01*
X146945753Y-59239043D01*
X146780941Y-59199627D01*
X146780937Y-59199626D01*
X146775943Y-59198432D01*
X146739715Y-59195835D01*
X146681487Y-59191661D01*
X146681479Y-59191661D01*
X146679237Y-59191500D01*
X145966457Y-59191500D01*
X145240764Y-59191501D01*
X145238471Y-59191669D01*
X145238464Y-59191669D01*
X145147182Y-59198347D01*
X145147178Y-59198348D01*
X145142047Y-59198723D01*
X144935056Y-59248609D01*
X144740622Y-59335380D01*
X144735868Y-59338653D01*
X144735867Y-59338654D01*
X144571886Y-59451566D01*
X144565256Y-59456131D01*
X144561176Y-59460218D01*
X144561175Y-59460219D01*
X144418911Y-59602730D01*
X144418907Y-59602735D01*
X144414832Y-59606817D01*
X144294387Y-59782393D01*
X144292043Y-59787671D01*
X144220581Y-59948556D01*
X144174648Y-60002692D01*
X144106739Y-60023401D01*
X144038414Y-60004108D01*
X143991366Y-59950939D01*
X143979429Y-59897408D01*
X143979429Y-57559500D01*
X143974110Y-57559500D01*
X143971173Y-57549498D01*
X143971173Y-57478502D01*
X144009557Y-57418776D01*
X144074137Y-57389282D01*
X144092069Y-57388000D01*
X165036000Y-57388000D01*
X165104121Y-57408002D01*
X165150614Y-57461658D01*
X165162000Y-57514000D01*
X165162000Y-104449584D01*
X165141998Y-104517705D01*
X165088342Y-104564198D01*
X165018068Y-104574302D01*
X164953488Y-104544808D01*
X164916167Y-104488520D01*
X164838182Y-104248507D01*
X164838182Y-104248506D01*
X164836956Y-104244734D01*
X164835267Y-104241144D01*
X164704250Y-103962717D01*
X164704246Y-103962710D01*
X164702562Y-103959131D01*
X164533432Y-103692625D01*
X164332233Y-103449418D01*
X164102140Y-103233346D01*
X163846779Y-103047816D01*
X163570179Y-102895753D01*
X163566510Y-102894300D01*
X163566505Y-102894298D01*
X163280372Y-102781010D01*
X163280371Y-102781010D01*
X163276702Y-102779557D01*
X162970975Y-102701060D01*
X162657821Y-102661500D01*
X162342179Y-102661500D01*
X162029025Y-102701060D01*
X161723298Y-102779557D01*
X161719629Y-102781010D01*
X161719628Y-102781010D01*
X161433495Y-102894298D01*
X161433490Y-102894300D01*
X161429821Y-102895753D01*
X161153221Y-103047816D01*
X160897860Y-103233346D01*
X160667767Y-103449418D01*
X160466568Y-103692625D01*
X160297438Y-103959131D01*
X160295754Y-103962710D01*
X160295750Y-103962717D01*
X160164733Y-104241144D01*
X160163044Y-104244734D01*
X160065505Y-104544928D01*
X160006359Y-104854980D01*
X159986540Y-105170000D01*
X160006359Y-105485020D01*
X160065505Y-105795072D01*
X160163044Y-106095266D01*
X160164731Y-106098852D01*
X160164733Y-106098856D01*
X160295750Y-106377283D01*
X160295754Y-106377290D01*
X160297438Y-106380869D01*
X160466568Y-106647375D01*
X160667767Y-106890582D01*
X160897860Y-107106654D01*
X161153221Y-107292184D01*
X161429821Y-107444247D01*
X161433490Y-107445700D01*
X161433495Y-107445702D01*
X161719628Y-107558990D01*
X161723298Y-107560443D01*
X162029025Y-107638940D01*
X162342179Y-107678500D01*
X162657821Y-107678500D01*
X162970975Y-107638940D01*
X163276702Y-107560443D01*
X163280372Y-107558990D01*
X163566505Y-107445702D01*
X163566510Y-107445700D01*
X163570179Y-107444247D01*
X163846779Y-107292184D01*
X164102140Y-107106654D01*
X164332233Y-106890582D01*
X164533432Y-106647375D01*
X164702562Y-106380869D01*
X164704246Y-106377290D01*
X164704250Y-106377283D01*
X164835267Y-106098856D01*
X164835269Y-106098852D01*
X164836956Y-106095266D01*
X164916167Y-105851480D01*
X164956240Y-105792874D01*
X165021637Y-105765237D01*
X165091594Y-105777344D01*
X165143900Y-105825350D01*
X165162000Y-105890416D01*
X165162000Y-108366000D01*
X165141998Y-108434121D01*
X165088342Y-108480614D01*
X165036000Y-108492000D01*
X124464000Y-108492000D01*
X124395879Y-108471998D01*
X124349386Y-108418342D01*
X124338000Y-108366000D01*
X124338000Y-105170000D01*
X143986540Y-105170000D01*
X144006359Y-105485020D01*
X144065505Y-105795072D01*
X144163044Y-106095266D01*
X144164731Y-106098852D01*
X144164733Y-106098856D01*
X144295750Y-106377283D01*
X144295754Y-106377290D01*
X144297438Y-106380869D01*
X144466568Y-106647375D01*
X144667767Y-106890582D01*
X144897860Y-107106654D01*
X145153221Y-107292184D01*
X145429821Y-107444247D01*
X145433490Y-107445700D01*
X145433495Y-107445702D01*
X145719628Y-107558990D01*
X145723298Y-107560443D01*
X146029025Y-107638940D01*
X146342179Y-107678500D01*
X146657821Y-107678500D01*
X146970975Y-107638940D01*
X147276702Y-107560443D01*
X147280372Y-107558990D01*
X147566505Y-107445702D01*
X147566510Y-107445700D01*
X147570179Y-107444247D01*
X147846779Y-107292184D01*
X148102140Y-107106654D01*
X148332233Y-106890582D01*
X148533432Y-106647375D01*
X148702562Y-106380869D01*
X148704246Y-106377290D01*
X148704250Y-106377283D01*
X148835267Y-106098856D01*
X148835269Y-106098852D01*
X148836956Y-106095266D01*
X148934495Y-105795072D01*
X148993641Y-105485020D01*
X149013460Y-105170000D01*
X148993641Y-104854980D01*
X148934495Y-104544928D01*
X148836956Y-104244734D01*
X148835267Y-104241144D01*
X148704250Y-103962717D01*
X148704246Y-103962710D01*
X148702562Y-103959131D01*
X148533432Y-103692625D01*
X148332233Y-103449418D01*
X148102140Y-103233346D01*
X147846779Y-103047816D01*
X147570179Y-102895753D01*
X147566510Y-102894300D01*
X147566505Y-102894298D01*
X147280372Y-102781010D01*
X147280371Y-102781010D01*
X147276702Y-102779557D01*
X146970975Y-102701060D01*
X146657821Y-102661500D01*
X146342179Y-102661500D01*
X146029025Y-102701060D01*
X145723298Y-102779557D01*
X145719629Y-102781010D01*
X145719628Y-102781010D01*
X145433495Y-102894298D01*
X145433490Y-102894300D01*
X145429821Y-102895753D01*
X145153221Y-103047816D01*
X144897860Y-103233346D01*
X144667767Y-103449418D01*
X144466568Y-103692625D01*
X144297438Y-103959131D01*
X144295754Y-103962710D01*
X144295750Y-103962717D01*
X144164733Y-104241144D01*
X144163044Y-104244734D01*
X144065505Y-104544928D01*
X144006359Y-104854980D01*
X143986540Y-105170000D01*
X124338000Y-105170000D01*
X124338000Y-101510000D01*
X125076502Y-101510000D01*
X125096457Y-101738087D01*
X125155716Y-101959243D01*
X125158039Y-101964224D01*
X125158039Y-101964225D01*
X125250151Y-102161762D01*
X125250154Y-102161767D01*
X125252477Y-102166749D01*
X125383802Y-102354300D01*
X125545700Y-102516198D01*
X125550208Y-102519355D01*
X125550211Y-102519357D01*
X125628389Y-102574098D01*
X125733251Y-102647523D01*
X125738233Y-102649846D01*
X125738238Y-102649849D01*
X125935775Y-102741961D01*
X125940757Y-102744284D01*
X125946065Y-102745706D01*
X125946067Y-102745707D01*
X126156598Y-102802119D01*
X126156600Y-102802119D01*
X126161913Y-102803543D01*
X126390000Y-102823498D01*
X126618087Y-102803543D01*
X126623400Y-102802119D01*
X126623402Y-102802119D01*
X126833933Y-102745707D01*
X126833935Y-102745706D01*
X126839243Y-102744284D01*
X126844225Y-102741961D01*
X127041762Y-102649849D01*
X127041767Y-102649846D01*
X127046749Y-102647523D01*
X127151611Y-102574098D01*
X127229789Y-102519357D01*
X127229792Y-102519355D01*
X127234300Y-102516198D01*
X127396198Y-102354300D01*
X127527523Y-102166749D01*
X127529846Y-102161767D01*
X127529849Y-102161762D01*
X127621961Y-101964225D01*
X127621961Y-101964224D01*
X127624284Y-101959243D01*
X127683543Y-101738087D01*
X127703498Y-101510000D01*
X127683543Y-101281913D01*
X127624284Y-101060757D01*
X127621961Y-101055775D01*
X127529849Y-100858238D01*
X127529846Y-100858233D01*
X127527523Y-100853251D01*
X127396198Y-100665700D01*
X127234300Y-100503802D01*
X127229792Y-100500645D01*
X127229789Y-100500643D01*
X127151611Y-100445902D01*
X127046749Y-100372477D01*
X127041767Y-100370154D01*
X127041762Y-100370151D01*
X127007543Y-100354195D01*
X126954258Y-100307278D01*
X126934797Y-100239001D01*
X126955339Y-100171041D01*
X127007543Y-100125805D01*
X127041762Y-100109849D01*
X127041767Y-100109846D01*
X127046749Y-100107523D01*
X127151611Y-100034098D01*
X127229789Y-99979357D01*
X127229792Y-99979355D01*
X127234300Y-99976198D01*
X127396198Y-99814300D01*
X127527523Y-99626749D01*
X127529846Y-99621767D01*
X127529849Y-99621762D01*
X127621961Y-99424225D01*
X127621961Y-99424224D01*
X127624284Y-99419243D01*
X127683543Y-99198087D01*
X127703498Y-98970000D01*
X127683543Y-98741913D01*
X127624284Y-98520757D01*
X127621961Y-98515775D01*
X127529849Y-98318238D01*
X127529846Y-98318233D01*
X127527523Y-98313251D01*
X127396198Y-98125700D01*
X127234300Y-97963802D01*
X127229792Y-97960645D01*
X127229789Y-97960643D01*
X127151611Y-97905902D01*
X127046749Y-97832477D01*
X127041767Y-97830154D01*
X127041762Y-97830151D01*
X127007543Y-97814195D01*
X126954258Y-97767278D01*
X126934797Y-97699001D01*
X126955339Y-97631041D01*
X127007543Y-97585805D01*
X127041762Y-97569849D01*
X127041767Y-97569846D01*
X127046749Y-97567523D01*
X127151611Y-97494098D01*
X127229789Y-97439357D01*
X127229792Y-97439355D01*
X127234300Y-97436198D01*
X127396198Y-97274300D01*
X127527523Y-97086749D01*
X127529846Y-97081767D01*
X127529849Y-97081762D01*
X127621961Y-96884225D01*
X127621961Y-96884224D01*
X127624284Y-96879243D01*
X127683543Y-96658087D01*
X127703498Y-96430000D01*
X127683543Y-96201913D01*
X127624284Y-95980757D01*
X127621961Y-95975775D01*
X127529849Y-95778238D01*
X127529846Y-95778233D01*
X127527523Y-95773251D01*
X127396198Y-95585700D01*
X127234300Y-95423802D01*
X127229792Y-95420645D01*
X127229789Y-95420643D01*
X127151611Y-95365902D01*
X127046749Y-95292477D01*
X127041767Y-95290154D01*
X127041762Y-95290151D01*
X127007543Y-95274195D01*
X126954258Y-95227278D01*
X126934797Y-95159001D01*
X126955339Y-95091041D01*
X127007543Y-95045805D01*
X127041762Y-95029849D01*
X127041767Y-95029846D01*
X127046749Y-95027523D01*
X127151611Y-94954098D01*
X127229789Y-94899357D01*
X127229792Y-94899355D01*
X127234300Y-94896198D01*
X127396198Y-94734300D01*
X127527523Y-94546749D01*
X127529846Y-94541767D01*
X127529849Y-94541762D01*
X127621961Y-94344225D01*
X127621961Y-94344224D01*
X127624284Y-94339243D01*
X127653520Y-94230136D01*
X127682119Y-94123402D01*
X127682119Y-94123400D01*
X127683543Y-94118087D01*
X127703498Y-93890000D01*
X127683543Y-93661913D01*
X127682119Y-93656598D01*
X127625707Y-93446067D01*
X127625706Y-93446065D01*
X127624284Y-93440757D01*
X127621961Y-93435775D01*
X127529849Y-93238238D01*
X127529846Y-93238233D01*
X127527523Y-93233251D01*
X127396198Y-93045700D01*
X127234300Y-92883802D01*
X127229792Y-92880645D01*
X127229789Y-92880643D01*
X127127218Y-92808822D01*
X127046749Y-92752477D01*
X127041767Y-92750154D01*
X127041762Y-92750151D01*
X127007543Y-92734195D01*
X126954258Y-92687278D01*
X126934797Y-92619001D01*
X126955339Y-92551041D01*
X127007543Y-92505805D01*
X127041762Y-92489849D01*
X127041767Y-92489846D01*
X127046749Y-92487523D01*
X127195882Y-92383099D01*
X127229789Y-92359357D01*
X127229792Y-92359355D01*
X127234300Y-92356198D01*
X127396198Y-92194300D01*
X127527523Y-92006749D01*
X127529846Y-92001767D01*
X127529849Y-92001762D01*
X127621961Y-91804225D01*
X127621961Y-91804224D01*
X127624284Y-91799243D01*
X127683543Y-91578087D01*
X127703498Y-91350000D01*
X127683543Y-91121913D01*
X127682119Y-91116598D01*
X127625707Y-90906067D01*
X127625706Y-90906065D01*
X127624284Y-90900757D01*
X127615177Y-90881226D01*
X127529849Y-90698238D01*
X127529846Y-90698233D01*
X127527523Y-90693251D01*
X127396198Y-90505700D01*
X127234300Y-90343802D01*
X127229792Y-90340645D01*
X127229789Y-90340643D01*
X127151611Y-90285902D01*
X127046749Y-90212477D01*
X127041767Y-90210154D01*
X127041762Y-90210151D01*
X127007543Y-90194195D01*
X126954258Y-90147278D01*
X126934797Y-90079001D01*
X126955339Y-90011041D01*
X127007543Y-89965805D01*
X127041762Y-89949849D01*
X127041767Y-89949846D01*
X127046749Y-89947523D01*
X127151611Y-89874098D01*
X127229789Y-89819357D01*
X127229792Y-89819355D01*
X127234300Y-89816198D01*
X127396198Y-89654300D01*
X127527523Y-89466749D01*
X127529846Y-89461767D01*
X127529849Y-89461762D01*
X127621961Y-89264225D01*
X127621961Y-89264224D01*
X127624284Y-89259243D01*
X127683543Y-89038087D01*
X127703498Y-88810000D01*
X127683543Y-88581913D01*
X127624284Y-88360757D01*
X127616545Y-88344160D01*
X127529849Y-88158238D01*
X127529846Y-88158233D01*
X127527523Y-88153251D01*
X127454098Y-88048389D01*
X127399357Y-87970211D01*
X127399355Y-87970208D01*
X127396198Y-87965700D01*
X127234300Y-87803802D01*
X127229792Y-87800645D01*
X127229789Y-87800643D01*
X127130835Y-87731355D01*
X127046749Y-87672477D01*
X127041767Y-87670154D01*
X127041762Y-87670151D01*
X127007543Y-87654195D01*
X126954258Y-87607278D01*
X126934797Y-87539001D01*
X126955339Y-87471041D01*
X127007543Y-87425805D01*
X127041762Y-87409849D01*
X127041767Y-87409846D01*
X127046749Y-87407523D01*
X127160578Y-87327819D01*
X127229789Y-87279357D01*
X127229792Y-87279355D01*
X127234300Y-87276198D01*
X127396198Y-87114300D01*
X127404001Y-87103157D01*
X127503063Y-86961681D01*
X127527523Y-86926749D01*
X127529846Y-86921767D01*
X127529849Y-86921762D01*
X127621961Y-86724225D01*
X127621961Y-86724224D01*
X127624284Y-86719243D01*
X127639823Y-86661253D01*
X127682119Y-86503402D01*
X127682119Y-86503400D01*
X127683543Y-86498087D01*
X127703498Y-86270000D01*
X127683543Y-86041913D01*
X127671991Y-85998799D01*
X127625707Y-85826067D01*
X127625706Y-85826065D01*
X127624284Y-85820757D01*
X127599549Y-85767712D01*
X127529849Y-85618238D01*
X127529846Y-85618233D01*
X127527523Y-85613251D01*
X127435925Y-85482436D01*
X127399357Y-85430211D01*
X127399355Y-85430208D01*
X127396198Y-85425700D01*
X127234300Y-85263802D01*
X127229792Y-85260645D01*
X127229789Y-85260643D01*
X127151611Y-85205902D01*
X127046749Y-85132477D01*
X127041767Y-85130154D01*
X127041762Y-85130151D01*
X127007543Y-85114195D01*
X126954258Y-85067278D01*
X126934797Y-84999001D01*
X126955339Y-84931041D01*
X127007543Y-84885805D01*
X127041762Y-84869849D01*
X127041767Y-84869846D01*
X127046749Y-84867523D01*
X127217365Y-84748056D01*
X127229789Y-84739357D01*
X127229792Y-84739355D01*
X127234300Y-84736198D01*
X127396198Y-84574300D01*
X127527523Y-84386749D01*
X127529846Y-84381767D01*
X127529849Y-84381762D01*
X127621961Y-84184225D01*
X127621961Y-84184224D01*
X127624284Y-84179243D01*
X127683543Y-83958087D01*
X127703498Y-83730000D01*
X127683543Y-83501913D01*
X127643514Y-83352522D01*
X127625707Y-83286067D01*
X127625706Y-83286065D01*
X127624284Y-83280757D01*
X127601006Y-83230837D01*
X127529849Y-83078238D01*
X127529846Y-83078233D01*
X127527523Y-83073251D01*
X127424600Y-82926262D01*
X127399357Y-82890211D01*
X127399355Y-82890208D01*
X127396198Y-82885700D01*
X127234300Y-82723802D01*
X127229792Y-82720645D01*
X127229789Y-82720643D01*
X127073158Y-82610969D01*
X127046749Y-82592477D01*
X127041767Y-82590154D01*
X127041762Y-82590151D01*
X127007543Y-82574195D01*
X126954258Y-82527278D01*
X126934797Y-82459001D01*
X126955339Y-82391041D01*
X127007543Y-82345805D01*
X127041762Y-82329849D01*
X127041767Y-82329846D01*
X127046749Y-82327523D01*
X127151611Y-82254098D01*
X127229789Y-82199357D01*
X127229792Y-82199355D01*
X127234300Y-82196198D01*
X127396198Y-82034300D01*
X127418669Y-82002209D01*
X127524366Y-81851257D01*
X127527523Y-81846749D01*
X127529846Y-81841767D01*
X127529849Y-81841762D01*
X127621961Y-81644225D01*
X127621961Y-81644224D01*
X127624284Y-81639243D01*
X127630120Y-81617465D01*
X127682119Y-81423402D01*
X127682119Y-81423400D01*
X127683543Y-81418087D01*
X127703498Y-81190000D01*
X127683543Y-80961913D01*
X127666895Y-80899782D01*
X127625707Y-80746067D01*
X127625706Y-80746065D01*
X127624284Y-80740757D01*
X127616499Y-80724061D01*
X127529849Y-80538238D01*
X127529846Y-80538233D01*
X127527523Y-80533251D01*
X127396198Y-80345700D01*
X127234300Y-80183802D01*
X127229792Y-80180645D01*
X127229789Y-80180643D01*
X127057277Y-80059849D01*
X127046749Y-80052477D01*
X127041767Y-80050154D01*
X127041762Y-80050151D01*
X127007543Y-80034195D01*
X126954258Y-79987278D01*
X126934797Y-79919001D01*
X126955339Y-79851041D01*
X127007543Y-79805805D01*
X127041762Y-79789849D01*
X127041767Y-79789846D01*
X127046749Y-79787523D01*
X127151611Y-79714098D01*
X127229789Y-79659357D01*
X127229792Y-79659355D01*
X127234300Y-79656198D01*
X127396198Y-79494300D01*
X127408182Y-79477186D01*
X127457670Y-79406509D01*
X127527523Y-79306749D01*
X127529846Y-79301767D01*
X127529849Y-79301762D01*
X127621961Y-79104225D01*
X127621961Y-79104224D01*
X127624284Y-79099243D01*
X127641184Y-79036174D01*
X127682119Y-78883402D01*
X127682119Y-78883400D01*
X127683543Y-78878087D01*
X127703498Y-78650000D01*
X127683543Y-78421913D01*
X127657855Y-78326045D01*
X127625707Y-78206067D01*
X127625706Y-78206065D01*
X127624284Y-78200757D01*
X127621961Y-78195775D01*
X127529849Y-77998238D01*
X127529846Y-77998233D01*
X127527523Y-77993251D01*
X127396198Y-77805700D01*
X127234300Y-77643802D01*
X127229792Y-77640645D01*
X127229789Y-77640643D01*
X127097561Y-77548056D01*
X127046749Y-77512477D01*
X127041767Y-77510154D01*
X127041762Y-77510151D01*
X127007543Y-77494195D01*
X126954258Y-77447278D01*
X126934797Y-77379001D01*
X126955339Y-77311041D01*
X127007543Y-77265805D01*
X127041762Y-77249849D01*
X127041767Y-77249846D01*
X127046749Y-77247523D01*
X127223071Y-77124061D01*
X127229789Y-77119357D01*
X127229792Y-77119355D01*
X127234300Y-77116198D01*
X127396198Y-76954300D01*
X127417205Y-76924300D01*
X127524366Y-76771257D01*
X127527523Y-76766749D01*
X127529846Y-76761767D01*
X127529849Y-76761762D01*
X127621961Y-76564225D01*
X127621961Y-76564224D01*
X127624284Y-76559243D01*
X127633746Y-76523933D01*
X127682119Y-76343402D01*
X127682119Y-76343400D01*
X127683543Y-76338087D01*
X127703498Y-76110000D01*
X127683543Y-75881913D01*
X127676919Y-75857193D01*
X127625707Y-75666067D01*
X127625706Y-75666065D01*
X127624284Y-75660757D01*
X127567191Y-75538319D01*
X127529849Y-75458238D01*
X127529846Y-75458233D01*
X127527523Y-75453251D01*
X127396198Y-75265700D01*
X127234300Y-75103802D01*
X127229792Y-75100645D01*
X127229789Y-75100643D01*
X127151611Y-75045902D01*
X127046749Y-74972477D01*
X127041767Y-74970154D01*
X127041762Y-74970151D01*
X126844225Y-74878039D01*
X126844224Y-74878039D01*
X126839243Y-74875716D01*
X126833935Y-74874294D01*
X126833933Y-74874293D01*
X126623402Y-74817881D01*
X126623400Y-74817881D01*
X126618087Y-74816457D01*
X126390000Y-74796502D01*
X126161913Y-74816457D01*
X126156600Y-74817881D01*
X126156598Y-74817881D01*
X125946067Y-74874293D01*
X125946065Y-74874294D01*
X125940757Y-74875716D01*
X125935776Y-74878039D01*
X125935775Y-74878039D01*
X125738238Y-74970151D01*
X125738233Y-74970154D01*
X125733251Y-74972477D01*
X125628389Y-75045902D01*
X125550211Y-75100643D01*
X125550208Y-75100645D01*
X125545700Y-75103802D01*
X125383802Y-75265700D01*
X125252477Y-75453251D01*
X125250154Y-75458233D01*
X125250151Y-75458238D01*
X125212809Y-75538319D01*
X125155716Y-75660757D01*
X125154294Y-75666065D01*
X125154293Y-75666067D01*
X125103081Y-75857193D01*
X125096457Y-75881913D01*
X125076502Y-76110000D01*
X125096457Y-76338087D01*
X125097881Y-76343400D01*
X125097881Y-76343402D01*
X125146255Y-76523933D01*
X125155716Y-76559243D01*
X125158039Y-76564224D01*
X125158039Y-76564225D01*
X125250151Y-76761762D01*
X125250154Y-76761767D01*
X125252477Y-76766749D01*
X125255634Y-76771257D01*
X125362796Y-76924300D01*
X125383802Y-76954300D01*
X125545700Y-77116198D01*
X125550208Y-77119355D01*
X125550211Y-77119357D01*
X125556929Y-77124061D01*
X125733251Y-77247523D01*
X125738233Y-77249846D01*
X125738238Y-77249849D01*
X125772457Y-77265805D01*
X125825742Y-77312722D01*
X125845203Y-77380999D01*
X125824661Y-77448959D01*
X125772457Y-77494195D01*
X125738238Y-77510151D01*
X125738233Y-77510154D01*
X125733251Y-77512477D01*
X125682439Y-77548056D01*
X125550211Y-77640643D01*
X125550208Y-77640645D01*
X125545700Y-77643802D01*
X125383802Y-77805700D01*
X125252477Y-77993251D01*
X125250154Y-77998233D01*
X125250151Y-77998238D01*
X125158039Y-78195775D01*
X125155716Y-78200757D01*
X125154294Y-78206065D01*
X125154293Y-78206067D01*
X125122145Y-78326045D01*
X125096457Y-78421913D01*
X125076502Y-78650000D01*
X125096457Y-78878087D01*
X125097881Y-78883400D01*
X125097881Y-78883402D01*
X125138817Y-79036174D01*
X125155716Y-79099243D01*
X125158039Y-79104224D01*
X125158039Y-79104225D01*
X125250151Y-79301762D01*
X125250154Y-79301767D01*
X125252477Y-79306749D01*
X125322330Y-79406509D01*
X125371819Y-79477186D01*
X125383802Y-79494300D01*
X125545700Y-79656198D01*
X125550208Y-79659355D01*
X125550211Y-79659357D01*
X125628389Y-79714098D01*
X125733251Y-79787523D01*
X125738233Y-79789846D01*
X125738238Y-79789849D01*
X125772457Y-79805805D01*
X125825742Y-79852722D01*
X125845203Y-79920999D01*
X125824661Y-79988959D01*
X125772457Y-80034195D01*
X125738238Y-80050151D01*
X125738233Y-80050154D01*
X125733251Y-80052477D01*
X125722723Y-80059849D01*
X125550211Y-80180643D01*
X125550208Y-80180645D01*
X125545700Y-80183802D01*
X125383802Y-80345700D01*
X125252477Y-80533251D01*
X125250154Y-80538233D01*
X125250151Y-80538238D01*
X125163501Y-80724061D01*
X125155716Y-80740757D01*
X125154294Y-80746065D01*
X125154293Y-80746067D01*
X125113105Y-80899782D01*
X125096457Y-80961913D01*
X125076502Y-81190000D01*
X125096457Y-81418087D01*
X125097881Y-81423400D01*
X125097881Y-81423402D01*
X125149881Y-81617465D01*
X125155716Y-81639243D01*
X125158039Y-81644224D01*
X125158039Y-81644225D01*
X125250151Y-81841762D01*
X125250154Y-81841767D01*
X125252477Y-81846749D01*
X125255634Y-81851257D01*
X125361332Y-82002209D01*
X125383802Y-82034300D01*
X125545700Y-82196198D01*
X125550208Y-82199355D01*
X125550211Y-82199357D01*
X125628389Y-82254098D01*
X125733251Y-82327523D01*
X125738233Y-82329846D01*
X125738238Y-82329849D01*
X125772457Y-82345805D01*
X125825742Y-82392722D01*
X125845203Y-82460999D01*
X125824661Y-82528959D01*
X125772457Y-82574195D01*
X125738238Y-82590151D01*
X125738233Y-82590154D01*
X125733251Y-82592477D01*
X125706842Y-82610969D01*
X125550211Y-82720643D01*
X125550208Y-82720645D01*
X125545700Y-82723802D01*
X125383802Y-82885700D01*
X125380645Y-82890208D01*
X125380643Y-82890211D01*
X125355400Y-82926262D01*
X125252477Y-83073251D01*
X125250154Y-83078233D01*
X125250151Y-83078238D01*
X125178994Y-83230837D01*
X125155716Y-83280757D01*
X125154294Y-83286065D01*
X125154293Y-83286067D01*
X125136486Y-83352522D01*
X125096457Y-83501913D01*
X125076502Y-83730000D01*
X125096457Y-83958087D01*
X125155716Y-84179243D01*
X125158039Y-84184224D01*
X125158039Y-84184225D01*
X125250151Y-84381762D01*
X125250154Y-84381767D01*
X125252477Y-84386749D01*
X125383802Y-84574300D01*
X125545700Y-84736198D01*
X125550208Y-84739355D01*
X125550211Y-84739357D01*
X125562635Y-84748056D01*
X125733251Y-84867523D01*
X125738233Y-84869846D01*
X125738238Y-84869849D01*
X125772457Y-84885805D01*
X125825742Y-84932722D01*
X125845203Y-85000999D01*
X125824661Y-85068959D01*
X125772457Y-85114195D01*
X125738238Y-85130151D01*
X125738233Y-85130154D01*
X125733251Y-85132477D01*
X125628389Y-85205902D01*
X125550211Y-85260643D01*
X125550208Y-85260645D01*
X125545700Y-85263802D01*
X125383802Y-85425700D01*
X125380645Y-85430208D01*
X125380643Y-85430211D01*
X125344075Y-85482436D01*
X125252477Y-85613251D01*
X125250154Y-85618233D01*
X125250151Y-85618238D01*
X125180451Y-85767712D01*
X125155716Y-85820757D01*
X125154294Y-85826065D01*
X125154293Y-85826067D01*
X125108009Y-85998799D01*
X125096457Y-86041913D01*
X125076502Y-86270000D01*
X125096457Y-86498087D01*
X125097881Y-86503400D01*
X125097881Y-86503402D01*
X125140178Y-86661253D01*
X125155716Y-86719243D01*
X125158039Y-86724224D01*
X125158039Y-86724225D01*
X125250151Y-86921762D01*
X125250154Y-86921767D01*
X125252477Y-86926749D01*
X125276937Y-86961681D01*
X125376000Y-87103157D01*
X125383802Y-87114300D01*
X125545700Y-87276198D01*
X125550208Y-87279355D01*
X125550211Y-87279357D01*
X125619422Y-87327819D01*
X125733251Y-87407523D01*
X125738233Y-87409846D01*
X125738238Y-87409849D01*
X125772457Y-87425805D01*
X125825742Y-87472722D01*
X125845203Y-87540999D01*
X125824661Y-87608959D01*
X125772457Y-87654195D01*
X125738238Y-87670151D01*
X125738233Y-87670154D01*
X125733251Y-87672477D01*
X125649165Y-87731355D01*
X125550211Y-87800643D01*
X125550208Y-87800645D01*
X125545700Y-87803802D01*
X125383802Y-87965700D01*
X125380645Y-87970208D01*
X125380643Y-87970211D01*
X125325902Y-88048389D01*
X125252477Y-88153251D01*
X125250154Y-88158233D01*
X125250151Y-88158238D01*
X125163455Y-88344160D01*
X125155716Y-88360757D01*
X125096457Y-88581913D01*
X125076502Y-88810000D01*
X125096457Y-89038087D01*
X125155716Y-89259243D01*
X125158039Y-89264224D01*
X125158039Y-89264225D01*
X125250151Y-89461762D01*
X125250154Y-89461767D01*
X125252477Y-89466749D01*
X125383802Y-89654300D01*
X125545700Y-89816198D01*
X125550208Y-89819355D01*
X125550211Y-89819357D01*
X125628389Y-89874098D01*
X125733251Y-89947523D01*
X125738233Y-89949846D01*
X125738238Y-89949849D01*
X125772457Y-89965805D01*
X125825742Y-90012722D01*
X125845203Y-90080999D01*
X125824661Y-90148959D01*
X125772457Y-90194195D01*
X125738238Y-90210151D01*
X125738233Y-90210154D01*
X125733251Y-90212477D01*
X125628389Y-90285902D01*
X125550211Y-90340643D01*
X125550208Y-90340645D01*
X125545700Y-90343802D01*
X125383802Y-90505700D01*
X125252477Y-90693251D01*
X125250154Y-90698233D01*
X125250151Y-90698238D01*
X125164823Y-90881226D01*
X125155716Y-90900757D01*
X125154294Y-90906065D01*
X125154293Y-90906067D01*
X125097881Y-91116598D01*
X125096457Y-91121913D01*
X125076502Y-91350000D01*
X125096457Y-91578087D01*
X125155716Y-91799243D01*
X125158039Y-91804224D01*
X125158039Y-91804225D01*
X125250151Y-92001762D01*
X125250154Y-92001767D01*
X125252477Y-92006749D01*
X125383802Y-92194300D01*
X125545700Y-92356198D01*
X125550208Y-92359355D01*
X125550211Y-92359357D01*
X125584118Y-92383099D01*
X125733251Y-92487523D01*
X125738233Y-92489846D01*
X125738238Y-92489849D01*
X125772457Y-92505805D01*
X125825742Y-92552722D01*
X125845203Y-92620999D01*
X125824661Y-92688959D01*
X125772457Y-92734195D01*
X125738238Y-92750151D01*
X125738233Y-92750154D01*
X125733251Y-92752477D01*
X125652782Y-92808822D01*
X125550211Y-92880643D01*
X125550208Y-92880645D01*
X125545700Y-92883802D01*
X125383802Y-93045700D01*
X125252477Y-93233251D01*
X125250154Y-93238233D01*
X125250151Y-93238238D01*
X125158039Y-93435775D01*
X125155716Y-93440757D01*
X125154294Y-93446065D01*
X125154293Y-93446067D01*
X125097881Y-93656598D01*
X125096457Y-93661913D01*
X125076502Y-93890000D01*
X125096457Y-94118087D01*
X125097881Y-94123400D01*
X125097881Y-94123402D01*
X125126481Y-94230136D01*
X125155716Y-94339243D01*
X125158039Y-94344224D01*
X125158039Y-94344225D01*
X125250151Y-94541762D01*
X125250154Y-94541767D01*
X125252477Y-94546749D01*
X125383802Y-94734300D01*
X125545700Y-94896198D01*
X125550208Y-94899355D01*
X125550211Y-94899357D01*
X125628389Y-94954098D01*
X125733251Y-95027523D01*
X125738233Y-95029846D01*
X125738238Y-95029849D01*
X125772457Y-95045805D01*
X125825742Y-95092722D01*
X125845203Y-95160999D01*
X125824661Y-95228959D01*
X125772457Y-95274195D01*
X125738238Y-95290151D01*
X125738233Y-95290154D01*
X125733251Y-95292477D01*
X125628389Y-95365902D01*
X125550211Y-95420643D01*
X125550208Y-95420645D01*
X125545700Y-95423802D01*
X125383802Y-95585700D01*
X125252477Y-95773251D01*
X125250154Y-95778233D01*
X125250151Y-95778238D01*
X125158039Y-95975775D01*
X125155716Y-95980757D01*
X125096457Y-96201913D01*
X125076502Y-96430000D01*
X125096457Y-96658087D01*
X125155716Y-96879243D01*
X125158039Y-96884224D01*
X125158039Y-96884225D01*
X125250151Y-97081762D01*
X125250154Y-97081767D01*
X125252477Y-97086749D01*
X125383802Y-97274300D01*
X125545700Y-97436198D01*
X125550208Y-97439355D01*
X125550211Y-97439357D01*
X125628389Y-97494098D01*
X125733251Y-97567523D01*
X125738233Y-97569846D01*
X125738238Y-97569849D01*
X125772457Y-97585805D01*
X125825742Y-97632722D01*
X125845203Y-97700999D01*
X125824661Y-97768959D01*
X125772457Y-97814195D01*
X125738238Y-97830151D01*
X125738233Y-97830154D01*
X125733251Y-97832477D01*
X125628389Y-97905902D01*
X125550211Y-97960643D01*
X125550208Y-97960645D01*
X125545700Y-97963802D01*
X125383802Y-98125700D01*
X125252477Y-98313251D01*
X125250154Y-98318233D01*
X125250151Y-98318238D01*
X125158039Y-98515775D01*
X125155716Y-98520757D01*
X125096457Y-98741913D01*
X125076502Y-98970000D01*
X125096457Y-99198087D01*
X125155716Y-99419243D01*
X125158039Y-99424224D01*
X125158039Y-99424225D01*
X125250151Y-99621762D01*
X125250154Y-99621767D01*
X125252477Y-99626749D01*
X125383802Y-99814300D01*
X125545700Y-99976198D01*
X125550208Y-99979355D01*
X125550211Y-99979357D01*
X125628389Y-100034098D01*
X125733251Y-100107523D01*
X125738233Y-100109846D01*
X125738238Y-100109849D01*
X125772457Y-100125805D01*
X125825742Y-100172722D01*
X125845203Y-100240999D01*
X125824661Y-100308959D01*
X125772457Y-100354195D01*
X125738238Y-100370151D01*
X125738233Y-100370154D01*
X125733251Y-100372477D01*
X125628389Y-100445902D01*
X125550211Y-100500643D01*
X125550208Y-100500645D01*
X125545700Y-100503802D01*
X125383802Y-100665700D01*
X125252477Y-100853251D01*
X125250154Y-100858233D01*
X125250151Y-100858238D01*
X125158039Y-101055775D01*
X125155716Y-101060757D01*
X125096457Y-101281913D01*
X125076502Y-101510000D01*
X124338000Y-101510000D01*
X124338000Y-71030000D01*
X125076502Y-71030000D01*
X125096457Y-71258087D01*
X125155716Y-71479243D01*
X125158039Y-71484224D01*
X125158039Y-71484225D01*
X125250151Y-71681762D01*
X125250154Y-71681767D01*
X125252477Y-71686749D01*
X125266156Y-71706284D01*
X125380321Y-71869328D01*
X125383802Y-71874300D01*
X125545700Y-72036198D01*
X125550208Y-72039355D01*
X125550211Y-72039357D01*
X125628389Y-72094098D01*
X125733251Y-72167523D01*
X125738233Y-72169846D01*
X125738238Y-72169849D01*
X125935775Y-72261961D01*
X125940757Y-72264284D01*
X125946065Y-72265706D01*
X125946067Y-72265707D01*
X126156598Y-72322119D01*
X126156600Y-72322119D01*
X126161913Y-72323543D01*
X126390000Y-72343498D01*
X126618087Y-72323543D01*
X126623400Y-72322119D01*
X126623402Y-72322119D01*
X126833933Y-72265707D01*
X126833935Y-72265706D01*
X126839243Y-72264284D01*
X126844225Y-72261961D01*
X127041762Y-72169849D01*
X127041767Y-72169846D01*
X127046749Y-72167523D01*
X127151611Y-72094098D01*
X127229789Y-72039357D01*
X127229792Y-72039355D01*
X127234300Y-72036198D01*
X127396198Y-71874300D01*
X127399680Y-71869328D01*
X127513844Y-71706284D01*
X127527523Y-71686749D01*
X127529846Y-71681767D01*
X127529849Y-71681762D01*
X127621961Y-71484225D01*
X127621961Y-71484224D01*
X127624284Y-71479243D01*
X127683543Y-71258087D01*
X127703498Y-71030000D01*
X127683543Y-70801913D01*
X127624284Y-70580757D01*
X127621961Y-70575775D01*
X127529849Y-70378238D01*
X127529846Y-70378233D01*
X127527523Y-70373251D01*
X127396198Y-70185700D01*
X127234300Y-70023802D01*
X127229792Y-70020645D01*
X127229789Y-70020643D01*
X127151611Y-69965902D01*
X127046749Y-69892477D01*
X127041767Y-69890154D01*
X127041762Y-69890151D01*
X127007543Y-69874195D01*
X126954258Y-69827278D01*
X126934797Y-69759001D01*
X126955339Y-69691041D01*
X127007543Y-69645805D01*
X127041762Y-69629849D01*
X127041767Y-69629846D01*
X127046749Y-69627523D01*
X127151611Y-69554098D01*
X127229789Y-69499357D01*
X127229792Y-69499355D01*
X127234300Y-69496198D01*
X127396198Y-69334300D01*
X127527523Y-69146749D01*
X127529846Y-69141767D01*
X127529849Y-69141762D01*
X127621961Y-68944225D01*
X127621961Y-68944224D01*
X127624284Y-68939243D01*
X127683543Y-68718087D01*
X127703498Y-68490000D01*
X127683543Y-68261913D01*
X127624284Y-68040757D01*
X127621961Y-68035775D01*
X127529849Y-67838238D01*
X127529846Y-67838233D01*
X127527523Y-67833251D01*
X127396198Y-67645700D01*
X127234300Y-67483802D01*
X127229789Y-67480643D01*
X127225576Y-67477108D01*
X127226527Y-67475974D01*
X127186529Y-67425929D01*
X127179224Y-67355310D01*
X127211258Y-67291951D01*
X127272462Y-67255970D01*
X127289517Y-67252918D01*
X127300316Y-67251745D01*
X127436705Y-67200615D01*
X127553261Y-67113261D01*
X127640615Y-66996705D01*
X127691745Y-66860316D01*
X127698500Y-66798134D01*
X127698500Y-65101866D01*
X127691745Y-65039684D01*
X127640615Y-64903295D01*
X127553261Y-64786739D01*
X127436705Y-64699385D01*
X127300316Y-64648255D01*
X127238134Y-64641500D01*
X125541866Y-64641500D01*
X125479684Y-64648255D01*
X125343295Y-64699385D01*
X125226739Y-64786739D01*
X125139385Y-64903295D01*
X125088255Y-65039684D01*
X125081500Y-65101866D01*
X125081500Y-66798134D01*
X125088255Y-66860316D01*
X125139385Y-66996705D01*
X125226739Y-67113261D01*
X125343295Y-67200615D01*
X125479684Y-67251745D01*
X125490474Y-67252917D01*
X125492606Y-67253803D01*
X125495222Y-67254425D01*
X125495121Y-67254848D01*
X125556035Y-67280155D01*
X125596463Y-67338517D01*
X125598922Y-67409471D01*
X125562629Y-67470490D01*
X125553969Y-67477489D01*
X125550207Y-67480646D01*
X125545700Y-67483802D01*
X125383802Y-67645700D01*
X125252477Y-67833251D01*
X125250154Y-67838233D01*
X125250151Y-67838238D01*
X125158039Y-68035775D01*
X125155716Y-68040757D01*
X125096457Y-68261913D01*
X125076502Y-68490000D01*
X125096457Y-68718087D01*
X125155716Y-68939243D01*
X125158039Y-68944224D01*
X125158039Y-68944225D01*
X125250151Y-69141762D01*
X125250154Y-69141767D01*
X125252477Y-69146749D01*
X125383802Y-69334300D01*
X125545700Y-69496198D01*
X125550208Y-69499355D01*
X125550211Y-69499357D01*
X125628389Y-69554098D01*
X125733251Y-69627523D01*
X125738233Y-69629846D01*
X125738238Y-69629849D01*
X125772457Y-69645805D01*
X125825742Y-69692722D01*
X125845203Y-69760999D01*
X125824661Y-69828959D01*
X125772457Y-69874195D01*
X125738238Y-69890151D01*
X125738233Y-69890154D01*
X125733251Y-69892477D01*
X125628389Y-69965902D01*
X125550211Y-70020643D01*
X125550208Y-70020645D01*
X125545700Y-70023802D01*
X125383802Y-70185700D01*
X125252477Y-70373251D01*
X125250154Y-70378233D01*
X125250151Y-70378238D01*
X125158039Y-70575775D01*
X125155716Y-70580757D01*
X125096457Y-70801913D01*
X125076502Y-71030000D01*
X124338000Y-71030000D01*
X124338000Y-59542277D01*
X124637009Y-59542277D01*
X124662625Y-59810769D01*
X124663710Y-59815203D01*
X124663711Y-59815209D01*
X124709588Y-60002692D01*
X124726731Y-60072750D01*
X124827985Y-60322733D01*
X124964265Y-60555482D01*
X124967118Y-60559049D01*
X125084686Y-60706060D01*
X125132716Y-60766119D01*
X125329809Y-60950234D01*
X125551416Y-61103968D01*
X125555499Y-61105999D01*
X125555502Y-61106001D01*
X125671013Y-61163466D01*
X125792894Y-61224101D01*
X125797228Y-61225522D01*
X125797231Y-61225523D01*
X126044853Y-61306698D01*
X126044859Y-61306699D01*
X126049186Y-61308118D01*
X126053677Y-61308898D01*
X126053678Y-61308898D01*
X126311140Y-61353601D01*
X126311148Y-61353602D01*
X126314921Y-61354257D01*
X126318758Y-61354448D01*
X126398578Y-61358422D01*
X126398586Y-61358422D01*
X126400149Y-61358500D01*
X126568512Y-61358500D01*
X126570780Y-61358335D01*
X126570792Y-61358335D01*
X126701884Y-61348823D01*
X126769004Y-61343953D01*
X126773459Y-61342969D01*
X126773462Y-61342969D01*
X127027912Y-61286791D01*
X127027916Y-61286790D01*
X127032372Y-61285806D01*
X127158480Y-61238028D01*
X127280318Y-61191868D01*
X127280321Y-61191867D01*
X127284588Y-61190250D01*
X127520368Y-61059286D01*
X127734773Y-60895657D01*
X127923312Y-60702792D01*
X128082034Y-60484730D01*
X128165190Y-60326676D01*
X128205490Y-60250079D01*
X128205493Y-60250073D01*
X128207615Y-60246039D01*
X128229504Y-60184057D01*
X128295902Y-59996033D01*
X128295902Y-59996032D01*
X128297425Y-59991720D01*
X128349581Y-59727100D01*
X128355647Y-59605256D01*
X128362764Y-59462292D01*
X128362764Y-59462286D01*
X128362991Y-59457723D01*
X128337375Y-59189231D01*
X128292042Y-59003967D01*
X128274355Y-58931688D01*
X128273269Y-58927250D01*
X128172015Y-58677267D01*
X128035735Y-58444518D01*
X127917928Y-58297208D01*
X127870136Y-58237447D01*
X127870135Y-58237445D01*
X127867284Y-58233881D01*
X127670191Y-58049766D01*
X127448584Y-57896032D01*
X127444501Y-57894001D01*
X127444498Y-57893999D01*
X127279606Y-57811967D01*
X127207106Y-57775899D01*
X127202772Y-57774478D01*
X127202769Y-57774477D01*
X126955147Y-57693302D01*
X126955141Y-57693301D01*
X126950814Y-57691882D01*
X126946322Y-57691102D01*
X126688860Y-57646399D01*
X126688852Y-57646398D01*
X126685079Y-57645743D01*
X126673817Y-57645182D01*
X126601422Y-57641578D01*
X126601414Y-57641578D01*
X126599851Y-57641500D01*
X126431488Y-57641500D01*
X126429220Y-57641665D01*
X126429208Y-57641665D01*
X126298116Y-57651177D01*
X126230996Y-57656047D01*
X126226541Y-57657031D01*
X126226538Y-57657031D01*
X125972088Y-57713209D01*
X125972084Y-57713210D01*
X125967628Y-57714194D01*
X125841520Y-57761972D01*
X125719682Y-57808132D01*
X125719679Y-57808133D01*
X125715412Y-57809750D01*
X125479632Y-57940714D01*
X125265227Y-58104343D01*
X125076688Y-58297208D01*
X124917966Y-58515270D01*
X124915844Y-58519304D01*
X124794510Y-58749921D01*
X124794507Y-58749927D01*
X124792385Y-58753961D01*
X124790865Y-58758266D01*
X124790863Y-58758270D01*
X124704098Y-59003967D01*
X124702575Y-59008280D01*
X124701692Y-59012762D01*
X124655207Y-59248609D01*
X124650419Y-59272900D01*
X124650192Y-59277453D01*
X124650192Y-59277456D01*
X124640991Y-59462292D01*
X124637009Y-59542277D01*
X124338000Y-59542277D01*
X124338000Y-57514000D01*
X124358002Y-57445879D01*
X124411658Y-57399386D01*
X124464000Y-57388000D01*
X134904470Y-57388000D01*
X134972591Y-57408002D01*
G37*
G04 #@! TD.AperFunction*
G04 #@! TD*
M02*
