G04 #@! TF.GenerationSoftware,KiCad,Pcbnew,(6.0.2)*
G04 #@! TF.CreationDate,2022-06-05T11:24:39+02:00*
G04 #@! TF.ProjectId,Whame,5768616d-652e-46b6-9963-61645f706362,rev?*
G04 #@! TF.SameCoordinates,Original*
G04 #@! TF.FileFunction,Soldermask,Top*
G04 #@! TF.FilePolarity,Negative*
%FSLAX46Y46*%
G04 Gerber Fmt 4.6, Leading zero omitted, Abs format (unit mm)*
G04 Created by KiCad (PCBNEW (6.0.2)) date 2022-06-05 11:24:39*
%MOMM*%
%LPD*%
G01*
G04 APERTURE LIST*
G04 Aperture macros list*
%AMRoundRect*
0 Rectangle with rounded corners*
0 $1 Rounding radius*
0 $2 $3 $4 $5 $6 $7 $8 $9 X,Y pos of 4 corners*
0 Add a 4 corners polygon primitive as box body*
4,1,4,$2,$3,$4,$5,$6,$7,$8,$9,$2,$3,0*
0 Add four circle primitives for the rounded corners*
1,1,$1+$1,$2,$3*
1,1,$1+$1,$4,$5*
1,1,$1+$1,$6,$7*
1,1,$1+$1,$8,$9*
0 Add four rect primitives between the rounded corners*
20,1,$1+$1,$2,$3,$4,$5,0*
20,1,$1+$1,$4,$5,$6,$7,0*
20,1,$1+$1,$6,$7,$8,$9,0*
20,1,$1+$1,$8,$9,$2,$3,0*%
G04 Aperture macros list end*
%ADD10C,1.524000*%
%ADD11C,4.000000*%
%ADD12C,1.600000*%
%ADD13O,1.600000X1.600000*%
%ADD14O,2.000000X0.800000*%
%ADD15O,0.800000X2.000000*%
%ADD16R,1.800000X1.000000*%
%ADD17R,1.600000X1.600000*%
%ADD18C,2.700000*%
%ADD19RoundRect,0.650000X-0.650000X-0.650000X0.650000X-0.650000X0.650000X0.650000X-0.650000X0.650000X0*%
%ADD20C,2.600000*%
G04 APERTURE END LIST*
D10*
G04 #@! TO.C,U2*
X163500000Y-93170000D03*
X161500000Y-93250000D03*
X159500000Y-93250000D03*
X157500000Y-93170000D03*
X155500000Y-93170000D03*
X153500000Y-93170000D03*
X151500000Y-93170000D03*
X149500000Y-93170000D03*
X147500000Y-93170000D03*
X145340000Y-93170000D03*
D11*
X146500000Y-105170000D03*
X162500000Y-105170000D03*
G04 #@! TD*
D12*
G04 #@! TO.C,R1*
X146000000Y-76080000D03*
D13*
X146000000Y-65920000D03*
G04 #@! TD*
D14*
G04 #@! TO.C,U1*
X150600000Y-74050000D03*
X150600000Y-75250000D03*
X150600000Y-76450000D03*
X150600000Y-77650000D03*
X150600000Y-78850000D03*
X150600000Y-80050000D03*
X150600000Y-81250000D03*
X150600000Y-82450000D03*
X150600000Y-83650000D03*
X150600000Y-84850000D03*
X150600000Y-86050000D03*
X150600000Y-87250000D03*
X163400000Y-87250000D03*
X163400000Y-86050000D03*
X163400000Y-84850000D03*
X163400000Y-83650000D03*
X163400000Y-82450000D03*
X163400000Y-81250000D03*
X163400000Y-80050000D03*
X163400000Y-78850000D03*
X163400000Y-77650000D03*
X163400000Y-76450000D03*
X163400000Y-75250000D03*
X163400000Y-74050000D03*
D15*
X160100000Y-89750000D03*
X153900000Y-89750000D03*
X161100000Y-89750000D03*
X158800000Y-89750000D03*
X157600000Y-89750000D03*
X156400000Y-89750000D03*
X155200000Y-89750000D03*
X152900000Y-89750000D03*
D16*
X162600000Y-89350000D03*
X151400000Y-70350000D03*
X151400000Y-89350000D03*
X162600000Y-70350000D03*
G04 #@! TD*
D13*
G04 #@! TO.C,A1*
X141630000Y-65950000D03*
X141630000Y-68490000D03*
X141630000Y-71030000D03*
X141630000Y-73570000D03*
X141630000Y-76110000D03*
X141630000Y-78650000D03*
X141630000Y-81190000D03*
X141630000Y-83730000D03*
X141630000Y-86270000D03*
X141630000Y-88810000D03*
X141630000Y-91350000D03*
X141630000Y-93890000D03*
X141630000Y-96430000D03*
X141630000Y-98970000D03*
X141630000Y-101510000D03*
X126390000Y-101510000D03*
X126390000Y-98970000D03*
X126390000Y-96430000D03*
X126390000Y-93890000D03*
X126390000Y-91350000D03*
X126390000Y-88810000D03*
X126390000Y-86270000D03*
X126390000Y-83730000D03*
X126390000Y-81190000D03*
X126390000Y-78650000D03*
X126390000Y-76110000D03*
X126390000Y-73570000D03*
X126390000Y-71030000D03*
X126390000Y-68490000D03*
D17*
X126390000Y-65950000D03*
G04 #@! TD*
D18*
G04 #@! TO.C,REF\u002A\u002A*
X126500000Y-59500000D03*
G04 #@! TD*
D19*
G04 #@! TO.C,J1*
X145960000Y-61000000D03*
D20*
X151040000Y-61000000D03*
G04 #@! TD*
D12*
G04 #@! TO.C,R2*
X146000000Y-89080000D03*
D13*
X146000000Y-78920000D03*
G04 #@! TD*
D18*
G04 #@! TO.C,REF\u002A\u002A*
X162500000Y-59500000D03*
G04 #@! TD*
M02*
