M48
; DRILL file {KiCad (6.0.2)} date Sun Jun  5 11:24:35 2022
; FORMAT={-:-/ absolute / inch / decimal}
; #@! TF.CreationDate,2022-06-05T11:24:35+02:00
; #@! TF.GenerationSoftware,Kicad,Pcbnew,(6.0.2)
; #@! TF.FileFunction,Plated,1,2,PTH
FMAT,2
INCH
; #@! TA.AperFunction,Plated,PTH,ViaDrill
T1C0.0157
; #@! TA.AperFunction,Plated,PTH,ComponentDrill
T2C0.0315
; #@! TA.AperFunction,Plated,PTH,ComponentDrill
T3C0.0394
; #@! TA.AperFunction,Plated,PTH,ComponentDrill
T4C0.0512
; #@! TA.AperFunction,Plated,PTH,ComponentDrill
T5C0.1181
%
G90
G05
T1
X5.4524Y-2.6965
X6.0236Y-3.4252
X6.063Y-3.1102
X6.2402Y-2.9528
T2
X5.748Y-2.5953
X5.748Y-2.9953
X5.748Y-3.1071
X5.748Y-3.5071
T3
X4.976Y-2.5965
X4.976Y-2.6965
X4.976Y-2.7965
X4.976Y-2.8965
X4.976Y-2.9965
X4.976Y-3.0965
X4.976Y-3.1965
X4.976Y-3.2965
X4.976Y-3.3965
X4.976Y-3.4965
X4.976Y-3.5965
X4.976Y-3.6965
X4.976Y-3.7965
X4.976Y-3.8965
X4.976Y-3.9965
X5.576Y-2.5965
X5.576Y-2.6965
X5.576Y-2.7965
X5.576Y-2.8965
X5.576Y-2.9965
X5.576Y-3.0965
X5.576Y-3.1965
X5.576Y-3.2965
X5.576Y-3.3965
X5.576Y-3.4965
X5.576Y-3.5965
X5.576Y-3.6965
X5.576Y-3.7965
X5.576Y-3.8965
X5.576Y-3.9965
X5.722Y-3.6681
X5.8071Y-3.6681
X5.8858Y-3.6681
X5.9646Y-3.6681
X6.0433Y-3.6681
X6.122Y-3.6681
X6.2008Y-3.6681
X6.2795Y-3.6713
X6.3583Y-3.6713
X6.437Y-3.6681
T4
X5.7465Y-2.4016
X5.9465Y-2.4016
T5
X5.7677Y-4.1406
X6.3976Y-4.1406
T0
M30
